<svg width="718" height="256" viewBox="0 0 718 256" fill="none" xmlns="http://www.w3.org/2000/svg">
<path d="M128 0L156.738 88.4458H249.735L174.499 143.108L203.237 231.554L128 176.892L52.7635 231.554L81.5013 143.108L6.26476 88.4458H99.2622L128 0Z" fill="#C2C535"/>
<path d="M128 0L156.738 88.4458H249.741L174.499 143.108L203.237 231.554L128 176.892C128 176.892 144.666 184.142 152.601 178.682C165.043 170.121 145.125 140.518 133.549 118.936C122.636 98.5896 105.803 67.8844 105.803 67.8844L128 0Z" fill="#DE2C20"/>
<path d="M178.2 165V95H203.3C209.167 95 214.2 95.9333 218.4 97.8C222.6 99.6667 225.833 102.367 228.1 105.9C230.367 109.367 231.5 113.6 231.5 118.6C231.5 123.467 230.367 127.667 228.1 131.2C225.833 134.667 222.6 137.367 218.4 139.3C214.2 141.167 209.167 142.1 203.3 142.1H181L183.3 139.7V165H178.2ZM226.8 165L208.6 139.6H214.4L232.6 165H226.8ZM183.3 140L181 137.6H203.3C210.833 137.6 216.533 135.933 220.4 132.6C224.333 129.267 226.3 124.6 226.3 118.6C226.3 112.533 224.333 107.867 220.4 104.6C216.533 101.267 210.833 99.6 203.3 99.6H181L183.3 97.1V140ZM280.984 165V153.1L280.784 151.3V131.7C280.784 126.833 279.451 123.133 276.784 120.6C274.184 118.067 270.351 116.8 265.284 116.8C261.684 116.8 258.318 117.433 255.184 118.7C252.118 119.9 249.484 121.467 247.284 123.4L244.784 119.8C247.384 117.467 250.518 115.667 254.184 114.4C257.851 113.067 261.684 112.4 265.684 112.4C272.151 112.4 277.118 114.033 280.584 117.3C284.051 120.567 285.784 125.433 285.784 131.9V165H280.984ZM262.184 165.4C258.318 165.4 254.951 164.8 252.084 163.6C249.284 162.333 247.118 160.567 245.584 158.3C244.118 156.033 243.384 153.433 243.384 150.5C243.384 147.833 243.984 145.433 245.184 143.3C246.451 141.1 248.518 139.333 251.384 138C254.251 136.6 258.084 135.9 262.884 135.9H282.084V139.8H262.984C257.584 139.8 253.784 140.8 251.584 142.8C249.451 144.8 248.384 147.3 248.384 150.3C248.384 153.633 249.651 156.3 252.184 158.3C254.718 160.3 258.284 161.3 262.884 161.3C267.284 161.3 270.984 160.3 273.984 158.3C277.051 156.3 279.318 153.4 280.784 149.6L282.184 153C280.784 156.8 278.384 159.833 274.984 162.1C271.651 164.3 267.384 165.4 262.184 165.4ZM321.585 165.4C316.985 165.4 313.452 164.133 310.985 161.6C308.585 159.067 307.385 155.6 307.385 151.2V101.4H312.385V150.7C312.385 154.033 313.218 156.6 314.885 158.4C316.552 160.2 318.952 161.1 322.085 161.1C325.352 161.1 328.052 160.133 330.185 158.2L332.285 161.7C330.952 162.967 329.318 163.9 327.385 164.5C325.518 165.1 323.585 165.4 321.585 165.4ZM297.785 117.1V112.8H328.985V117.1H297.785ZM365.573 165.4C360.307 165.4 355.64 164.267 351.573 162C347.573 159.733 344.407 156.6 342.073 152.6C339.807 148.6 338.673 144.033 338.673 138.9C338.673 133.7 339.74 129.133 341.873 125.2C344.073 121.2 347.073 118.067 350.873 115.8C354.673 113.533 358.94 112.4 363.673 112.4C368.407 112.4 372.64 113.5 376.373 115.7C380.173 117.9 383.14 121 385.273 125C387.473 128.933 388.573 133.5 388.573 138.7C388.573 138.9 388.54 139.133 388.473 139.4C388.473 139.6 388.473 139.833 388.473 140.1H342.373V136.2H385.773L383.773 138.1C383.84 134.033 382.973 130.4 381.173 127.2C379.44 123.933 377.073 121.4 374.073 119.6C371.073 117.733 367.607 116.8 363.673 116.8C359.807 116.8 356.34 117.733 353.273 119.6C350.273 121.4 347.907 123.933 346.173 127.2C344.44 130.4 343.573 134.067 343.573 138.2V139.1C343.573 143.367 344.507 147.167 346.373 150.5C348.307 153.767 350.94 156.333 354.273 158.2C357.607 160 361.407 160.9 365.673 160.9C369.007 160.9 372.107 160.3 374.973 159.1C377.907 157.9 380.373 156.067 382.373 153.6L385.273 156.9C383.007 159.7 380.14 161.833 376.673 163.3C373.273 164.7 369.573 165.4 365.573 165.4ZM435.477 165V153.1L435.277 151.3V131.7C435.277 126.833 433.943 123.133 431.277 120.6C428.677 118.067 424.843 116.8 419.777 116.8C416.177 116.8 412.81 117.433 409.677 118.7C406.61 119.9 403.977 121.467 401.777 123.4L399.277 119.8C401.877 117.467 405.01 115.667 408.677 114.4C412.343 113.067 416.177 112.4 420.177 112.4C426.643 112.4 431.61 114.033 435.077 117.3C438.543 120.567 440.277 125.433 440.277 131.9V165H435.477ZM416.677 165.4C412.81 165.4 409.443 164.8 406.577 163.6C403.777 162.333 401.61 160.567 400.077 158.3C398.61 156.033 397.877 153.433 397.877 150.5C397.877 147.833 398.477 145.433 399.677 143.3C400.943 141.1 403.01 139.333 405.877 138C408.743 136.6 412.577 135.9 417.377 135.9H436.577V139.8H417.477C412.077 139.8 408.277 140.8 406.077 142.8C403.943 144.8 402.877 147.3 402.877 150.3C402.877 153.633 404.143 156.3 406.677 158.3C409.21 160.3 412.777 161.3 417.377 161.3C421.777 161.3 425.477 160.3 428.477 158.3C431.543 156.3 433.81 153.4 435.277 149.6L436.677 153C435.277 156.8 432.877 159.833 429.477 162.1C426.143 164.3 421.877 165.4 416.677 165.4ZM482.077 165.4C477.611 165.4 473.744 164.6 470.477 163C467.211 161.333 464.677 158.867 462.877 155.6C461.144 152.267 460.277 148.167 460.277 143.3V112.8H465.277V142.9C465.277 148.767 466.777 153.233 469.777 156.3C472.777 159.367 477.011 160.9 482.477 160.9C486.411 160.9 489.811 160.067 492.677 158.4C495.544 156.733 497.744 154.4 499.277 151.4C500.811 148.333 501.577 144.733 501.577 140.6V112.8H506.577V165H501.777V150.5L502.477 152.2C500.944 156.267 498.377 159.5 494.777 161.9C491.244 164.233 487.011 165.4 482.077 165.4ZM527.772 165V112.8H532.572V127.1L532.072 125.5C533.539 121.3 536.005 118.067 539.472 115.8C542.939 113.533 547.272 112.4 552.472 112.4V117.3C552.272 117.3 552.072 117.3 551.872 117.3C551.672 117.233 551.472 117.2 551.272 117.2C545.472 117.2 540.939 119.033 537.672 122.7C534.405 126.3 532.772 131.333 532.772 137.8V165H527.772ZM595.242 165V153.1L595.042 151.3V131.7C595.042 126.833 593.709 123.133 591.042 120.6C588.442 118.067 584.609 116.8 579.542 116.8C575.942 116.8 572.576 117.433 569.442 118.7C566.376 119.9 563.742 121.467 561.542 123.4L559.042 119.8C561.642 117.467 564.776 115.667 568.442 114.4C572.109 113.067 575.942 112.4 579.942 112.4C586.409 112.4 591.376 114.033 594.842 117.3C598.309 120.567 600.042 125.433 600.042 131.9V165H595.242ZM576.442 165.4C572.576 165.4 569.209 164.8 566.342 163.6C563.542 162.333 561.376 160.567 559.842 158.3C558.376 156.033 557.642 153.433 557.642 150.5C557.642 147.833 558.242 145.433 559.442 143.3C560.709 141.1 562.776 139.333 565.642 138C568.509 136.6 572.342 135.9 577.142 135.9H596.342V139.8H577.242C571.842 139.8 568.042 140.8 565.842 142.8C563.709 144.8 562.642 147.3 562.642 150.3C562.642 153.633 563.909 156.3 566.442 158.3C568.976 160.3 572.542 161.3 577.142 161.3C581.542 161.3 585.242 160.3 588.242 158.3C591.309 156.3 593.576 153.4 595.042 149.6L596.442 153C595.042 156.8 592.642 159.833 589.242 162.1C585.909 164.3 581.642 165.4 576.442 165.4ZM646.143 112.4C650.41 112.4 654.11 113.233 657.243 114.9C660.443 116.5 662.91 118.967 664.643 122.3C666.443 125.567 667.343 129.633 667.343 134.5V165H662.343V134.9C662.343 129.033 660.843 124.567 657.843 121.5C654.91 118.433 650.776 116.9 645.443 116.9C641.376 116.9 637.843 117.733 634.843 119.4C631.843 121.067 629.543 123.4 627.943 126.4C626.41 129.4 625.643 133 625.643 137.2V165H620.643V112.8H625.443V127.3L624.743 125.7C626.343 121.567 628.976 118.333 632.643 116C636.31 113.6 640.81 112.4 646.143 112.4ZM703.128 165.4C698.528 165.4 694.995 164.133 692.528 161.6C690.128 159.067 688.928 155.6 688.928 151.2V101.4H693.928V150.7C693.928 154.033 694.761 156.6 696.428 158.4C698.095 160.2 700.495 161.1 703.628 161.1C706.895 161.1 709.595 160.133 711.728 158.2L713.828 161.7C712.495 162.967 710.861 163.9 708.928 164.5C707.061 165.1 705.128 165.4 703.128 165.4ZM679.328 117.1V112.8H710.528V117.1H679.328Z" fill="#FFFFEA"/>
</svg>
