<svg width="128" height="128" viewBox="0 0 128 128" fill="none" xmlns="http://www.w3.org/2000/svg">
<rect width="128" height="128" fill="#757575"/>
<path d="M70.143 30.3125C70.143 26.9246 67.3979 24.1875 64.0001 24.1875C60.6023 24.1875 57.8572 26.9246 57.8572 30.3125V57.875H30.2144C26.8166 57.875 24.0715 60.6121 24.0715 64C24.0715 67.3879 26.8166 70.125 30.2144 70.125H57.8572V97.6875C57.8572 101.075 60.6023 103.812 64.0001 103.812C67.3979 103.812 70.143 101.075 70.143 97.6875V70.125H97.7858C101.184 70.125 103.929 67.3879 103.929 64C103.929 60.6121 101.184 57.875 97.7858 57.875H70.143V30.3125Z" fill="white"/>
</svg>
