<?xml version="1.0" standalone="no"?>
<!DOCTYPE svg PUBLIC "-//W3C//DTD SVG 20010904//EN"
 "http://www.w3.org/TR/2001/REC-SVG-20010904/DTD/svg10.dtd">
<svg version="1.0" xmlns="http://www.w3.org/2000/svg"
 width="260.000000pt" height="260.000000pt" viewBox="0 0 260.000000 260.000000"
 preserveAspectRatio="xMidYMid meet">
<metadata>
Created by potrace 1.14, written by Peter Selinger 2001-2017
</metadata>
<g transform="translate(0.000000,260.000000) scale(0.100000,-0.100000)"
fill="#000000" stroke="none">
<path d="M1198 2108 c-53 -161 -118 -359 -143 -440 l-46 -147 -442 0 c-243 0
-455 0 -471 0 -29 -1 -29 -2 21 -38 28 -21 61 -45 73 -53 12 -8 43 -31 69 -50
108 -79 230 -168 296 -214 39 -28 75 -55 82 -60 6 -6 52 -40 101 -75 l89 -64
-37 -116 c-99 -306 -125 -388 -186 -574 -36 -109 -64 -200 -62 -202 2 -1 44
28 93 64 114 86 636 465 652 474 13 8 57 -20 203 -128 41 -31 89 -66 107 -78
92 -65 309 -222 313 -227 14 -16 142 -101 146 -97 3 2 -2 22 -10 43 -8 22 -60
181 -116 354 -56 173 -114 353 -130 400 -26 77 -27 85 -12 97 10 7 145 106
302 219 157 114 310 227 341 250 31 23 67 47 79 54 12 6 19 14 16 17 -3 4
-215 6 -470 6 l-465 0 -25 76 c-13 42 -68 211 -121 376 -54 165 -106 328 -118
363 -11 34 -23 62 -26 62 -4 0 -50 -132 -103 -292z"/>
</g>
</svg>
