<?xml version="1.0" standalone="no"?>
<!DOCTYPE svg PUBLIC "-//W3C//DTD SVG 20010904//EN"
 "http://www.w3.org/TR/2001/REC-SVG-20010904/DTD/svg10.dtd">
<svg version="1.0" xmlns="http://www.w3.org/2000/svg"
 width="700.000000pt" height="700.000000pt" viewBox="0 0 700.000000 700.000000"
 preserveAspectRatio="xMidYMid meet">
<metadata>
Created by potrace 1.14, written by Peter Selinger 2001-2017
</metadata>
<g transform="translate(0.000000,700.000000) scale(0.100000,-0.100000)"
fill="#000000" stroke="none">
<path d="M1809 6376 c-2 -2 -25 -6 -51 -9 -248 -30 -526 -198 -689 -418 -52
-70 -130 -213 -144 -264 -26 -93 -40 -130 -50 -137 -7 -5 -6 -8 2 -8 8 0 9 -9
3 -31 -5 -17 -10 -49 -12 -71 -1 -22 -6 -42 -10 -44 -5 -3 -6 -9 -4 -13 6 -10
7 -65 7 -321 -1 -118 -1 -424 -2 -680 0 -256 -1 -469 -1 -475 0 -5 1 -446 2
-979 0 -533 -1 -971 -4 -973 -3 -3 -1 -16 4 -29 6 -14 6 -26 -1 -29 -5 -4 -7
-11 -3 -16 3 -6 8 -31 10 -57 8 -99 43 -242 75 -303 11 -22 17 -39 15 -39 -3
0 14 -33 38 -72 23 -40 41 -79 38 -86 -2 -7 2 -11 10 -10 7 2 13 -4 13 -12 0
-8 -6 -14 -13 -12 -8 1 -11 -2 -7 -9 5 -7 11 -7 17 -1 13 13 53 -22 43 -37 -4
-7 -1 -10 7 -9 7 2 12 -3 10 -10 -1 -8 1 -11 6 -8 13 8 64 -52 56 -65 -4 -8
-3 -9 4 -5 17 10 115 -76 99 -87 -8 -6 -5 -7 7 -3 10 4 26 0 35 -7 9 -8 49
-32 89 -54 39 -22 69 -43 65 -48 -5 -4 -3 -5 3 -2 13 7 74 -11 74 -22 0 -4 8
-7 18 -8 9 0 48 -9 85 -18 54 -14 67 -21 62 -34 -3 -11 0 -10 10 3 14 18 20
15 16 -8 -1 -5 4 -4 11 2 14 12 58 13 58 1 0 -3 10 -5 23 -3 12 2 76 6 142 9
136 6 174 10 195 18 44 18 187 61 198 60 7 0 11 2 8 5 -9 9 115 72 127 65 6
-3 7 -2 4 3 -3 5 21 29 53 53 33 23 78 62 101 86 24 24 47 41 52 38 6 -3 7 -1
4 4 -8 13 27 46 38 36 4 -5 5 -3 1 4 -8 15 44 92 62 93 7 0 11 4 7 9 -3 5 4
26 16 46 18 31 24 34 38 23 14 -12 14 -11 2 4 -11 15 -10 24 10 65 12 27 25
50 28 53 3 3 7 16 9 30 1 14 7 27 12 28 6 2 8 7 5 12 -3 4 1 31 8 59 10 38 16
48 25 41 9 -7 9 -7 2 2 -15 18 -13 51 3 42 9 -5 9 -4 1 5 -7 8 -8 27 -3 54 4
23 8 282 9 577 0 294 1 540 1 545 0 66 -1 484 -1 525 -1 30 -2 494 -4 1030 -1
536 -6 989 -9 1005 -4 17 -12 53 -18 80 -15 64 -65 197 -97 255 -105 190 -278
358 -467 452 -49 25 -161 66 -198 74 -10 2 -26 5 -35 8 -9 3 -30 8 -47 11 -35
8 -299 17 -306 11z"/>
<path d="M4552 6348 c-45 -4 -107 -12 -136 -18 -29 -6 -65 -13 -80 -16 -132
-24 -385 -145 -510 -244 -153 -122 -273 -264 -368 -436 -39 -70 -101 -221
-114 -276 -2 -10 -6 -28 -9 -40 -38 -160 -49 -342 -30 -493 5 -38 9 -84 9
-102 1 -17 4 -30 7 -28 3 2 11 -24 19 -58 7 -34 19 -74 27 -89 7 -15 12 -31
11 -35 -1 -4 8 -30 20 -56 13 -26 20 -53 16 -59 -4 -6 -3 -8 4 -4 9 5 29 -32
23 -43 -2 -2 4 -8 13 -13 9 -5 16 -14 16 -19 0 -12 70 -121 83 -130 5 -4 7
-11 3 -17 -3 -6 -1 -14 5 -18 8 -5 9 -3 4 7 -8 12 -6 12 8 0 9 -7 17 -22 17
-33 0 -10 4 -17 9 -13 12 7 42 -35 35 -47 -3 -5 -1 -7 4 -6 5 2 39 -27 76 -63
36 -37 66 -65 66 -62 0 2 24 -15 53 -38 28 -23 52 -45 52 -49 0 -5 4 -12 9
-17 5 -5 6 -3 2 5 -12 20 4 14 70 -28 35 -22 68 -40 74 -40 6 0 8 -4 5 -10 -3
-5 0 -7 8 -4 8 3 22 -2 30 -11 9 -9 18 -15 19 -13 3 3 117 -36 153 -52 24 -11
83 -23 88 -18 1 2 16 -5 31 -16 16 -10 25 -12 21 -5 -6 9 -3 10 11 5 27 -11
44 -14 95 -17 24 -1 52 -6 62 -11 12 -6 23 -5 31 1 7 6 15 8 19 5 8 -8 143 -8
156 0 6 4 11 2 11 -5 0 -8 4 -8 15 1 8 7 30 10 49 8 19 -2 33 -1 30 3 -6 10
84 22 98 13 7 -5 8 -3 3 5 -5 9 -1 12 11 10 11 -1 26 1 34 4 53 23 103 35 117
30 10 -4 14 -2 10 4 -7 10 106 59 130 56 7 0 11 2 8 6 -2 4 18 20 45 34 28 15
50 25 50 22 0 -2 10 5 23 16 51 46 166 127 172 121 4 -4 5 -2 4 3 -5 13 130
151 143 147 5 -1 7 2 3 7 -3 6 1 18 10 28 8 10 22 27 31 38 8 11 12 13 8 5 -4
-9 -3 -12 2 -7 5 5 9 16 9 25 0 10 6 16 15 14 8 -2 12 0 8 4 -4 4 1 22 12 39
27 43 106 204 114 233 4 12 11 22 15 22 3 0 7 8 8 18 1 17 29 123 40 152 3 8
7 29 8 45 2 17 7 41 10 55 9 32 14 390 6 390 -4 0 -8 12 -9 28 -4 52 -33 165
-63 251 -208 578 -787 951 -1397 899z"/>
<path d="M5706 4082 c-3 -5 1 -9 9 -9 8 0 12 4 9 9 -3 4 -7 8 -9 8 -2 0 -6 -4
-9 -8z"/>
<path d="M5776 4073 c-6 -14 -5 -15 5 -6 7 7 10 15 7 18 -3 3 -9 -2 -12 -12z"/>
<path d="M3670 3920 c0 -5 5 -10 11 -10 5 0 7 5 4 10 -3 6 -8 10 -11 10 -2 0
-4 -4 -4 -10z"/>
<path d="M5554 3902 c4 -3 14 -7 22 -8 9 -1 13 0 10 4 -4 3 -14 7 -22 8 -9 1
-13 0 -10 -4z"/>
<path d="M5535 3871 c-3 -5 -2 -12 3 -15 5 -3 9 1 9 9 0 17 -3 19 -12 6z"/>
<path d="M3855 3820 c3 -5 8 -10 11 -10 2 0 4 5 4 10 0 6 -5 10 -11 10 -5 0
-7 -4 -4 -10z"/>
<path d="M3913 3805 c0 -8 4 -12 9 -9 5 3 6 10 3 15 -9 13 -12 11 -12 -6z"/>
<path d="M3953 3795 c0 -8 4 -12 9 -9 5 3 6 10 3 15 -9 13 -12 11 -12 -6z"/>
<path d="M3950 3736 c0 -2 8 -10 18 -17 15 -13 16 -12 3 4 -13 16 -21 21 -21
13z"/>
<path d="M5114 3655 c0 -13 3 -22 7 -19 8 4 6 30 -2 38 -3 3 -5 -5 -5 -19z"/>
<path d="M4100 3660 c8 -5 20 -10 25 -10 6 0 3 5 -5 10 -8 5 -19 10 -25 10 -5
0 -3 -5 5 -10z"/>
<path d="M4195 3660 c-3 -5 -1 -10 4 -10 6 0 11 5 11 10 0 6 -2 10 -4 10 -3 0
-8 -4 -11 -10z"/>
<path d="M5055 3660 c-3 -5 -1 -10 4 -10 6 0 11 5 11 10 0 6 -2 10 -4 10 -3 0
-8 -4 -11 -10z"/>
<path d="M4310 3641 c0 -6 4 -13 10 -16 6 -3 7 1 4 9 -7 18 -14 21 -14 7z"/>
<path d="M4165 3620 c-3 -6 1 -7 9 -4 18 7 21 14 7 14 -6 0 -13 -4 -16 -10z"/>
<path d="M4215 3620 c3 -5 8 -10 11 -10 2 0 4 5 4 10 0 6 -5 10 -11 10 -5 0
-7 -4 -4 -10z"/>
<path d="M4310 3602 c0 -5 7 -9 15 -9 8 0 12 4 9 9 -3 4 -9 8 -15 8 -5 0 -9
-4 -9 -8z"/>
<path d="M4496 3601 c8 -8 43 -8 38 0 -2 4 -13 7 -24 6 -10 -1 -17 -3 -14 -6z"/>
<path d="M5013 3585 c0 -8 4 -12 9 -9 5 3 6 10 3 15 -9 13 -12 11 -12 -6z"/>
<path d="M4415 3580 c3 -5 8 -10 11 -10 2 0 4 5 4 10 0 6 -5 10 -11 10 -5 0
-7 -4 -4 -10z"/>
<path d="M4635 3550 c-4 -6 -11 -7 -17 -4 -7 4 -8 2 -4 -5 6 -9 11 -9 22 0 14
11 18 19 10 19 -3 0 -8 -5 -11 -10z"/>
<path d="M4720 3540 c-8 -5 -10 -10 -5 -10 6 0 17 5 25 10 8 5 11 10 5 10 -5
0 -17 -5 -25 -10z"/>
<path d="M4527 3519 c7 -7 15 -10 18 -7 3 3 -2 9 -12 12 -14 6 -15 5 -6 -5z"/>
<path d="M3775 3494 c-230 -35 -427 -202 -500 -424 -2 -6 -16 -76 -21 -102 -5
-33 -6 -133 -1 -148 3 -8 9 -31 12 -50 7 -41 8 -46 24 -83 6 -16 8 -33 5 -39
-4 -7 -2 -8 4 -4 7 4 12 3 12 -3 0 -5 3 -17 7 -27 5 -13 3 -15 -8 -9 -8 5 -11
5 -6 -1 5 -5 12 -9 17 -9 12 0 77 -98 74 -113 -1 -7 0 -8 3 -2 3 7 12 5 24 -6
10 -9 16 -22 12 -28 -3 -6 -2 -8 2 -3 11 9 45 -21 41 -36 -2 -7 -1 -8 2 -4 2
5 19 -6 38 -24 18 -18 31 -36 28 -41 -3 -5 -2 -7 3 -6 14 5 123 -104 116 -115
-3 -6 -2 -7 4 -4 12 7 69 -53 65 -68 -2 -5 0 -7 4 -2 10 10 45 -23 37 -36 -3
-5 -2 -7 4 -4 11 7 120 -102 115 -116 -1 -5 2 -6 7 -3 12 8 33 -18 23 -29 -4
-5 -2 -5 4 -2 14 8 37 -17 26 -28 -4 -5 -2 -5 4 -2 12 7 60 -42 56 -56 -1 -5
1 -6 6 -3 5 3 37 -24 71 -58 34 -35 58 -66 54 -68 -4 -3 -3 -4 3 -2 15 3 70
-57 66 -71 -2 -5 0 -7 4 -3 10 11 35 -12 27 -26 -3 -6 -3 -8 2 -4 11 10 37
-11 29 -23 -3 -5 -1 -8 4 -7 13 5 112 -94 105 -105 -3 -6 -1 -7 4 -4 13 8 46
-27 36 -37 -5 -4 -3 -6 2 -4 15 4 75 -53 68 -65 -3 -6 -2 -7 4 -4 11 7 120
-102 115 -116 -1 -5 2 -6 6 -3 12 7 44 -28 35 -39 -5 -4 -3 -5 3 -2 13 8 97
-76 87 -87 -5 -4 -3 -6 2 -4 15 4 75 -53 68 -65 -3 -6 -1 -7 4 -4 6 4 16 1 22
-7 7 -8 8 -16 4 -18 -4 -3 -3 -3 4 -2 13 3 35 -20 28 -29 -3 -4 -2 -5 1 -3 3
3 32 -13 64 -35 59 -40 166 -89 195 -89 10 0 13 -5 9 -12 -5 -10 -4 -10 5 -2
13 12 73 6 66 -7 -3 -4 9 -6 27 -4 76 9 94 9 108 1 8 -5 11 -5 7 -1 -4 5 21
15 55 22 88 18 215 83 278 143 29 27 56 48 60 45 5 -3 12 0 16 6 4 8 3 9 -4 5
-20 -12 -13 4 16 43 16 20 34 51 41 69 8 17 18 32 23 32 5 0 6 5 3 10 -3 6 -3
10 2 10 4 0 9 12 10 26 0 15 5 29 10 33 9 7 10 15 18 142 4 66 0 104 -15 165
-44 173 -7 131 -850 978 -812 816 -832 834 -973 882 -71 25 -203 38 -272 28z"/>
<path d="M3356 2473 c-6 -14 -5 -15 5 -6 7 7 10 15 7 18 -3 3 -9 -2 -12 -12z"/>
<path d="M3413 2416 c-3 -6 -3 -8 2 -4 4 4 13 3 20 -2 8 -7 12 -5 12 3 0 16
-25 18 -34 3z"/>
<path d="M3475 2369 c-4 -6 -5 -12 -2 -15 2 -3 7 2 10 11 7 17 1 20 -8 4z"/>
<path d="M3513 2305 c0 -8 4 -12 9 -9 5 3 6 10 3 15 -9 13 -12 11 -12 -6z"/>
<path d="M3650 2121 c0 -6 4 -13 10 -16 6 -3 7 1 4 9 -7 18 -14 21 -14 7z"/>
<path d="M3695 2120 c-3 -5 -1 -10 4 -10 6 0 11 5 11 10 0 6 -2 10 -4 10 -3 0
-8 -4 -11 -10z"/>
<path d="M3855 1960 c-3 -5 -1 -10 4 -10 6 0 11 5 11 10 0 6 -2 10 -4 10 -3 0
-8 -4 -11 -10z"/>
<path d="M3913 1927 c0 -8 6 -14 14 -14 9 0 10 4 2 14 -6 7 -12 13 -14 13 -1
0 -2 -6 -2 -13z"/>
<path d="M4135 1700 c3 -5 8 -10 11 -10 2 0 4 5 4 10 0 6 -5 10 -11 10 -5 0
-7 -4 -4 -10z"/>
<path d="M4180 1640 c-9 -6 -10 -10 -3 -10 6 0 15 5 18 10 8 12 4 12 -15 0z"/>
<path d="M4390 1419 c0 -5 5 -7 10 -4 6 3 10 8 10 11 0 2 -4 4 -10 4 -5 0 -10
-5 -10 -11z"/>
<path d="M915 1411 c-3 -5 -2 -12 3 -15 5 -3 9 1 9 9 0 17 -3 19 -12 6z"/>
<path d="M4387 1379 c7 -7 15 -10 18 -7 3 3 -2 9 -12 12 -14 6 -15 5 -6 -5z"/>
<path d="M2679 1153 c-13 -16 -12 -17 4 -4 9 7 17 15 17 17 0 8 -8 3 -21 -13z"/>
<path d="M1187 1119 c7 -7 15 -10 18 -7 3 3 -2 9 -12 12 -14 6 -15 5 -6 -5z"/>
<path d="M2670 1121 c0 -6 4 -13 10 -16 6 -3 7 1 4 9 -7 18 -14 21 -14 7z"/>
<path d="M2739 1113 c-13 -16 -12 -17 4 -4 9 7 17 15 17 17 0 8 -8 3 -21 -13z"/>
<path d="M4715 1109 c-4 -6 -5 -12 -2 -15 2 -3 7 2 10 11 7 17 1 20 -8 4z"/>
<path d="M1215 1060 c-3 -5 -1 -10 4 -10 6 0 11 5 11 10 0 6 -2 10 -4 10 -3 0
-8 -4 -11 -10z"/>
<path d="M4707 1059 c7 -7 15 -10 18 -7 3 3 -2 9 -12 12 -14 6 -15 5 -6 -5z"/>
<path d="M2545 1039 c-3 -4 2 -6 10 -5 21 3 28 13 10 13 -9 0 -18 -4 -20 -8z"/>
<path d="M2553 1005 c0 -8 4 -12 9 -9 5 3 6 10 3 15 -9 13 -12 11 -12 -6z"/>
<path d="M4796 1002 c-3 -5 1 -9 9 -9 8 0 12 4 9 9 -3 4 -7 8 -9 8 -2 0 -6 -4
-9 -8z"/>
<path d="M5714 1002 c4 -3 14 -7 22 -8 9 -1 13 0 10 4 -4 3 -14 7 -22 8 -9 1
-13 0 -10 -4z"/>
<path d="M1295 980 c-3 -5 -1 -10 4 -10 6 0 11 5 11 10 0 6 -2 10 -4 10 -3 0
-8 -4 -11 -10z"/>
<path d="M2434 960 c0 -13 4 -16 10 -10 7 7 7 13 0 20 -6 6 -10 3 -10 -10z"/>
<path d="M1394 954 c1 -8 4 -15 7 -16 2 -2 3 -1 2 1 -2 2 2 9 7 16 7 8 5 12
-4 12 -8 0 -13 -6 -12 -13z"/>
<path d="M5650 939 c0 -5 5 -7 10 -4 6 3 10 8 10 11 0 2 -4 4 -10 4 -5 0 -10
-5 -10 -11z"/>
<path d="M4955 921 c-3 -5 -2 -12 3 -15 5 -3 9 1 9 9 0 17 -3 19 -12 6z"/>
<path d="M2276 893 c-6 -14 -5 -15 5 -6 7 7 10 15 7 18 -3 3 -9 -2 -12 -12z"/>
<path d="M2315 880 c3 -5 8 -10 11 -10 2 0 4 5 4 10 0 6 -5 10 -11 10 -5 0 -7
-4 -4 -10z"/>
<path d="M5046 882 c-3 -5 1 -9 9 -9 8 0 12 4 9 9 -3 4 -7 8 -9 8 -2 0 -6 -4
-9 -8z"/>
<path d="M1640 860 c-9 -6 -10 -10 -3 -10 6 0 15 5 18 10 8 12 4 12 -15 0z"/>
<path d="M5555 859 c-3 -4 2 -6 10 -5 21 3 28 13 10 13 -9 0 -18 -4 -20 -8z"/>
<path d="M1430 846 c0 -2 7 -7 16 -10 8 -3 12 -2 9 4 -6 10 -25 14 -25 6z"/>
<path d="M1770 841 c0 -6 4 -12 8 -15 5 -3 9 1 9 9 0 8 -4 15 -9 15 -4 0 -8
-4 -8 -9z"/>
<path d="M5393 835 c0 -8 4 -12 9 -9 4 3 8 9 8 15 0 5 -4 9 -8 9 -5 0 -9 -7
-9 -15z"/>
<path d="M5055 820 c-3 -5 -1 -10 4 -10 6 0 11 5 11 10 0 6 -2 10 -4 10 -3 0
-8 -4 -11 -10z"/>
<path d="M5455 820 c-3 -5 -1 -10 4 -10 6 0 11 5 11 10 0 6 -2 10 -4 10 -3 0
-8 -4 -11 -10z"/>
<path d="M2113 805 c0 -8 4 -12 9 -9 5 3 6 10 3 15 -9 13 -12 11 -12 -6z"/>
<path d="M2159 818 c-5 -18 -6 -38 -1 -34 7 8 12 36 6 36 -2 0 -4 -1 -5 -2z"/>
<path d="M1836 798 c3 -5 10 -6 15 -3 13 9 11 12 -6 12 -8 0 -12 -4 -9 -9z"/>
<path d="M1990 796 c7 -7 13 -7 20 0 6 6 3 10 -10 10 -13 0 -16 -4 -10 -10z"/>
<path d="M1895 791 c-3 -5 -2 -12 3 -15 5 -3 9 1 9 9 0 17 -3 19 -12 6z"/>
<path d="M2053 775 c0 -8 4 -12 9 -9 5 3 6 10 3 15 -9 13 -12 11 -12 -6z"/>
</g>
</svg>
