<svg width="148" height="106" viewBox="0 0 148 106" fill="none" xmlns="http://www.w3.org/2000/svg">
<path d="M140.245 60.0596L140.58 59.6495C140.714 59.4854 140.848 59.3419 140.96 59.1779L141.318 58.6448L141.586 58.2142C141.698 58.0296 141.787 57.8451 141.877 57.6606C141.966 57.476 142.033 57.353 142.123 57.189L142.324 56.6559C142.324 56.4713 142.48 56.3073 142.525 56.1432C142.588 55.9544 142.64 55.7628 142.681 55.5691C142.737 55.4007 142.781 55.2296 142.816 55.0565C142.873 54.8264 142.918 54.5937 142.95 54.3594V53.9493C143.017 53.1919 143.017 52.4307 142.95 51.6733V51.2427C142.95 51.0172 142.95 50.7916 142.816 50.5661C142.782 50.3863 142.737 50.2083 142.681 50.033C142.64 49.8461 142.588 49.6613 142.525 49.4794C142.471 49.3043 142.404 49.133 142.324 48.9668L142.123 48.4131L141.877 47.9415C141.793 47.7579 141.696 47.5798 141.586 47.4084L141.318 46.9573C141.318 46.7933 141.094 46.6088 140.96 46.4447C140.846 46.2794 140.719 46.1218 140.58 45.9731L140.245 45.5425C139.977 45.2555 139.708 44.9684 139.418 44.7019L99.6937 8.26581C97.3404 6.15563 94.1745 4.98215 90.8835 5.00021C87.5926 5.01826 84.4422 6.22638 82.1166 8.36223C79.7909 10.4981 78.4777 13.3892 78.4622 16.4078C78.4467 19.4264 79.7301 22.3288 82.0337 24.4847L100.431 41.3392H17.4962C14.182 41.3392 11.0036 42.5468 8.6601 44.6963C6.31661 46.8458 5 49.7612 5 52.8011C5 55.8409 6.31661 58.7563 8.6601 60.9058C11.0036 63.0553 14.182 64.2629 17.4962 64.2629H100.431L82.0337 81.1379C80.8024 82.1864 79.8142 83.4518 79.1282 84.8586C78.4423 86.2653 78.0727 87.7845 78.0415 89.3252C78.0103 90.866 78.3181 92.3967 78.9466 93.8259C79.5751 95.255 80.5114 96.5532 81.6994 97.6429C82.8874 98.7326 84.3028 99.5913 85.8609 100.168C87.419 100.744 89.0878 101.027 90.7676 100.998C92.4474 100.969 94.1037 100.63 95.6373 100.001C97.171 99.3721 98.5507 98.4657 99.6937 97.3363L139.418 60.9002C139.71 60.6345 139.987 60.3539 140.245 60.0596Z" fill="#CE67FF" stroke="#26103D" stroke-width="10"/>
</svg>
