<svg width="77" height="65" viewBox="0 0 77 65" fill="none" xmlns="http://www.w3.org/2000/svg">
<path d="M7.45161 14.9032C11.5655 14.9032 14.9032 11.5655 14.9032 7.45161C14.9032 3.3377 11.5655 0 7.45161 0C3.3377 0 0 3.3377 0 7.45161C0 11.5655 3.3377 14.9032 7.45161 14.9032ZM27.3226 2.48387C24.5748 2.48387 22.3548 4.70383 22.3548 7.45161C22.3548 10.1994 24.5748 12.4194 27.3226 12.4194H72.0323C74.78 12.4194 77 10.1994 77 7.45161C77 4.70383 74.78 2.48387 72.0323 2.48387H27.3226ZM27.3226 27.3226C24.5748 27.3226 22.3548 29.5425 22.3548 32.2903C22.3548 35.0381 24.5748 37.2581 27.3226 37.2581H72.0323C74.78 37.2581 77 35.0381 77 32.2903C77 29.5425 74.78 27.3226 72.0323 27.3226H27.3226ZM27.3226 52.1613C24.5748 52.1613 22.3548 54.3813 22.3548 57.129C22.3548 59.8768 24.5748 62.0968 27.3226 62.0968H72.0323C74.78 62.0968 77 59.8768 77 57.129C77 54.3813 74.78 52.1613 72.0323 52.1613H27.3226ZM7.45161 64.5806C11.5655 64.5806 14.9032 61.2429 14.9032 57.129C14.9032 53.0151 11.5655 49.6774 7.45161 49.6774C3.3377 49.6774 0 53.0151 0 57.129C0 61.2429 3.3377 64.5806 7.45161 64.5806ZM14.9032 32.2903C14.9032 28.1764 11.5655 24.8387 7.45161 24.8387C3.3377 24.8387 0 28.1764 0 32.2903C0 36.4042 3.3377 39.7419 7.45161 39.7419C11.5655 39.7419 14.9032 36.4042 14.9032 32.2903Z" fill="white"/>
</svg>
