<svg width="77" height="75" viewBox="0 0 77 75" fill="none" xmlns="http://www.w3.org/2000/svg">
<path d="M42.6891 2.63642C41.9162 1.02528 40.2831 0 38.4895 0C36.696 0 35.0774 1.02528 34.29 2.63642L24.9139 22.0141L3.97447 25.1193C2.22466 25.3829 0.766483 26.6132 0.226957 28.2976C-0.312568 29.982 0.124884 31.8421 1.37892 33.0871L16.5731 48.188L12.986 69.5283C12.6944 71.286 13.4235 73.0729 14.8671 74.1128C16.3107 75.1527 18.2209 75.2845 19.7957 74.4497L38.5041 64.4166L57.2125 74.4497C58.7874 75.2845 60.6976 75.1674 62.1412 74.1128C63.5848 73.0582 64.3138 71.286 64.0222 69.5283L60.4205 48.188L75.6147 33.0871C76.8687 31.8421 77.3208 29.982 76.7667 28.2976C76.2126 26.6132 74.769 25.3829 73.0192 25.1193L52.0652 22.0141L42.6891 2.63642Z" fill="white"/>
</svg>
