<svg width="512" height="512" viewBox="0 0 512 512" fill="none" xmlns="http://www.w3.org/2000/svg">
<g clip-path="url(#clip0_1094_308)">
<rect width="512" height="512" fill="white"/>
<path d="M69 86.5403C69 91.0862 69.0151 101.79 76.4442 100.889C80.3423 100.417 83.3911 97.2731 85.7225 94.416C93.0971 85.3786 99.6479 75.3896 106.221 65.772C111.746 57.6878 119.554 39.4561 131.089 38.0989C139.566 37.1017 140.834 43.7938 142.147 51.3691C147.517 82.3445 113.773 100.909 113.773 130.288C113.773 139.232 124.564 138.745 130.496 135.467C143.318 128.381 151.632 116.885 153.26 102.4C153.756 97.9836 148.644 98.64 147.865 101.752C145.736 110.27 165.874 115.337 171.547 116.857C173.443 117.364 178.262 116.754 176.617 119.823C171.632 129.129 163.95 136.87 158.654 146.04C155.745 151.077 152.944 157.415 152.343 163.302C151.658 170.016 165.461 169.875 169.443 169.29C181.902 167.459 192.873 155.95 201.809 148.036C208.152 142.418 213.794 136.55 217.453 128.832C218.446 126.736 222.192 108.653 218.424 112.217C210.75 119.477 206.135 130.867 202.241 140.376C196.758 153.763 192.101 167.965 189.834 182.29C189.028 187.377 187.33 196.078 192.962 199.282C199.699 203.115 207.577 200.931 214.648 200.145" stroke="black" stroke-width="3" stroke-linecap="round"/>
<path d="M192.315 118.583C199.876 126.926 210.034 133.267 218.909 140.106C221.215 141.883 226.224 144.575 227.27 147.713" stroke="black" stroke-width="3" stroke-linecap="round"/>
<path d="M134.056 77.8018C118.665 76.1088 106.48 67.8493 95.2166 57.6269C90.5158 53.3605 85.1294 49.0773 81.6228 43.8174" stroke="black" stroke-width="3" stroke-linecap="round"/>
<path d="M243.777 213.739C243.308 215.256 238.66 231.309 241.673 231.487C249.032 231.92 256.915 223.412 262.819 220.159C265.509 218.676 276.22 213.697 277.546 219.997C278.266 223.417 273.865 227.768 272.151 230.138C267.971 235.919 264.063 241.94 259.744 247.616C256.279 252.171 266.939 238.535 271.558 235.155C276.876 231.264 285.627 228.693 292.272 230.354C299.001 232.036 293.885 244.626 291.14 247.508C288.065 250.737 284.559 252.52 284.559 257.434C284.559 264 293.458 264.23 298.152 264.23C307.829 264.23 313.936 258.891 321.78 254.035C323.272 253.111 325.642 248.368 323.937 246.753C318.311 241.423 308.07 257.482 306.352 260.886C294.096 285.165 344.781 293.115 350.963 271.135C351.249 270.118 352.635 264.011 350.909 263.475C341.975 260.702 336.395 270.999 334.294 277.932C328.883 295.791 346.83 293.36 359.001 293.36C367.078 293.36 375.056 292.389 383.113 292.389C385.707 292.389 384.57 299.127 384.57 300.912C384.57 301.306 385.508 291.675 383.383 289.692C376.985 283.72 366.385 293.053 362.885 297.352C358.933 302.204 355.304 307.661 352.204 313.103C350.329 316.395 349.754 318.231 354.793 317.095C369.975 313.674 383.808 299.308 391.367 286.239C393.802 282.029 397.942 276.271 397.193 271.027C396.886 268.884 394.785 274.633 393.74 276.53C387.877 287.169 381.551 297.735 377.072 309.058C375.138 313.946 370.89 322.425 372.379 327.884C373.917 333.524 384.324 332.493 388.292 331.876C399.873 330.074 406.666 320.883 408.629 309.759C409.44 305.164 408.844 316.207 408.844 316.286C408.844 321.411 408.844 326.535 408.844 331.66C408.844 342.889 408.991 353.178 397.193 358.524C391.893 360.925 387.684 360.394 385.325 354.856C384.557 353.053 382.635 345.368 382.79 346.117C385.255 358.03 387.375 364.627 400.969 365.321C416.397 366.109 434.406 361.623 443.8 348.706" stroke="black" stroke-width="3" stroke-linecap="round"/>
<path d="M85.5068 292.389C87.4925 296.609 96.7978 294.537 99.9637 293.738C117.813 289.235 134.818 274.057 147.272 261.21C152.056 256.276 165.361 243.059 158.546 243.948C149.003 245.193 138.4 258.229 132.33 264.662C130.312 266.801 106.834 296.083 117.981 297.676C133.08 299.833 155.058 297.131 163.293 282.356C166.288 276.982 154.761 283.59 154.662 283.65C145.78 289.062 137.877 297.617 134.434 307.601C131.99 314.687 138.9 314.664 144.197 314.722C154.1 314.831 161.047 313.327 167.177 305.012C169.597 301.73 174.214 293.709 170.198 289.854C166.52 286.323 159.623 289.464 160.758 294.763C162.759 304.102 185.648 317.861 182.605 301.128" stroke="black" stroke-width="3" stroke-linecap="round"/>
<path d="M152.505 271.999C149.485 265.529 140.991 262.237 135.405 258.513C131.953 256.212 129.912 252.761 127.259 249.666" stroke="black" stroke-width="3" stroke-linecap="round"/>
<path d="M241.835 305.012C220.337 314.051 205.385 333.588 188.539 349.03C188.307 349.242 187.196 350.01 186.921 349.245C186.269 347.435 189.857 343.182 190.427 342.395C197.341 332.84 206.129 324.283 218.316 322.759C225.668 321.84 232.667 323.142 236.225 330.257C240.779 339.365 230.825 347.52 224.304 352.32C213.354 360.379 199.309 364.826 186.489 358.416C182.251 356.297 165.417 345.885 172.787 339.59C179.022 334.264 190.749 334.013 197.494 338.349C204.898 343.108 207.65 351.183 207.851 359.495C207.98 364.823 206.599 371.674 212.274 374.707C224.858 381.432 241.254 374.483 253.055 369.528C262.251 365.667 272.042 362.321 273.446 351.403C274.915 339.979 269.214 341.634 263.305 350.001C258.443 356.884 240.254 380.432 252.948 387.977C258.855 391.488 269.224 389.487 275.82 389.487" stroke="black" stroke-width="3" stroke-linecap="round"/>
<path d="M104.927 410.849C100.805 429.552 136.198 410.519 141.392 406.533C148.824 400.832 155.713 393.512 159.733 384.956C165.845 371.948 148.514 389.032 147.164 390.404C139.466 398.232 134.386 406.508 129.363 416.135C128.947 416.933 124.909 426.197 122.404 425.414C119.426 424.483 124.472 419.367 126.504 416.999C131.895 410.715 138.716 405.582 146.517 402.757C160.635 397.646 155.842 413.375 152.721 420.882C150.828 425.434 149.12 430.626 146.247 434.692C145.14 436.259 141.296 438.715 142.148 441.057C143.805 445.615 153.074 445.365 156.443 445.265C169.717 444.872 181.648 439.177 192.207 431.455C195.672 428.921 202.857 424.069 203.32 419.048C203.764 414.229 193.649 412.007 190.427 412.575C177.238 414.903 171.444 442.034 180.232 450.821C190.444 461.034 215.386 451.396 219.071 438.9C220.376 434.475 221.68 426.027 219.611 421.638C218.259 418.77 214.419 425.748 215.187 427.733C217.267 433.106 232.969 431.433 232.665 435.879C232.253 441.898 219.167 456.545 228.134 459.182C247.127 464.769 264.914 448.656 268.376 430.808C268.892 428.145 269.403 421.735 264.815 425.414C256.702 431.92 250.55 443.619 247.284 453.303C243.295 465.126 260.202 469.345 268.052 473.963" stroke="black" stroke-width="3" stroke-linecap="round"/>
<rect x="5.5" y="5.5" width="501" height="501" stroke="black" stroke-width="11"/>
</g>
<defs>
<clipPath id="clip0_1094_308">
<rect width="512" height="512" fill="white"/>
</clipPath>
</defs>
</svg>
