<svg width="300" height="300" viewBox="0 0 300 300" fill="none" xmlns="http://www.w3.org/2000/svg">
<path d="M145.568 87.6772C183.137 41.2575 250.283 107.316 197.292 143.24C208.105 160.38 227.968 200.905 205.307 215.382C182.852 228.84 156.821 240.573 130.146 238.132C109.958 235.795 109.146 213.016 105.623 197.243C103.557 187.466 102.455 177.491 100.206 167.765C52.1972 177.811 45.8894 123.392 86.6381 108.248C87.1654 108.084 87.7578 107.489 87.9435 106.962C95.1412 83.0187 125.359 74.1261 145.568 87.6772ZM100.606 106.411C106.686 106.349 126.889 112.008 120.774 120.789C119.303 122.59 116.876 123.139 114.613 122.148C98.9302 112.328 77.9773 119.922 72.6088 137.606C65.3946 163.094 106.553 160.931 114.161 143.101C117.462 136.511 127.379 139.587 125.715 146.913C123.253 153.869 117.543 159.07 111.386 162.87C109.286 164.143 111.219 167.483 111.367 169.444C114.55 182.374 116.981 195.47 119.612 208.521C119.888 209.921 120.394 210.464 121.923 210.474C149.036 210.81 176.391 203.392 197.828 186.249C202.203 182.681 202.282 182.751 200.646 177.351C198.835 171.369 196.888 165.324 192.697 160.612C189.87 157.433 188.095 153.79 186.065 150.215C185.574 148.965 185.041 148.427 183.584 148.853C177.095 150.456 170.497 150.484 163.908 149.69C156.042 148.758 156.778 137.575 164.823 137.671C188.866 142.051 214.329 121.168 200.971 97.3128C191.854 83.0665 168.847 77.8719 155.432 93.2102C151.803 95.9379 162.351 102.27 160.756 116.647C160.496 120.034 157.809 122.503 154.701 122.483C151.016 122.534 148.317 118.835 148.602 115.076C147.617 91.2802 110.976 85.7358 100.606 106.411ZM202.927 190.997C178.781 208.839 151.778 217.113 121.918 217.003C128.922 239.634 173.544 218.242 187.829 211.944C196.16 207.899 204.479 201.485 202.927 190.997Z" fill="black"/>
<path d="M51.7227 221.609C45.0787 221.621 43.7364 214.577 48.0244 211.017C56.3451 204.451 63.5518 196.04 73.0629 191.205C77.7777 188.997 82.11 194.636 79.1841 198.779C72.5253 206.492 63.8141 212.312 56.3536 219.259C54.7856 220.612 53.1273 221.666 51.7227 221.609Z" fill="black"/>
<path d="M260.411 141.266C260.305 143.052 259.082 144.74 257.1 145.843C248.698 150.522 240.293 155.199 231.841 159.787C228.266 161.727 225.356 161.243 223.786 158.727C220.789 154.299 227.424 149.809 231.238 147.732C237.654 143.884 244.068 140.031 250.557 136.308C254.748 133.575 260.674 135.192 260.411 141.266Z" fill="black"/>
<path d="M118.896 64.8009C118.92 67.6216 117.66 69.5436 115.615 70.2755C113.559 71.0115 111.254 70.4103 109.82 68.6547C105.372 61.1822 102.139 52.9705 98.1899 45.209C94.4025 37.9129 104.678 32.4887 108.277 39.9796C111.798 48.1675 116.187 56.3619 118.896 64.8009Z" fill="black"/>
<path d="M251.01 226.298C250.983 231.896 244.349 233.164 240.431 229.987C237.191 228.203 233.952 226.417 230.735 224.592C227.923 223.259 225.48 220.529 226.853 217.273C227.589 215.296 229.513 213.984 231.724 214.097C237.643 214.968 242.705 218.945 248.117 221.345C250.076 222.378 251.017 224.251 251.01 226.298Z" fill="black"/>
<path d="M215.847 75.6625C204.101 74.1957 214.457 62.2152 217.377 56.9266C221.587 50.6881 230.895 56.892 226.796 63.231C224.214 66.5379 220.111 75.6281 215.847 75.6625Z" fill="black"/>
<path d="M110.746 263.459C106.087 263.41 103.28 259.114 105.197 255.267C106.551 252.55 108.404 250.036 110.316 247.657C111.85 245.748 114.334 245.448 116.305 246.433C118.327 247.444 119.661 249.749 118.903 252.125C117.923 255.196 116.565 258.181 115.051 261.033C114.129 262.772 112.248 263.458 110.746 263.459Z" fill="black"/>
<path d="M50.7135 117.317C48.1795 117.01 44.9896 115.669 42.0319 113.924C39.6503 112.518 38.9562 109.502 40.0169 107.117C43.151 100.347 50.6752 105.585 55.1079 108.04C60.008 111.479 57.3482 118.075 50.7135 117.317Z" fill="black"/>
<path d="M100.605 106.41C110.977 85.7402 147.616 91.2732 148.601 115.075C148.313 118.84 151.018 122.527 154.7 122.482C157.809 122.501 160.496 120.033 160.756 116.646C162.346 102.153 151.816 96.0885 155.43 93.2091C168.845 77.8706 191.853 83.0651 200.971 97.3125C214.293 121.209 188.91 142.023 164.821 137.669C156.759 137.575 156.06 148.762 163.908 149.689C170.496 150.483 177.094 150.455 183.583 148.851C185.01 148.42 185.605 148.971 186.063 150.213C188.094 153.789 189.869 157.432 192.696 160.611C196.887 165.323 198.833 171.368 200.645 177.35C202.281 182.75 202.201 182.679 197.826 186.247C176.393 203.392 149.031 210.808 121.922 210.473C120.392 210.463 119.886 209.919 119.61 208.52C116.859 193.717 113.448 179.035 110.379 164.311C110.328 163.865 110.91 163.152 111.385 162.868C117.539 159.072 123.253 153.866 125.714 146.912C127.388 139.58 117.443 136.518 114.161 143.101C106.558 160.93 65.3856 163.092 72.606 137.603C77.9816 119.925 98.9214 112.322 114.613 122.147C116.875 123.138 119.302 122.589 120.773 120.787C126.883 112.038 106.758 106.354 100.605 106.41Z" fill="white"/>
<path d="M202.927 190.997C204.472 201.488 196.167 207.896 187.829 211.943C173.551 218.227 128.961 239.646 121.918 217.003C151.779 217.113 178.781 208.839 202.927 190.997Z" fill="white"/>
<ellipse cx="224" cy="74.5" rx="42" ry="41.5" fill="#E44343"/>
<path d="M231.395 53.3636V97H220.869V63.2074H220.614L210.855 69.1733V60.054L221.615 53.3636H231.395Z" fill="white"/>
</svg>
