<svg width="300" height="300" viewBox="0 0 300 300" fill="none" xmlns="http://www.w3.org/2000/svg">
<rect x="71" y="36" width="147" height="228.2" fill="#02142B"/>
<line x1="71.25" y1="59.6221" x2="127.288" y2="59.6221" stroke="#1649E3" stroke-opacity="0.05" stroke-width="0.5" stroke-linecap="round" stroke-dasharray="2 2"/>
<line x1="71.25" y1="87.2627" x2="127.288" y2="87.2627" stroke="#2736AE" stroke-opacity="0.5" stroke-width="0.5" stroke-linecap="round" stroke-dasharray="2 2"/>
<line x1="71.25" y1="177.725" x2="127.288" y2="177.725" stroke="#1649E3" stroke-opacity="0.05" stroke-width="0.5" stroke-linecap="round" stroke-dasharray="2 2"/>
<line x1="71.25" y1="205.365" x2="127.288" y2="205.365" stroke="#2736AE" stroke-opacity="0.5" stroke-width="0.5" stroke-linecap="round" stroke-dasharray="2 2"/>
<line x1="71.25" y1="206.622" x2="128.545" y2="206.622" stroke="#1649E3" stroke-opacity="0.05" stroke-width="0.5" stroke-linecap="round" stroke-dasharray="2 2"/>
<line x1="71.25" y1="234.263" x2="128.545" y2="234.263" stroke="#2736AE" stroke-opacity="0.5" stroke-width="0.5" stroke-linecap="round" stroke-dasharray="2 2"/>
<line x1="71.25" y1="197.827" x2="128.545" y2="197.827" stroke="#1649E3" stroke-opacity="0.05" stroke-width="0.5" stroke-linecap="round" stroke-dasharray="2 2"/>
<line x1="71.25" y1="225.468" x2="128.545" y2="225.468" stroke="#2736AE" stroke-opacity="0.5" stroke-width="0.5" stroke-linecap="round" stroke-dasharray="2 2"/>
<line x1="71.25" y1="124.955" x2="127.288" y2="124.955" stroke="#1649E3" stroke-opacity="0.05" stroke-width="0.5" stroke-linecap="round" stroke-dasharray="2 2"/>
<line x1="71.25" y1="152.596" x2="127.288" y2="152.596" stroke="#2736AE" stroke-opacity="0.5" stroke-width="0.5" stroke-linecap="round" stroke-dasharray="2 2"/>
<line x1="71.25" y1="153.853" x2="126.032" y2="153.853" stroke="#1649E3" stroke-opacity="0.05" stroke-width="0.5" stroke-linecap="round" stroke-dasharray="2 2"/>
<line x1="71.25" y1="181.493" x2="126.032" y2="181.493" stroke="#2736AE" stroke-opacity="0.5" stroke-width="0.5" stroke-linecap="round" stroke-dasharray="2 2"/>
<line x1="71.25" y1="78.4678" x2="103.417" y2="78.4678" stroke="#1649E3" stroke-opacity="0.05" stroke-width="0.5" stroke-linecap="round" stroke-dasharray="2 2"/>
<line x1="71.25" y1="106.109" x2="103.417" y2="106.109" stroke="#2736AE" stroke-opacity="0.5" stroke-width="0.5" stroke-linecap="round" stroke-dasharray="2 2"/>
<line x1="98.8911" y1="91.0322" x2="131.058" y2="91.0322" stroke="#1649E3" stroke-opacity="0.05" stroke-width="0.5" stroke-linecap="round" stroke-dasharray="2 2"/>
<line x1="98.8911" y1="118.673" x2="131.058" y2="118.673" stroke="#2736AE" stroke-opacity="0.5" stroke-width="0.5" stroke-linecap="round" stroke-dasharray="2 2"/>
<line x1="71.25" y1="108.622" x2="103.417" y2="108.622" stroke="#1649E3" stroke-opacity="0.05" stroke-width="0.5" stroke-linecap="round" stroke-dasharray="2 2"/>
<line x1="71.25" y1="136.263" x2="103.417" y2="136.263" stroke="#2736AE" stroke-opacity="0.5" stroke-width="0.5" stroke-linecap="round" stroke-dasharray="2 2"/>
<line x1="71.25" y1="146.314" x2="103.417" y2="146.314" stroke="#1649E3" stroke-opacity="0.05" stroke-width="0.5" stroke-linecap="round" stroke-dasharray="2 2"/>
<line x1="71.25" y1="173.955" x2="103.417" y2="173.955" stroke="#2736AE" stroke-opacity="0.5" stroke-width="0.5" stroke-linecap="round" stroke-dasharray="2 2"/>
<line x1="71.25" y1="184.007" x2="103.417" y2="184.007" stroke="#1649E3" stroke-opacity="0.05" stroke-width="0.5" stroke-linecap="round" stroke-dasharray="2 2"/>
<line x1="71.25" y1="211.647" x2="103.417" y2="211.647" stroke="#2736AE" stroke-opacity="0.5" stroke-width="0.5" stroke-linecap="round" stroke-dasharray="2 2"/>
<line x1="71.25" y1="236.775" x2="103.417" y2="236.775" stroke="#1649E3" stroke-opacity="0.05" stroke-width="0.5" stroke-linecap="round" stroke-dasharray="2 2"/>
<line x1="71.25" y1="264.417" x2="103.417" y2="264.417" stroke="#2736AE" stroke-opacity="0.5" stroke-width="0.5" stroke-linecap="round" stroke-dasharray="2 2"/>
<line x1="71.25" y1="59.6221" x2="103.417" y2="59.6221" stroke="#2736AE" stroke-opacity="0.5" stroke-width="0.5" stroke-linecap="round" stroke-dasharray="2 2"/>
<line x1="71.25" y1="221.699" x2="103.417" y2="221.699" stroke="#1649E3" stroke-opacity="0.05" stroke-width="0.5" stroke-linecap="round" stroke-dasharray="2 2"/>
<line x1="71.25" y1="249.34" x2="103.417" y2="249.34" stroke="#2736AE" stroke-opacity="0.5" stroke-width="0.5" stroke-linecap="round" stroke-dasharray="2 2"/>
<line x1="71.25" y1="44.5449" x2="103.417" y2="44.5449" stroke="#2736AE" stroke-opacity="0.5" stroke-width="0.5" stroke-linecap="round" stroke-dasharray="2 2"/>
<line x1="134.07" y1="153.853" x2="166.237" y2="153.853" stroke="#1649E3" stroke-opacity="0.05" stroke-width="0.5" stroke-linecap="round" stroke-dasharray="2 2"/>
<line x1="134.07" y1="181.493" x2="166.237" y2="181.493" stroke="#2736AE" stroke-opacity="0.5" stroke-width="0.5" stroke-linecap="round" stroke-dasharray="2 2"/>
<line x1="127.789" y1="172.699" x2="159.955" y2="172.699" stroke="#1649E3" stroke-opacity="0.05" stroke-width="0.5" stroke-linecap="round" stroke-dasharray="2 2"/>
<line x1="127.789" y1="200.34" x2="159.955" y2="200.34" stroke="#2736AE" stroke-opacity="0.5" stroke-width="0.5" stroke-linecap="round" stroke-dasharray="2 2"/>
<line x1="150.404" y1="212.904" x2="182.57" y2="212.904" stroke="#1649E3" stroke-opacity="0.05" stroke-width="0.5" stroke-linecap="round" stroke-dasharray="2 2"/>
<line x1="150.404" y1="240.545" x2="182.57" y2="240.545" stroke="#2736AE" stroke-opacity="0.5" stroke-width="0.5" stroke-linecap="round" stroke-dasharray="2 2"/>
<line x1="127.892" y1="59.8721" x2="155.18" y2="87.1595" stroke="#1649E3" stroke-opacity="0.05" stroke-width="0.5" stroke-linecap="round" stroke-dasharray="2 2"/>
<line x1="127.892" y1="87.5127" x2="155.18" y2="114.8" stroke="#2736AE" stroke-opacity="0.5" stroke-width="0.5" stroke-linecap="round" stroke-dasharray="2 2"/>
<line x1="127.892" y1="177.975" x2="141.359" y2="191.442" stroke="#1649E3" stroke-opacity="0.05" stroke-width="0.5" stroke-linecap="round" stroke-dasharray="2 2"/>
<line x1="127.892" y1="205.615" x2="141.359" y2="219.082" stroke="#2736AE" stroke-opacity="0.5" stroke-width="0.5" stroke-linecap="round" stroke-dasharray="2 2"/>
<line x1="116.585" y1="161.641" x2="127.539" y2="172.595" stroke="#1649E3" stroke-opacity="0.05" stroke-width="0.5" stroke-linecap="round" stroke-dasharray="2 2"/>
<line x1="116.585" y1="189.282" x2="127.539" y2="200.236" stroke="#2736AE" stroke-opacity="0.5" stroke-width="0.5" stroke-linecap="round" stroke-dasharray="2 2"/>
<line x1="129.148" y1="206.872" x2="156.436" y2="234.16" stroke="#1649E3" stroke-opacity="0.05" stroke-width="0.5" stroke-linecap="round" stroke-dasharray="2 2"/>
<line x1="129.148" y1="234.513" x2="156.436" y2="261.8" stroke="#2736AE" stroke-opacity="0.5" stroke-width="0.5" stroke-linecap="round" stroke-dasharray="2 2"/>
<line x1="136.687" y1="37.2568" x2="156.436" y2="57.0058" stroke="#2736AE" stroke-opacity="0.5" stroke-width="0.5" stroke-linecap="round" stroke-dasharray="2 2"/>
<line x1="104.02" y1="237.025" x2="114.974" y2="247.98" stroke="#1649E3" stroke-opacity="0.05" stroke-width="0.5" stroke-linecap="round" stroke-dasharray="2 2"/>
<line x1="104.02" y1="59.8721" x2="114.974" y2="70.8262" stroke="#2736AE" stroke-opacity="0.5" stroke-width="0.5" stroke-linecap="round" stroke-dasharray="2 2"/>
<line x1="129.148" y1="198.077" x2="156.436" y2="225.365" stroke="#1649E3" stroke-opacity="0.05" stroke-width="0.5" stroke-linecap="round" stroke-dasharray="2 2"/>
<line x1="129.148" y1="225.718" x2="156.436" y2="253.005" stroke="#2736AE" stroke-opacity="0.5" stroke-width="0.5" stroke-linecap="round" stroke-dasharray="2 2"/>
<line x1="145.482" y1="37.2568" x2="156.436" y2="48.211" stroke="#2736AE" stroke-opacity="0.5" stroke-width="0.5" stroke-linecap="round" stroke-dasharray="2 2"/>
<line x1="127.539" y1="124.852" x2="154.826" y2="97.5641" stroke="#1649E3" stroke-opacity="0.05" stroke-width="0.5" stroke-linecap="round" stroke-dasharray="2 2"/>
<line x1="127.539" y1="152.492" x2="154.826" y2="125.205" stroke="#2736AE" stroke-opacity="0.5" stroke-width="0.5" stroke-linecap="round" stroke-dasharray="2 2"/>
<line x1="126.282" y1="153.749" x2="153.57" y2="126.462" stroke="#1649E3" stroke-opacity="0.05" stroke-width="0.5" stroke-linecap="round" stroke-dasharray="2 2"/>
<line x1="126.282" y1="181.39" x2="153.57" y2="154.102" stroke="#2736AE" stroke-opacity="0.5" stroke-width="0.5" stroke-linecap="round" stroke-dasharray="2 2"/>
<line x1="155.43" y1="87.2627" x2="191.366" y2="87.2627" stroke="#1649E3" stroke-opacity="0.05" stroke-width="0.5" stroke-linecap="round" stroke-dasharray="2 2"/>
<line x1="155.43" y1="114.904" x2="191.366" y2="114.904" stroke="#2736AE" stroke-opacity="0.5" stroke-width="0.5" stroke-linecap="round" stroke-dasharray="2 2"/>
<line x1="141.609" y1="191.545" x2="177.545" y2="191.545" stroke="#1649E3" stroke-opacity="0.05" stroke-width="0.5" stroke-linecap="round" stroke-dasharray="2 2"/>
<line x1="141.609" y1="219.186" x2="177.545" y2="219.186" stroke="#2736AE" stroke-opacity="0.5" stroke-width="0.5" stroke-linecap="round" stroke-dasharray="2 2"/>
<line x1="156.686" y1="234.263" x2="175.032" y2="234.263" stroke="#1649E3" stroke-opacity="0.05" stroke-width="0.5" stroke-linecap="round" stroke-dasharray="2 2"/>
<line x1="156.686" y1="261.904" x2="175.032" y2="261.904" stroke="#2736AE" stroke-opacity="0.5" stroke-width="0.5" stroke-linecap="round" stroke-dasharray="2 2"/>
<line x1="156.686" y1="57.1094" x2="175.032" y2="57.1094" stroke="#2736AE" stroke-opacity="0.5" stroke-width="0.5" stroke-linecap="round" stroke-dasharray="2 2"/>
<line x1="156.686" y1="225.468" x2="192.622" y2="225.468" stroke="#1649E3" stroke-opacity="0.05" stroke-width="0.5" stroke-linecap="round" stroke-dasharray="2 2"/>
<line x1="156.686" y1="253.109" x2="192.622" y2="253.109" stroke="#2736AE" stroke-opacity="0.5" stroke-width="0.5" stroke-linecap="round" stroke-dasharray="2 2"/>
<line x1="156.686" y1="48.3145" x2="192.622" y2="48.3145" stroke="#2736AE" stroke-opacity="0.5" stroke-width="0.5" stroke-linecap="round" stroke-dasharray="2 2"/>
<line x1="154.173" y1="97.3145" x2="190.109" y2="97.3145" stroke="#1649E3" stroke-opacity="0.05" stroke-width="0.5" stroke-linecap="round" stroke-dasharray="2 2"/>
<line x1="154.173" y1="124.955" x2="190.109" y2="124.955" stroke="#2736AE" stroke-opacity="0.5" stroke-width="0.5" stroke-linecap="round" stroke-dasharray="2 2"/>
<line x1="152.917" y1="153.853" x2="161.211" y2="153.853" stroke="#2736AE" stroke-opacity="0.5" stroke-width="0.5" stroke-linecap="round" stroke-dasharray="2 2"/>
<line x1="152.917" y1="126.212" x2="161.211" y2="126.212" stroke="#1649E3" stroke-opacity="0.05" stroke-width="0.5" stroke-linecap="round" stroke-dasharray="2 2"/>
<circle cx="192.244" cy="86.8842" r="3.14103" fill="#2736AE" fill-opacity="0.05"/>
<circle cx="192.244" cy="114.526" r="3.14103" fill="#1649E3" fill-opacity="0.5"/>
<circle cx="192.244" cy="114.526" r="2.89103" stroke="#2736AE" stroke-opacity="0.5" stroke-width="0.5" stroke-linecap="round" stroke-dasharray="2 2"/>
<circle cx="178.423" cy="191.166" r="3.14103" fill="#2736AE" fill-opacity="0.05"/>
<circle cx="178.423" cy="218.808" r="3.14103" fill="#1649E3" fill-opacity="0.5"/>
<circle cx="178.423" cy="218.808" r="2.89103" stroke="#2736AE" stroke-opacity="0.5" stroke-width="0.5" stroke-linecap="round" stroke-dasharray="2 2"/>
<circle cx="177.167" cy="233.884" r="3.14103" fill="#2736AE" fill-opacity="0.05"/>
<circle cx="177.167" cy="261.526" r="3.14103" fill="#1649E3" fill-opacity="0.5"/>
<circle cx="177.167" cy="261.526" r="2.89103" stroke="#2736AE" stroke-opacity="0.5" stroke-width="0.5" stroke-linecap="round" stroke-dasharray="2 2"/>
<circle cx="177.167" cy="56.7309" r="3.14103" fill="#1649E3" fill-opacity="0.5"/>
<circle cx="177.167" cy="56.7309" r="2.89103" stroke="#2736AE" stroke-opacity="0.5" stroke-width="0.5" stroke-linecap="round" stroke-dasharray="2 2"/>
<circle cx="193.5" cy="225.09" r="3.14103" fill="#2736AE" fill-opacity="0.05"/>
<circle cx="193.5" cy="252.731" r="3.14103" fill="#1649E3" fill-opacity="0.5"/>
<circle cx="193.5" cy="252.731" r="2.89103" stroke="#2736AE" stroke-opacity="0.5" stroke-width="0.5" stroke-linecap="round" stroke-dasharray="2 2"/>
<circle cx="193.5" cy="47.9359" r="3.14103" fill="#1649E3" fill-opacity="0.5"/>
<circle cx="193.5" cy="47.9359" r="2.89103" stroke="#2736AE" stroke-opacity="0.5" stroke-width="0.5" stroke-linecap="round" stroke-dasharray="2 2"/>
<circle cx="192.244" cy="96.9359" r="3.14103" fill="#2736AE" fill-opacity="0.05"/>
<circle cx="192.244" cy="124.577" r="3.14103" fill="#1649E3" fill-opacity="0.5"/>
<circle cx="192.244" cy="124.577" r="2.89103" stroke="#2736AE" stroke-opacity="0.5" stroke-width="0.5" stroke-linecap="round" stroke-dasharray="2 2"/>
<circle cx="163.346" cy="125.833" r="3.14103" fill="#2736AE" fill-opacity="0.05"/>
<circle cx="163.346" cy="153.474" r="3.14103" fill="#1649E3" fill-opacity="0.5"/>
<circle cx="163.346" cy="153.474" r="2.89103" stroke="#2736AE" stroke-opacity="0.5" stroke-width="0.5" stroke-linecap="round" stroke-dasharray="2 2"/>
<circle cx="106.808" cy="78.0893" r="3.14103" fill="#2736AE" fill-opacity="0.05"/>
<circle cx="106.808" cy="105.731" r="3.14103" fill="#1649E3" fill-opacity="0.5"/>
<circle cx="106.808" cy="105.731" r="2.89103" stroke="#2736AE" stroke-opacity="0.5" stroke-width="0.5" stroke-linecap="round" stroke-dasharray="2 2"/>
<circle cx="134.449" cy="90.6537" r="3.14103" fill="#2736AE" fill-opacity="0.05"/>
<circle cx="134.449" cy="118.295" r="3.14103" fill="#1649E3" fill-opacity="0.5"/>
<circle cx="134.449" cy="118.295" r="2.89103" stroke="#2736AE" stroke-opacity="0.5" stroke-width="0.5" stroke-linecap="round" stroke-dasharray="2 2"/>
<circle cx="106.808" cy="108.244" r="3.14103" fill="#2736AE" fill-opacity="0.05"/>
<circle cx="106.808" cy="135.884" r="3.14103" fill="#1649E3" fill-opacity="0.5"/>
<circle cx="106.808" cy="135.884" r="2.89103" stroke="#2736AE" stroke-opacity="0.5" stroke-width="0.5" stroke-linecap="round" stroke-dasharray="2 2"/>
<circle cx="106.808" cy="145.936" r="3.14103" fill="#2736AE" fill-opacity="0.05"/>
<circle cx="106.808" cy="173.577" r="3.14103" fill="#1649E3" fill-opacity="0.5"/>
<circle cx="106.808" cy="173.577" r="2.89103" stroke="#2736AE" stroke-opacity="0.5" stroke-width="0.5" stroke-linecap="round" stroke-dasharray="2 2"/>
<circle cx="106.808" cy="183.628" r="3.14103" fill="#2736AE" fill-opacity="0.05"/>
<circle cx="106.808" cy="211.269" r="3.14103" fill="#1649E3" fill-opacity="0.5"/>
<circle cx="106.808" cy="211.269" r="2.89103" stroke="#2736AE" stroke-opacity="0.5" stroke-width="0.5" stroke-linecap="round" stroke-dasharray="2 2"/>
<circle cx="115.602" cy="247.705" r="3.14103" fill="#2736AE" fill-opacity="0.05"/>
<circle cx="115.602" cy="70.5512" r="3.14103" fill="#1649E3" fill-opacity="0.5"/>
<circle cx="115.602" cy="70.5512" r="2.89103" stroke="#2736AE" stroke-opacity="0.5" stroke-width="0.5" stroke-linecap="round" stroke-dasharray="2 2"/>
<circle cx="106.808" cy="221.321" r="3.14103" fill="#2736AE" fill-opacity="0.05"/>
<circle cx="106.808" cy="248.961" r="3.14103" fill="#1649E3" fill-opacity="0.5"/>
<circle cx="106.808" cy="248.961" r="2.89103" stroke="#2736AE" stroke-opacity="0.5" stroke-width="0.5" stroke-linecap="round" stroke-dasharray="2 2"/>
<circle cx="106.808" cy="44.1664" r="3.14103" fill="#1649E3" fill-opacity="0.5"/>
<circle cx="106.808" cy="44.1664" r="2.89103" stroke="#2736AE" stroke-opacity="0.5" stroke-width="0.5" stroke-linecap="round" stroke-dasharray="2 2"/>
<circle cx="169.628" cy="153.474" r="3.14103" fill="#2736AE" fill-opacity="0.05"/>
<circle cx="169.628" cy="181.116" r="3.14103" fill="#1649E3" fill-opacity="0.5"/>
<circle cx="169.628" cy="181.116" r="2.89103" stroke="#2736AE" stroke-opacity="0.5" stroke-width="0.5" stroke-linecap="round" stroke-dasharray="2 2"/>
<circle cx="163.346" cy="172.321" r="3.14103" fill="#2736AE" fill-opacity="0.05"/>
<circle cx="163.346" cy="199.961" r="3.14103" fill="#1649E3" fill-opacity="0.5"/>
<circle cx="163.346" cy="199.961" r="2.89103" stroke="#2736AE" stroke-opacity="0.5" stroke-width="0.5" stroke-linecap="round" stroke-dasharray="2 2"/>
<circle cx="185.961" cy="212.526" r="3.14103" fill="#2736AE" fill-opacity="0.05"/>
<circle cx="185.961" cy="240.166" r="3.14103" fill="#1649E3" fill-opacity="0.5"/>
<circle cx="185.961" cy="240.166" r="2.89103" stroke="#2736AE" stroke-opacity="0.5" stroke-width="0.5" stroke-linecap="round" stroke-dasharray="2 2"/>
<line x1="82.0508" y1="57.9092" x2="122.651" y2="57.9092" stroke="white"/>
<line x1="82.0508" y1="67.709" x2="132.451" y2="67.709" stroke="white"/>
<line x1="82.0508" y1="77.5088" x2="129.651" y2="77.5088" stroke="white"/>
<line x1="82.0508" y1="87.3096" x2="132.451" y2="87.3096" stroke="white"/>
<line x1="82.0508" y1="97.1094" x2="115.651" y2="97.1094" stroke="white"/>
<line x1="82.0508" y1="116.709" x2="112.851" y2="116.709" stroke="white"/>
<line x1="82.0508" y1="126.509" x2="119.851" y2="126.509" stroke="white"/>
<line x1="82.0508" y1="136.31" x2="117.051" y2="136.31" stroke="white"/>
<line x1="82.0508" y1="146.109" x2="121.251" y2="146.109" stroke="white"/>
<line x1="82.0508" y1="155.909" x2="114.251" y2="155.909" stroke="white"/>
<line x1="82.0508" y1="185.31" x2="117.051" y2="185.31" stroke="white"/>
<line x1="82.0508" y1="195.109" x2="114.251" y2="195.109" stroke="white"/>
<line x1="82.0508" y1="204.909" x2="124.051" y2="204.909" stroke="white"/>
<line x1="82.0508" y1="214.709" x2="122.651" y2="214.709" stroke="white"/>
<line x1="82.0508" y1="224.509" x2="121.251" y2="224.509" stroke="white"/>
<rect x="161.851" y="57.0088" width="44.8" height="44.8" rx="8" fill="#D17846"/>
<rect x="161.851" y="120.009" width="44.8" height="44.8" rx="8" fill="#51A749"/>
<rect x="161.851" y="183.01" width="44.8" height="44.8" rx="8" fill="#C36154"/>
<path d="M103.336 36.9971L92 26" stroke="#2736AE" stroke-opacity="0.5" stroke-width="0.5" stroke-linecap="round" stroke-dasharray="1 1"/>
<path d="M92 26.25L69 26.25" stroke="#2736AE" stroke-opacity="0.5" stroke-width="0.5" stroke-linecap="round" stroke-dasharray="1 1"/>
<circle cx="66.1412" cy="26.1412" r="3.14103" transform="rotate(-180 66.1412 26.1412)" fill="#1649E3" fill-opacity="0.5"/>
<circle cx="66.1412" cy="26.1412" r="2.64103" transform="rotate(-180 66.1412 26.1412)" stroke="#2736AE" stroke-opacity="0.5"/>
<path d="M148 265L159.336 275.997" stroke="#2736AE" stroke-opacity="0.5" stroke-width="0.5" stroke-linecap="round" stroke-dasharray="1 1"/>
<path d="M159.336 275.747L182.336 275.747" stroke="#2736AE" stroke-opacity="0.5" stroke-width="0.5" stroke-linecap="round" stroke-dasharray="1 1"/>
<circle cx="185.195" cy="275.856" r="3.14103" fill="#1649E3" fill-opacity="0.5"/>
<circle cx="185.195" cy="275.856" r="2.64103" stroke="#2736AE" stroke-opacity="0.5"/>
<path d="M218 198.336L228.997 187" stroke="#2736AE" stroke-opacity="0.5" stroke-width="0.5" stroke-linecap="round" stroke-dasharray="1 1"/>
<path d="M228.747 187L228.747 164" stroke="#2736AE" stroke-opacity="0.5" stroke-width="0.5" stroke-linecap="round" stroke-dasharray="1 1"/>
<circle cx="228.856" cy="161.141" r="3.14103" transform="rotate(-90 228.856 161.141)" fill="#1649E3" fill-opacity="0.5"/>
<circle cx="228.856" cy="161.141" r="2.64103" transform="rotate(-90 228.856 161.141)" stroke="#2736AE" stroke-opacity="0.5"/>
<path d="M181.336 35.9971L170 25" stroke="#2736AE" stroke-opacity="0.5" stroke-width="0.5" stroke-linecap="round" stroke-dasharray="1 1"/>
<path d="M170 25L155 25" stroke="#2736AE" stroke-opacity="0.5" stroke-width="0.5" stroke-linecap="round" stroke-dasharray="1 1"/>
<circle cx="152.141" cy="25.1412" r="3.14103" transform="rotate(-180 152.141 25.1412)" fill="#1649E3" fill-opacity="0.5"/>
<circle cx="152.141" cy="25.1412" r="2.64103" transform="rotate(-180 152.141 25.1412)" stroke="#2736AE" stroke-opacity="0.5"/>
<path d="M82 265L93.3359 275.997" stroke="#2736AE" stroke-opacity="0.5" stroke-width="0.5" stroke-linecap="round" stroke-dasharray="1 1"/>
<path d="M93.3359 275.997L108.336 275.997" stroke="#2736AE" stroke-opacity="0.5" stroke-width="0.5" stroke-linecap="round" stroke-dasharray="1 1"/>
<circle cx="111.195" cy="275.856" r="3.14103" fill="#1649E3" fill-opacity="0.5"/>
<circle cx="111.195" cy="275.856" r="2.64103" stroke="#2736AE" stroke-opacity="0.5"/>
<path d="M70.9971 93L60 104.336" stroke="#2736AE" stroke-opacity="0.5" stroke-width="0.5" stroke-linecap="round" stroke-dasharray="1 1"/>
<path d="M60.25 104.336L60.25 127.336" stroke="#2736AE" stroke-opacity="0.5" stroke-width="0.5" stroke-linecap="round" stroke-dasharray="1 1"/>
<circle cx="60.1412" cy="130.195" r="3.14103" transform="rotate(90 60.1412 130.195)" fill="#1649E3" fill-opacity="0.5"/>
<circle cx="60.1412" cy="130.195" r="2.64103" transform="rotate(90 60.1412 130.195)" stroke="#2736AE" stroke-opacity="0.5"/>
<path d="M71.9971 207L61 218.336" stroke="#2736AE" stroke-opacity="0.5" stroke-width="0.5" stroke-linecap="round" stroke-dasharray="1 1"/>
<path d="M61 218L61 234" stroke="#2736AE" stroke-opacity="0.5" stroke-width="0.5" stroke-linecap="round" stroke-dasharray="1 1"/>
<circle cx="61.1412" cy="237.141" r="3.14103" transform="rotate(90 61.1412 237.141)" fill="#1649E3" fill-opacity="0.5"/>
<circle cx="61.1412" cy="237.141" r="2.64103" transform="rotate(90 61.1412 237.141)" stroke="#2736AE" stroke-opacity="0.5"/>
<path d="M218 95.3359L228.997 84" stroke="#2736AE" stroke-opacity="0.5" stroke-width="0.5" stroke-linecap="round" stroke-dasharray="1 1"/>
<path d="M228.997 84L228.997 69" stroke="#2736AE" stroke-opacity="0.5" stroke-width="0.5" stroke-linecap="round" stroke-dasharray="1 1"/>
<circle cx="228.856" cy="66.1412" r="3.14103" transform="rotate(-90 228.856 66.1412)" fill="#1649E3" fill-opacity="0.5"/>
<circle cx="228.856" cy="66.1412" r="2.64103" transform="rotate(-90 228.856 66.1412)" stroke="#2736AE" stroke-opacity="0.5"/>
</svg>
