<svg width="300" height="300" viewBox="0 0 300 300" fill="none" xmlns="http://www.w3.org/2000/svg">
<g clip-path="url(#clip0_838_308)">
<path d="M161.689 43.9997L11 131L98.0003 281.689L248.689 194.689L161.689 43.9997Z" fill="#B6B6B6"/>
<path d="M40.769 135.534L36.6963 137.886L39.0476 141.958L43.1203 139.607L40.769 135.534Z" fill="black"/>
<path d="M43.1205 139.607L39.0479 141.958L41.3992 146.031L45.4719 143.679L43.1205 139.607Z" fill="black"/>
<path d="M45.4716 143.68L41.3989 146.031L43.7503 150.104L47.823 147.753L45.4716 143.68Z" fill="black"/>
<path d="M47.8232 147.752L43.7505 150.104L46.1018 154.176L50.1745 151.825L47.8232 147.752Z" fill="black"/>
<path d="M50.1742 151.825L46.1016 154.177L48.4529 158.249L52.5256 155.898L50.1742 151.825Z" fill="black"/>
<path d="M52.5258 155.898L48.4531 158.249L50.8045 162.322L54.8772 159.97L52.5258 155.898Z" fill="black"/>
<path d="M54.8774 159.971L50.8047 162.322L53.156 166.395L57.2287 164.044L54.8774 159.971Z" fill="black"/>
<path d="M59.58 168.115L55.5073 170.467L57.8587 174.539L61.9314 172.188L59.58 168.115Z" fill="black"/>
<path d="M66.6337 180.334L62.561 182.686L64.9124 186.758L68.9851 184.407L66.6337 180.334Z" fill="black"/>
<path d="M76.0395 196.624L71.9668 198.976L74.3182 203.048L78.3908 200.697L76.0395 196.624Z" fill="black"/>
<path d="M92.4989 225.133L88.4263 227.484L90.7776 231.557L94.8503 229.206L92.4989 225.133Z" fill="black"/>
<path d="M94.85 229.206L90.7773 231.558L93.1287 235.63L97.2014 233.279L94.85 229.206Z" fill="black"/>
<path d="M97.2016 233.279L93.1289 235.63L95.4803 239.703L99.5529 237.351L97.2016 233.279Z" fill="black"/>
<path d="M99.5531 237.351L95.4805 239.702L97.8318 243.775L101.905 241.423L99.5531 237.351Z" fill="black"/>
<path d="M101.904 241.424L97.8315 243.775L100.183 247.848L104.256 245.497L101.904 241.424Z" fill="black"/>
<path d="M104.256 245.496L100.183 247.848L102.534 251.92L106.607 249.569L104.256 245.496Z" fill="black"/>
<path d="M106.607 249.57L102.534 251.921L104.886 255.994L108.958 253.642L106.607 249.57Z" fill="black"/>
<path d="M44.8417 133.183L40.769 135.534L43.1204 139.607L47.1931 137.255L44.8417 133.183Z" fill="black"/>
<path d="M58.9496 157.619L54.877 159.971L57.2283 164.043L61.301 161.692L58.9496 157.619Z" fill="black"/>
<path d="M63.6528 165.765L59.5801 168.116L61.9314 172.189L66.0041 169.838L63.6528 165.765Z" fill="black"/>
<path d="M68.3554 173.909L64.2827 176.261L66.6341 180.333L70.7068 177.982L68.3554 173.909Z" fill="black"/>
<path d="M73.058 182.055L68.9854 184.406L71.3367 188.479L75.4094 186.128L73.058 182.055Z" fill="black"/>
<path d="M75.4091 186.128L71.3364 188.479L73.6878 192.552L77.7605 190.201L75.4091 186.128Z" fill="black"/>
<path d="M77.7607 190.2L73.688 192.552L76.0393 196.624L80.112 194.273L77.7607 190.2Z" fill="black"/>
<path d="M80.1122 194.273L76.0396 196.624L78.3909 200.697L82.4636 198.345L80.1122 194.273Z" fill="black"/>
<path d="M87.1659 206.491L83.0933 208.843L85.4446 212.915L89.5173 210.564L87.1659 206.491Z" fill="black"/>
<path d="M89.5175 210.564L85.4448 212.915L87.7962 216.988L91.8689 214.636L89.5175 210.564Z" fill="black"/>
<path d="M91.8691 214.637L87.7964 216.988L90.1477 221.061L94.2204 218.71L91.8691 214.637Z" fill="black"/>
<path d="M96.5717 222.781L92.499 225.133L94.8504 229.205L98.9231 226.854L96.5717 222.781Z" fill="black"/>
<path d="M110.68 247.218L106.607 249.569L108.958 253.642L113.031 251.291L110.68 247.218Z" fill="black"/>
<path d="M48.9145 130.831L44.8418 133.183L47.1932 137.255L51.2658 134.904L48.9145 130.831Z" fill="black"/>
<path d="M53.6171 138.977L49.5444 141.328L51.8958 145.401L55.9685 143.049L53.6171 138.977Z" fill="black"/>
<path d="M55.9682 143.05L51.8955 145.401L54.2469 149.474L58.3195 147.123L55.9682 143.05Z" fill="black"/>
<path d="M58.3197 147.122L54.2471 149.474L56.5984 153.546L60.6711 151.195L58.3197 147.122Z" fill="black"/>
<path d="M63.0224 155.268L58.9497 157.619L61.3011 161.692L65.3737 159.34L63.0224 155.268Z" fill="black"/>
<path d="M67.725 163.413L63.6523 165.765L66.0037 169.837L70.0764 167.486L67.725 163.413Z" fill="black"/>
<path d="M70.0766 167.486L66.0039 169.837L68.3553 173.91L72.4279 171.558L70.0766 167.486Z" fill="black"/>
<path d="M77.1308 179.703L73.0581 182.055L75.4095 186.127L79.4821 183.776L77.1308 179.703Z" fill="black"/>
<path d="M79.4819 183.777L75.4092 186.128L77.7605 190.201L81.8332 187.849L79.4819 183.777Z" fill="black"/>
<path d="M81.8334 187.849L77.7607 190.2L80.1121 194.273L84.1848 191.922L81.8334 187.849Z" fill="black"/>
<path d="M88.8876 200.068L84.8149 202.419L87.1663 206.492L91.239 204.14L88.8876 200.068Z" fill="black"/>
<path d="M100.644 220.431L96.5718 222.782L98.9231 226.855L102.996 224.504L100.644 220.431Z" fill="black"/>
<path d="M105.347 228.575L101.274 230.927L103.626 234.999L107.698 232.648L105.347 228.575Z" fill="black"/>
<path d="M107.698 232.649L103.625 235L105.977 239.073L110.05 236.721L107.698 232.649Z" fill="black"/>
<path d="M110.05 236.721L105.977 239.072L108.328 243.145L112.401 240.794L110.05 236.721Z" fill="black"/>
<path d="M114.752 244.866L110.68 247.218L113.031 251.29L117.104 248.939L114.752 244.866Z" fill="black"/>
<path d="M52.9872 128.481L48.9146 130.832L51.2659 134.905L55.3386 132.553L52.9872 128.481Z" fill="black"/>
<path d="M57.6899 136.625L53.6172 138.977L55.9685 143.049L60.0412 140.698L57.6899 136.625Z" fill="black"/>
<path d="M60.0409 140.698L55.9683 143.05L58.3196 147.122L62.3923 144.771L60.0409 140.698Z" fill="black"/>
<path d="M62.3925 144.771L58.3198 147.122L60.6712 151.195L64.7439 148.843L62.3925 144.771Z" fill="black"/>
<path d="M67.0951 152.916L63.0225 155.268L65.3738 159.34L69.4465 156.989L67.0951 152.916Z" fill="black"/>
<path d="M71.7978 161.062L67.7251 163.413L70.0765 167.486L74.1491 165.134L71.7978 161.062Z" fill="black"/>
<path d="M81.2035 177.353L77.1309 179.704L79.4822 183.777L83.5549 181.425L81.2035 177.353Z" fill="black"/>
<path d="M85.9062 185.497L81.8335 187.849L84.1849 191.921L88.2575 189.57L85.9062 185.497Z" fill="black"/>
<path d="M88.2572 189.571L84.1846 191.922L86.5359 195.995L90.6086 193.643L88.2572 189.571Z" fill="black"/>
<path d="M92.9599 197.716L88.8872 200.067L91.2386 204.14L95.3112 201.789L92.9599 197.716Z" fill="black"/>
<path d="M95.3114 201.788L91.2388 204.14L93.5901 208.212L97.6628 205.861L95.3114 201.788Z" fill="black"/>
<path d="M104.717 218.079L100.644 220.431L102.995 224.503L107.068 222.152L104.717 218.079Z" fill="black"/>
<path d="M109.42 226.225L105.347 228.576L107.699 232.649L111.771 230.297L109.42 226.225Z" fill="black"/>
<path d="M111.771 230.297L107.698 232.648L110.05 236.721L114.122 234.37L111.771 230.297Z" fill="black"/>
<path d="M114.122 234.37L110.05 236.722L112.401 240.794L116.474 238.443L114.122 234.37Z" fill="black"/>
<path d="M118.825 242.515L114.752 244.866L117.104 248.939L121.176 246.588L118.825 242.515Z" fill="black"/>
<path d="M57.0595 126.129L52.9868 128.48L55.3382 132.553L59.4109 130.202L57.0595 126.129Z" fill="black"/>
<path d="M61.7626 134.275L57.6899 136.626L60.0413 140.699L64.114 138.347L61.7626 134.275Z" fill="black"/>
<path d="M64.1137 138.347L60.041 140.698L62.3924 144.771L66.4651 142.42L64.1137 138.347Z" fill="black"/>
<path d="M66.4653 142.42L62.3926 144.771L64.7439 148.844L68.8166 146.493L66.4653 142.42Z" fill="black"/>
<path d="M71.1679 150.565L67.0952 152.916L69.4466 156.989L73.5193 154.637L71.1679 150.565Z" fill="black"/>
<path d="M75.8705 158.71L71.7979 161.062L74.1492 165.134L78.2219 162.783L75.8705 158.71Z" fill="black"/>
<path d="M78.2221 162.783L74.1494 165.135L76.5008 169.207L80.5735 166.856L78.2221 162.783Z" fill="black"/>
<path d="M80.5732 166.856L76.5005 169.207L78.8518 173.28L82.9245 170.928L80.5732 166.856Z" fill="black"/>
<path d="M87.6274 179.073L83.5547 181.425L85.906 185.497L89.9787 183.146L87.6274 179.073Z" fill="black"/>
<path d="M92.33 187.219L88.2573 189.57L90.6087 193.643L94.6814 191.292L92.33 187.219Z" fill="black"/>
<path d="M94.6816 191.292L90.6089 193.644L92.9602 197.716L97.0329 195.365L94.6816 191.292Z" fill="black"/>
<path d="M101.735 203.51L97.6626 205.861L100.014 209.934L104.087 207.583L101.735 203.51Z" fill="black"/>
<path d="M104.087 207.582L100.014 209.934L102.366 214.006L106.438 211.655L104.087 207.582Z" fill="black"/>
<path d="M108.789 215.728L104.717 218.079L107.068 222.152L111.141 219.8L108.789 215.728Z" fill="black"/>
<path d="M113.492 223.873L109.419 226.225L111.771 230.297L115.843 227.946L113.492 223.873Z" fill="black"/>
<path d="M115.844 227.946L111.771 230.297L114.122 234.37L118.195 232.018L115.844 227.946Z" fill="black"/>
<path d="M118.195 232.019L114.123 234.37L116.474 238.443L120.547 236.091L118.195 232.019Z" fill="black"/>
<path d="M122.898 240.164L118.825 242.516L121.177 246.588L125.249 244.237L122.898 240.164Z" fill="black"/>
<path d="M61.1322 123.778L57.0596 126.129L59.4109 130.202L63.4836 127.85L61.1322 123.778Z" fill="black"/>
<path d="M75.2406 148.214L71.168 150.565L73.5193 154.638L77.592 152.287L75.2406 148.214Z" fill="black"/>
<path d="M82.2944 160.432L78.2217 162.783L80.573 166.856L84.6457 164.505L82.2944 160.432Z" fill="black"/>
<path d="M84.6459 164.504L80.5732 166.855L82.9246 170.928L86.9973 168.577L84.6459 164.504Z" fill="black"/>
<path d="M89.3486 172.65L85.2759 175.001L87.6272 179.074L91.6999 176.722L89.3486 172.65Z" fill="black"/>
<path d="M94.0512 180.795L89.9785 183.146L92.3299 187.219L96.4026 184.868L94.0512 180.795Z" fill="black"/>
<path d="M98.7543 188.941L94.6816 191.292L97.033 195.365L101.106 193.013L98.7543 188.941Z" fill="black"/>
<path d="M112.862 213.376L108.79 215.728L111.141 219.8L115.214 217.449L112.862 213.376Z" fill="black"/>
<path d="M126.971 237.813L122.898 240.164L125.249 244.237L129.322 241.885L126.971 237.813Z" fill="black"/>
<path d="M65.205 121.426L61.1323 123.777L63.4837 127.85L67.5564 125.499L65.205 121.426Z" fill="black"/>
<path d="M67.5566 125.499L63.4839 127.851L65.8352 131.923L69.9079 129.572L67.5566 125.499Z" fill="black"/>
<path d="M69.9076 129.571L65.835 131.923L68.1863 135.996L72.259 133.644L69.9076 129.571Z" fill="black"/>
<path d="M72.2592 133.644L68.1865 135.995L70.5379 140.068L74.6106 137.716L72.2592 133.644Z" fill="black"/>
<path d="M74.6103 137.717L70.5376 140.068L72.889 144.141L76.9616 141.79L74.6103 137.717Z" fill="black"/>
<path d="M76.9618 141.789L72.8892 144.141L75.2405 148.213L79.3132 145.862L76.9618 141.789Z" fill="black"/>
<path d="M79.3134 145.863L75.2407 148.214L77.5921 152.287L81.6648 149.935L79.3134 145.863Z" fill="black"/>
<path d="M84.016 154.008L79.9434 156.359L82.2947 160.432L86.3674 158.081L84.016 154.008Z" fill="black"/>
<path d="M88.7187 162.153L84.646 164.504L86.9974 168.577L91.07 166.225L88.7187 162.153Z" fill="black"/>
<path d="M93.4213 170.298L89.3486 172.649L91.7 176.722L95.7727 174.371L93.4213 170.298Z" fill="black"/>
<path d="M98.1239 178.444L94.0513 180.795L96.4026 184.868L100.475 182.516L98.1239 178.444Z" fill="black"/>
<path d="M102.827 186.589L98.7539 188.94L101.105 193.013L105.178 190.662L102.827 186.589Z" fill="black"/>
<path d="M107.53 194.735L103.457 197.086L105.808 201.159L109.881 198.807L107.53 194.735Z" fill="black"/>
<path d="M112.232 202.88L108.16 205.231L110.511 209.304L114.584 206.953L112.232 202.88Z" fill="black"/>
<path d="M116.935 211.025L112.862 213.376L115.214 217.449L119.286 215.097L116.935 211.025Z" fill="black"/>
<path d="M119.287 215.098L115.214 217.449L117.565 221.522L121.638 219.171L119.287 215.098Z" fill="black"/>
<path d="M121.638 219.17L117.565 221.521L119.916 225.594L123.989 223.243L121.638 219.17Z" fill="black"/>
<path d="M123.989 223.243L119.917 225.595L122.268 229.667L126.341 227.316L123.989 223.243Z" fill="black"/>
<path d="M126.34 227.316L122.268 229.667L124.619 233.74L128.692 231.388L126.34 227.316Z" fill="black"/>
<path d="M128.692 231.389L124.619 233.74L126.971 237.813L131.043 235.462L128.692 231.389Z" fill="black"/>
<path d="M131.043 235.461L126.97 237.812L129.322 241.885L133.394 239.534L131.043 235.461Z" fill="black"/>
<path d="M88.0888 151.656L84.0161 154.008L86.3675 158.08L90.4401 155.729L88.0888 151.656Z" fill="black"/>
<path d="M90.4399 155.729L86.3672 158.08L88.7185 162.153L92.7912 159.801L90.4399 155.729Z" fill="black"/>
<path d="M102.197 176.092L98.124 178.443L100.475 182.516L104.548 180.165L102.197 176.092Z" fill="black"/>
<path d="M75.7016 120.796L71.6289 123.147L73.9803 127.22L78.0529 124.869L75.7016 120.796Z" fill="black"/>
<path d="M80.4042 128.942L76.3315 131.293L78.6829 135.366L82.7556 133.014L80.4042 128.942Z" fill="black"/>
<path d="M85.1073 137.087L81.0347 139.438L83.386 143.511L87.4587 141.16L85.1073 137.087Z" fill="black"/>
<path d="M87.4584 141.159L83.3857 143.511L85.7371 147.583L89.8098 145.232L87.4584 141.159Z" fill="black"/>
<path d="M92.1611 149.305L88.0884 151.656L90.4397 155.729L94.5124 153.378L92.1611 149.305Z" fill="black"/>
<path d="M108.621 177.814L104.548 180.165L106.899 184.238L110.972 181.886L108.621 177.814Z" fill="black"/>
<path d="M110.972 181.886L106.899 184.237L109.251 188.31L113.323 185.959L110.972 181.886Z" fill="black"/>
<path d="M113.324 185.959L109.251 188.311L111.602 192.383L115.675 190.032L113.324 185.959Z" fill="black"/>
<path d="M115.675 190.031L111.602 192.383L113.953 196.455L118.026 194.104L115.675 190.031Z" fill="black"/>
<path d="M118.026 194.105L113.954 196.456L116.305 200.529L120.378 198.177L118.026 194.105Z" fill="black"/>
<path d="M120.377 198.177L116.305 200.528L118.656 204.601L122.729 202.25L120.377 198.177Z" fill="black"/>
<path d="M122.729 202.249L118.656 204.601L121.008 208.673L125.08 206.322L122.729 202.249Z" fill="black"/>
<path d="M125.08 206.322L121.008 208.674L123.359 212.747L127.432 210.395L125.08 206.322Z" fill="black"/>
<path d="M129.783 214.468L125.71 216.819L128.062 220.892L132.134 218.541L129.783 214.468Z" fill="black"/>
<path d="M132.134 218.54L128.062 220.892L130.413 224.964L134.486 222.613L132.134 218.54Z" fill="black"/>
<path d="M134.486 222.613L130.413 224.965L132.764 229.038L136.837 226.686L134.486 222.613Z" fill="black"/>
<path d="M136.837 226.686L132.765 229.037L135.116 233.11L139.189 230.758L136.837 226.686Z" fill="black"/>
<path d="M139.188 230.758L135.116 233.109L137.467 237.182L141.54 234.831L139.188 230.758Z" fill="black"/>
<path d="M77.4233 114.372L73.3506 116.724L75.7019 120.796L79.7746 118.445L77.4233 114.372Z" fill="black"/>
<path d="M79.7743 118.445L75.7017 120.796L78.053 124.869L82.1257 122.517L79.7743 118.445Z" fill="black"/>
<path d="M82.1259 122.518L78.0532 124.869L80.4046 128.942L84.4773 126.59L82.1259 122.518Z" fill="black"/>
<path d="M84.477 126.59L80.4043 128.941L82.7557 133.014L86.8283 130.663L84.477 126.59Z" fill="black"/>
<path d="M96.2338 146.953L92.1611 149.305L94.5125 153.377L98.5852 151.026L96.2338 146.953Z" fill="black"/>
<path d="M98.5854 151.027L94.5127 153.378L96.8641 157.451L100.937 155.099L98.5854 151.027Z" fill="black"/>
<path d="M100.936 155.099L96.8638 157.45L99.2151 161.523L103.288 159.172L100.936 155.099Z" fill="black"/>
<path d="M103.288 159.171L99.2153 161.522L101.567 165.595L105.639 163.244L103.288 159.171Z" fill="black"/>
<path d="M105.64 163.244L101.567 165.596L103.918 169.668L107.991 167.317L105.64 163.244Z" fill="black"/>
<path d="M107.991 167.317L103.918 169.668L106.269 173.741L110.342 171.389L107.991 167.317Z" fill="black"/>
<path d="M115.045 179.535L110.972 181.887L113.324 185.959L117.396 183.608L115.045 179.535Z" fill="black"/>
<path d="M119.747 187.68L115.675 190.031L118.026 194.104L122.099 191.753L119.747 187.68Z" fill="black"/>
<path d="M122.099 191.753L118.026 194.104L120.378 198.177L124.45 195.826L122.099 191.753Z" fill="black"/>
<path d="M126.802 199.899L122.729 202.25L125.08 206.323L129.153 203.971L126.802 199.899Z" fill="black"/>
<path d="M136.207 216.189L132.134 218.54L134.486 222.613L138.558 220.261L136.207 216.189Z" fill="black"/>
<path d="M138.559 220.262L134.486 222.613L136.837 226.686L140.91 224.335L138.559 220.262Z" fill="black"/>
<path d="M143.261 228.407L139.188 230.759L141.54 234.831L145.613 232.48L143.261 228.407Z" fill="black"/>
<path d="M86.1987 120.166L82.126 122.518L84.4773 126.59L88.55 124.239L86.1987 120.166Z" fill="black"/>
<path d="M90.9013 128.312L86.8286 130.663L89.18 134.736L93.2526 132.384L90.9013 128.312Z" fill="black"/>
<path d="M93.2524 132.384L89.1797 134.735L91.531 138.808L95.6037 136.457L93.2524 132.384Z" fill="black"/>
<path d="M95.6039 136.457L91.5312 138.809L93.8826 142.881L97.9553 140.53L95.6039 136.457Z" fill="black"/>
<path d="M100.307 144.602L96.2339 146.953L98.5852 151.026L102.658 148.674L100.307 144.602Z" fill="black"/>
<path d="M107.361 156.821L103.288 159.172L105.639 163.245L109.712 160.893L107.361 156.821Z" fill="black"/>
<path d="M112.063 164.966L107.991 167.317L110.342 171.39L114.415 169.039L112.063 164.966Z" fill="black"/>
<path d="M119.118 177.184L115.045 179.535L117.396 183.608L121.469 181.256L119.118 177.184Z" fill="black"/>
<path d="M121.469 181.256L117.396 183.607L119.747 187.68L123.82 185.329L121.469 181.256Z" fill="black"/>
<path d="M123.82 185.329L119.748 187.681L122.099 191.753L126.172 189.402L123.82 185.329Z" fill="black"/>
<path d="M130.874 197.547L126.802 199.898L129.153 203.971L133.226 201.62L130.874 197.547Z" fill="black"/>
<path d="M133.226 201.619L129.153 203.971L131.504 208.043L135.577 205.692L133.226 201.619Z" fill="black"/>
<path d="M135.577 205.693L131.504 208.044L133.856 212.117L137.928 209.765L135.577 205.693Z" fill="black"/>
<path d="M137.928 209.765L133.855 212.116L136.207 216.189L140.28 213.838L137.928 209.765Z" fill="black"/>
<path d="M87.9198 113.742L83.8472 116.094L86.1985 120.166L90.2712 117.815L87.9198 113.742Z" fill="black"/>
<path d="M90.2709 117.815L86.1982 120.166L88.5496 124.239L92.6223 121.887L90.2709 117.815Z" fill="black"/>
<path d="M92.6225 121.888L88.5498 124.239L90.9012 128.312L94.9738 125.961L92.6225 121.888Z" fill="black"/>
<path d="M109.082 150.396L105.009 152.747L107.361 156.82L111.433 154.468L109.082 150.396Z" fill="black"/>
<path d="M111.434 154.469L107.361 156.82L109.712 160.893L113.785 158.542L111.434 154.469Z" fill="black"/>
<path d="M113.785 158.541L109.712 160.893L112.063 164.965L116.136 162.614L113.785 158.541Z" fill="black"/>
<path d="M127.893 182.978L123.82 185.329L126.172 189.402L130.244 187.05L127.893 182.978Z" fill="black"/>
<path d="M130.244 187.05L126.171 189.401L128.523 193.474L132.595 191.123L130.244 187.05Z" fill="black"/>
<path d="M132.596 191.123L128.523 193.475L130.874 197.547L134.947 195.196L132.596 191.123Z" fill="black"/>
<path d="M146.704 215.559L142.631 217.91L144.982 221.983L149.055 219.631L146.704 215.559Z" fill="black"/>
<path d="M149.055 219.632L144.982 221.983L147.334 226.056L151.406 223.705L149.055 219.632Z" fill="black"/>
<path d="M151.407 223.704L147.334 226.056L149.685 230.128L153.758 227.777L151.407 223.704Z" fill="black"/>
<path d="M91.9926 111.391L87.9199 113.742L90.2713 117.815L94.344 115.464L91.9926 111.391Z" fill="black"/>
<path d="M99.0463 123.609L94.9736 125.96L97.325 130.033L101.398 127.681L99.0463 123.609Z" fill="black"/>
<path d="M103.749 131.754L99.6768 134.105L102.028 138.178L106.101 135.827L103.749 131.754Z" fill="black"/>
<path d="M106.101 135.826L102.028 138.178L104.379 142.25L108.452 139.899L106.101 135.826Z" fill="black"/>
<path d="M108.452 139.9L104.379 142.251L106.731 146.324L110.803 143.972L108.452 139.9Z" fill="black"/>
<path d="M113.155 148.045L109.082 150.396L111.433 154.469L115.506 152.118L113.155 148.045Z" fill="black"/>
<path d="M120.209 160.263L116.136 162.614L118.488 166.687L122.56 164.336L120.209 160.263Z" fill="black"/>
<path d="M124.912 168.408L120.839 170.76L123.19 174.832L127.263 172.481L124.912 168.408Z" fill="black"/>
<path d="M127.263 172.481L123.19 174.832L125.541 178.905L129.614 176.553L127.263 172.481Z" fill="black"/>
<path d="M131.966 180.626L127.893 182.978L130.244 187.05L134.317 184.699L131.966 180.626Z" fill="black"/>
<path d="M139.019 192.844L134.947 195.195L137.298 199.268L141.371 196.917L139.019 192.844Z" fill="black"/>
<path d="M143.723 200.989L139.65 203.341L142.001 207.413L146.074 205.062L143.723 200.989Z" fill="black"/>
<path d="M146.074 205.063L142.001 207.414L144.352 211.487L148.425 209.135L146.074 205.063Z" fill="black"/>
<path d="M150.776 213.207L146.704 215.559L149.055 219.631L153.128 217.28L150.776 213.207Z" fill="black"/>
<path d="M155.479 221.353L151.406 223.704L153.758 227.777L157.83 225.425L155.479 221.353Z" fill="black"/>
<path d="M96.0649 109.039L91.9922 111.391L94.3435 115.463L98.4162 113.112L96.0649 109.039Z" fill="black"/>
<path d="M100.768 117.185L96.6953 119.536L99.0467 123.609L103.119 121.257L100.768 117.185Z" fill="black"/>
<path d="M103.119 121.257L99.0464 123.608L101.398 127.681L105.47 125.33L103.119 121.257Z" fill="black"/>
<path d="M117.227 145.694L113.155 148.045L115.506 152.118L119.579 149.766L117.227 145.694Z" fill="black"/>
<path d="M121.93 153.839L117.857 156.19L120.209 160.263L124.281 157.912L121.93 153.839Z" fill="black"/>
<path d="M126.633 161.985L122.56 164.336L124.911 168.409L128.984 166.057L126.633 161.985Z" fill="black"/>
<path d="M133.687 174.202L129.614 176.554L131.966 180.626L136.038 178.275L133.687 174.202Z" fill="black"/>
<path d="M140.741 186.42L136.668 188.771L139.02 192.844L143.092 190.493L140.741 186.42Z" fill="black"/>
<path d="M145.444 194.566L141.371 196.917L143.722 200.99L147.795 198.638L145.444 194.566Z" fill="black"/>
<path d="M97.7865 102.615L93.7139 104.967L96.0652 109.039L100.138 106.688L97.7865 102.615Z" fill="black"/>
<path d="M100.138 106.688L96.0649 109.039L98.4163 113.112L102.489 110.76L100.138 106.688Z" fill="black"/>
<path d="M102.489 110.761L98.4165 113.112L100.768 117.185L104.841 114.834L102.489 110.761Z" fill="black"/>
<path d="M107.192 118.906L103.119 121.258L105.471 125.33L109.543 122.979L107.192 118.906Z" fill="black"/>
<path d="M111.894 127.051L107.822 129.402L110.173 133.475L114.246 131.124L111.894 127.051Z" fill="black"/>
<path d="M114.246 131.124L110.173 133.476L112.525 137.548L116.597 135.197L114.246 131.124Z" fill="black"/>
<path d="M116.597 135.196L112.524 137.548L114.876 141.621L118.948 139.269L116.597 135.196Z" fill="black"/>
<path d="M118.949 139.27L114.876 141.621L117.227 145.694L121.3 143.342L118.949 139.27Z" fill="black"/>
<path d="M121.3 143.342L117.228 145.693L119.579 149.766L123.652 147.415L121.3 143.342Z" fill="black"/>
<path d="M123.651 147.415L119.579 149.767L121.93 153.839L126.003 151.488L123.651 147.415Z" fill="black"/>
<path d="M126.003 151.488L121.93 153.839L124.282 157.912L128.354 155.56L126.003 151.488Z" fill="black"/>
<path d="M130.705 159.633L126.633 161.984L128.984 166.057L133.057 163.706L130.705 159.633Z" fill="black"/>
<path d="M133.057 163.705L128.984 166.057L131.336 170.129L135.408 167.778L133.057 163.705Z" fill="black"/>
<path d="M135.408 167.779L131.335 170.13L133.687 174.203L137.759 171.851L135.408 167.779Z" fill="black"/>
<path d="M137.76 171.851L133.687 174.202L136.038 178.275L140.111 175.923L137.76 171.851Z" fill="black"/>
<path d="M144.813 184.069L140.741 186.42L143.092 190.493L147.165 188.141L144.813 184.069Z" fill="black"/>
<path d="M151.868 196.287L147.795 198.639L150.146 202.711L154.219 200.36L151.868 196.287Z" fill="black"/>
<path d="M154.219 200.36L150.146 202.711L152.498 206.784L156.571 204.432L154.219 200.36Z" fill="black"/>
<path d="M156.57 204.432L152.498 206.783L154.849 210.856L158.922 208.505L156.57 204.432Z" fill="black"/>
<path d="M161.273 212.577L157.201 214.929L159.552 219.001L163.625 216.65L161.273 212.577Z" fill="black"/>
<path d="M104.21 104.337L100.138 106.688L102.489 110.761L106.562 108.41L104.21 104.337Z" fill="black"/>
<path d="M106.562 108.409L102.489 110.761L104.841 114.833L108.913 112.482L106.562 108.409Z" fill="black"/>
<path d="M108.913 112.482L104.84 114.833L107.192 118.906L111.264 116.554L108.913 112.482Z" fill="black"/>
<path d="M113.616 120.627L109.543 122.979L111.895 127.051L115.967 124.7L113.616 120.627Z" fill="black"/>
<path d="M120.67 132.845L116.597 135.196L118.949 139.269L123.021 136.918L120.67 132.845Z" fill="black"/>
<path d="M125.372 140.99L121.3 143.342L123.651 147.414L127.724 145.063L125.372 140.99Z" fill="black"/>
<path d="M127.724 145.064L123.651 147.415L126.003 151.488L130.075 149.136L127.724 145.064Z" fill="black"/>
<path d="M130.076 149.136L126.003 151.487L128.354 155.56L132.427 153.209L130.076 149.136Z" fill="black"/>
<path d="M132.427 153.209L128.354 155.561L130.705 159.633L134.778 157.282L132.427 153.209Z" fill="black"/>
<path d="M134.778 157.281L130.706 159.633L133.057 163.705L137.13 161.354L134.778 157.281Z" fill="black"/>
<path d="M137.129 161.354L133.057 163.705L135.408 167.778L139.481 165.426L137.129 161.354Z" fill="black"/>
<path d="M139.481 165.427L135.408 167.778L137.76 171.851L141.832 169.5L139.481 165.427Z" fill="black"/>
<path d="M144.184 173.572L140.111 175.924L142.462 179.997L146.535 177.645L144.184 173.572Z" fill="black"/>
<path d="M146.535 177.645L142.462 179.996L144.814 184.069L148.886 181.717L146.535 177.645Z" fill="black"/>
<path d="M153.589 189.863L149.516 192.214L151.867 196.287L155.94 193.935L153.589 189.863Z" fill="black"/>
<path d="M158.292 198.008L154.219 200.359L156.571 204.432L160.643 202.081L158.292 198.008Z" fill="black"/>
<path d="M162.995 206.154L158.922 208.505L161.273 212.578L165.346 210.226L162.995 206.154Z" fill="black"/>
<path d="M105.932 97.9123L101.859 100.264L104.21 104.336L108.283 101.985L105.932 97.9123Z" fill="black"/>
<path d="M110.635 106.058L106.562 108.409L108.913 112.482L112.986 110.13L110.635 106.058Z" fill="black"/>
<path d="M112.986 110.131L108.913 112.482L111.264 116.555L115.337 114.204L112.986 110.131Z" fill="black"/>
<path d="M117.688 118.276L113.616 120.627L115.967 124.7L120.04 122.348L117.688 118.276Z" fill="black"/>
<path d="M120.04 122.349L115.967 124.7L118.319 128.773L122.391 126.422L120.04 122.349Z" fill="black"/>
<path d="M122.392 126.421L118.319 128.772L120.67 132.845L124.743 130.494L122.392 126.421Z" fill="black"/>
<path d="M124.743 130.494L120.67 132.846L123.021 136.918L127.094 134.567L124.743 130.494Z" fill="black"/>
<path d="M127.094 134.567L123.021 136.918L125.373 140.991L129.446 138.639L127.094 134.567Z" fill="black"/>
<path d="M129.445 138.64L125.373 140.991L127.724 145.064L131.797 142.713L129.445 138.64Z" fill="black"/>
<path d="M134.148 146.784L130.075 149.136L132.427 153.208L136.499 150.857L134.148 146.784Z" fill="black"/>
<path d="M136.499 150.858L132.427 153.209L134.778 157.282L138.851 154.93L136.499 150.858Z" fill="black"/>
<path d="M141.202 159.003L137.129 161.354L139.481 165.427L143.553 163.076L141.202 159.003Z" fill="black"/>
<path d="M145.905 167.148L141.832 169.499L144.183 173.572L148.256 171.22L145.905 167.148Z" fill="black"/>
<path d="M148.256 171.221L144.184 173.572L146.535 177.645L150.608 175.294L148.256 171.221Z" fill="black"/>
<path d="M150.608 175.293L146.535 177.645L148.887 181.717L152.959 179.366L150.608 175.293Z" fill="black"/>
<path d="M152.959 179.366L148.886 181.718L151.238 185.79L155.31 183.439L152.959 179.366Z" fill="black"/>
<path d="M160.013 191.584L155.94 193.936L158.292 198.008L162.364 195.657L160.013 191.584Z" fill="black"/>
<path d="M162.364 195.656L158.292 198.008L160.643 202.08L164.716 199.729L162.364 195.656Z" fill="black"/>
<path d="M164.716 199.73L160.643 202.081L162.994 206.154L167.067 203.802L164.716 199.73Z" fill="black"/>
<path d="M167.067 203.802L162.995 206.153L165.346 210.226L169.419 207.875L167.067 203.802Z" fill="black"/>
<path d="M169.418 207.875L165.346 210.227L167.697 214.299L171.77 211.948L169.418 207.875Z" fill="black"/>
<path d="M171.77 211.947L167.697 214.299L170.049 218.372L174.121 216.02L171.77 211.947Z" fill="black"/>
<path d="M110.004 95.5617L105.932 97.9131L108.283 101.986L112.356 99.6344L110.004 95.5617Z" fill="black"/>
<path d="M117.059 107.779L112.986 110.131L115.337 114.204L119.41 111.852L117.059 107.779Z" fill="black"/>
<path d="M119.41 111.852L115.337 114.203L117.689 118.276L121.761 115.924L119.41 111.852Z" fill="black"/>
<path d="M121.761 115.925L117.688 118.276L120.04 122.349L124.113 119.998L121.761 115.925Z" fill="black"/>
<path d="M128.815 128.143L124.743 130.494L127.094 134.567L131.167 132.215L128.815 128.143Z" fill="black"/>
<path d="M133.518 136.288L129.445 138.64L131.797 142.712L135.869 140.361L133.518 136.288Z" fill="black"/>
<path d="M138.221 144.434L134.148 146.785L136.499 150.858L140.572 148.506L138.221 144.434Z" fill="black"/>
<path d="M147.626 160.724L143.554 163.075L145.905 167.148L149.978 164.797L147.626 160.724Z" fill="black"/>
<path d="M157.032 177.015L152.959 179.366L155.31 183.439L159.383 181.088L157.032 177.015Z" fill="black"/>
<path d="M161.734 185.16L157.662 187.512L160.013 191.584L164.086 189.233L161.734 185.16Z" fill="black"/>
<path d="M166.437 193.306L162.364 195.657L164.716 199.73L168.788 197.379L166.437 193.306Z" fill="black"/>
<path d="M168.788 197.378L164.716 199.729L167.067 203.802L171.14 201.451L168.788 197.378Z" fill="black"/>
<path d="M175.843 209.596L171.77 211.947L174.121 216.02L178.194 213.669L175.843 209.596Z" fill="black"/>
<path d="M114.077 93.2102L110.004 95.5615L112.356 99.6342L116.428 97.2828L114.077 93.2102Z" fill="black"/>
<path d="M121.131 105.428L117.059 107.779L119.41 111.852L123.483 109.501L121.131 105.428Z" fill="black"/>
<path d="M123.482 109.5L119.41 111.852L121.761 115.924L125.834 113.573L123.482 109.5Z" fill="black"/>
<path d="M128.185 117.646L124.113 119.997L126.464 124.07L130.537 121.718L128.185 117.646Z" fill="black"/>
<path d="M144.645 146.154L140.572 148.506L142.924 152.579L146.996 150.227L144.645 146.154Z" fill="black"/>
<path d="M146.996 150.228L142.923 152.579L145.275 156.652L149.347 154.3L146.996 150.228Z" fill="black"/>
<path d="M158.753 170.591L154.68 172.942L157.032 177.015L161.104 174.664L158.753 170.591Z" fill="black"/>
<path d="M163.455 178.737L159.383 181.088L161.734 185.161L165.807 182.809L163.455 178.737Z" fill="black"/>
<path d="M165.807 182.809L161.734 185.16L164.086 189.233L168.158 186.881L165.807 182.809Z" fill="black"/>
<path d="M172.861 195.027L168.789 197.378L171.14 201.451L175.213 199.099L172.861 195.027Z" fill="black"/>
<path d="M175.212 199.1L171.14 201.451L173.491 205.524L177.564 203.172L175.212 199.1Z" fill="black"/>
<path d="M177.564 203.172L173.491 205.523L175.843 209.596L179.915 207.245L177.564 203.172Z" fill="black"/>
<path d="M179.915 207.244L175.843 209.596L178.194 213.668L182.267 211.317L179.915 207.244Z" fill="black"/>
<path d="M118.15 90.8586L114.077 93.21L116.429 97.2826L120.501 94.9313L118.15 90.8586Z" fill="black"/>
<path d="M122.852 99.0041L118.78 101.355L121.131 105.428L125.204 103.077L122.852 99.0041Z" fill="black"/>
<path d="M125.204 103.076L121.131 105.428L123.483 109.5L127.555 107.149L125.204 103.076Z" fill="black"/>
<path d="M127.555 107.15L123.482 109.501L125.834 113.574L129.906 111.222L127.555 107.15Z" fill="black"/>
<path d="M134.609 119.367L130.537 121.719L132.888 125.791L136.961 123.44L134.609 119.367Z" fill="black"/>
<path d="M139.312 127.513L135.239 129.864L137.591 133.937L141.663 131.586L139.312 127.513Z" fill="black"/>
<path d="M144.015 135.658L139.942 138.01L142.293 142.082L146.366 139.731L144.015 135.658Z" fill="black"/>
<path d="M146.366 139.731L142.293 142.082L144.645 146.155L148.717 143.803L146.366 139.731Z" fill="black"/>
<path d="M148.718 143.803L144.645 146.154L146.996 150.227L151.069 147.876L148.718 143.803Z" fill="black"/>
<path d="M158.123 160.094L154.05 162.445L156.402 166.518L160.474 164.167L158.123 160.094Z" fill="black"/>
<path d="M162.826 168.239L158.753 170.591L161.104 174.663L165.177 172.312L162.826 168.239Z" fill="black"/>
<path d="M169.88 180.457L165.807 182.809L168.158 186.881L172.231 184.53L169.88 180.457Z" fill="black"/>
<path d="M172.231 184.53L168.158 186.882L170.51 190.955L174.582 188.603L172.231 184.53Z" fill="black"/>
<path d="M176.934 192.675L172.861 195.026L175.213 199.099L179.285 196.748L176.934 192.675Z" fill="black"/>
<path d="M179.285 196.748L175.212 199.1L177.564 203.172L181.636 200.821L179.285 196.748Z" fill="black"/>
<path d="M181.637 200.821L177.564 203.172L179.915 207.245L183.988 204.893L181.637 200.821Z" fill="black"/>
<path d="M183.988 204.894L179.915 207.245L182.266 211.318L186.339 208.966L183.988 204.894Z" fill="black"/>
<path d="M122.223 88.507L118.15 90.8584L120.501 94.9311L124.574 92.5797L122.223 88.507Z" fill="black"/>
<path d="M124.574 92.5803L120.501 94.9316L122.852 99.0043L126.925 96.653L124.574 92.5803Z" fill="black"/>
<path d="M126.925 96.6525L122.853 99.0039L125.204 103.077L129.277 100.725L126.925 96.6525Z" fill="black"/>
<path d="M131.628 104.798L127.555 107.149L129.907 111.222L133.979 108.871L131.628 104.798Z" fill="black"/>
<path d="M133.979 108.87L129.907 111.222L132.258 115.294L136.331 112.943L133.979 108.87Z" fill="black"/>
<path d="M136.33 112.944L132.258 115.295L134.609 119.368L138.682 117.016L136.33 112.944Z" fill="black"/>
<path d="M143.385 125.161L139.312 127.513L141.663 131.585L145.736 129.234L143.385 125.161Z" fill="black"/>
<path d="M148.087 133.307L144.015 135.658L146.366 139.731L150.439 137.38L148.087 133.307Z" fill="black"/>
<path d="M155.142 145.525L151.069 147.876L153.42 151.949L157.493 149.597L155.142 145.525Z" fill="black"/>
<path d="M157.493 149.597L153.42 151.948L155.772 156.021L159.844 153.67L157.493 149.597Z" fill="black"/>
<path d="M162.196 157.742L158.123 160.094L160.474 164.166L164.547 161.815L162.196 157.742Z" fill="black"/>
<path d="M169.249 169.961L165.177 172.312L167.528 176.385L171.601 174.034L169.249 169.961Z" fill="black"/>
<path d="M171.601 174.033L167.528 176.385L169.88 180.457L173.952 178.106L171.601 174.033Z" fill="black"/>
<path d="M173.953 178.106L169.88 180.457L172.231 184.53L176.304 182.178L173.953 178.106Z" fill="black"/>
<path d="M176.304 182.179L172.231 184.53L174.582 188.603L178.655 186.252L176.304 182.179Z" fill="black"/>
<path d="M178.655 186.251L174.583 188.603L176.934 192.675L181.007 190.324L178.655 186.251Z" fill="black"/>
<path d="M185.709 198.469L181.637 200.82L183.988 204.893L188.061 202.542L185.709 198.469Z" fill="black"/>
<path d="M145.106 118.738L141.033 121.089L143.385 125.162L147.457 122.81L145.106 118.738Z" fill="black"/>
<path d="M149.809 126.883L145.736 129.234L148.087 133.307L152.16 130.956L149.809 126.883Z" fill="black"/>
<path d="M156.863 139.101L152.79 141.452L155.141 145.525L159.214 143.173L156.863 139.101Z" fill="black"/>
<path d="M173.322 167.61L169.25 169.961L171.601 174.034L175.674 171.682L173.322 167.61Z" fill="black"/>
<path d="M182.728 183.9L178.655 186.251L181.007 190.324L185.079 187.972L182.728 183.9Z" fill="black"/>
<path d="M192.133 200.191L188.061 202.542L190.412 206.615L194.485 204.263L192.133 200.191Z" fill="black"/>
<path d="M130.368 83.8049L126.295 86.1562L128.646 90.2289L132.719 87.8776L130.368 83.8049Z" fill="black"/>
<path d="M132.719 87.8772L128.646 90.2285L130.998 94.3012L135.071 91.9498L132.719 87.8772Z" fill="black"/>
<path d="M135.071 91.9494L130.998 94.3008L133.349 98.3735L137.422 96.0221L135.071 91.9494Z" fill="black"/>
<path d="M137.422 96.0227L133.349 98.374L135.7 102.447L139.773 100.095L137.422 96.0227Z" fill="black"/>
<path d="M139.773 100.095L135.701 102.446L138.052 106.519L142.125 104.168L139.773 100.095Z" fill="black"/>
<path d="M142.124 104.168L138.052 106.52L140.403 110.592L144.476 108.241L142.124 104.168Z" fill="black"/>
<path d="M144.476 108.24L140.403 110.592L142.755 114.664L146.827 112.313L144.476 108.24Z" fill="black"/>
<path d="M151.53 120.458L147.458 122.81L149.809 126.882L153.882 124.531L151.53 120.458Z" fill="black"/>
<path d="M153.881 124.531L149.809 126.883L152.16 130.955L156.233 128.604L153.881 124.531Z" fill="black"/>
<path d="M160.935 136.749L156.863 139.101L159.214 143.173L163.287 140.822L160.935 136.749Z" fill="black"/>
<path d="M163.287 140.821L159.214 143.173L161.566 147.246L165.638 144.894L163.287 140.821Z" fill="black"/>
<path d="M165.638 144.895L161.565 147.246L163.917 151.319L167.989 148.967L165.638 144.895Z" fill="black"/>
<path d="M170.341 153.04L166.268 155.392L168.619 159.464L172.692 157.113L170.341 153.04Z" fill="black"/>
<path d="M177.395 165.258L173.322 167.609L175.674 171.682L179.746 169.331L177.395 165.258Z" fill="black"/>
<path d="M182.098 173.404L178.025 175.755L180.376 179.828L184.449 177.476L182.098 173.404Z" fill="black"/>
<path d="M186.801 181.549L182.728 183.9L185.079 187.973L189.152 185.622L186.801 181.549Z" fill="black"/>
<path d="M191.503 189.694L187.431 192.045L189.782 196.118L193.855 193.766L191.503 189.694Z" fill="black"/>
<path d="M134.44 81.4533L130.368 83.8047L132.719 87.8774L136.792 85.526L134.44 81.4533Z" fill="black"/>
<path d="M148.549 105.889L144.476 108.24L146.827 112.313L150.9 109.962L148.549 105.889Z" fill="black"/>
<path d="M153.251 114.034L149.179 116.386L151.53 120.458L155.603 118.107L153.251 114.034Z" fill="black"/>
<path d="M155.603 118.108L151.53 120.459L153.882 124.532L157.954 122.18L155.603 118.108Z" fill="black"/>
<path d="M160.306 126.252L156.233 128.604L158.584 132.676L162.657 130.325L160.306 126.252Z" fill="black"/>
<path d="M167.36 138.471L163.287 140.822L165.638 144.895L169.711 142.544L167.36 138.471Z" fill="black"/>
<path d="M169.711 142.543L165.638 144.895L167.99 148.967L172.062 146.616L169.711 142.543Z" fill="black"/>
<path d="M172.062 146.615L167.99 148.967L170.341 153.039L174.414 150.688L172.062 146.615Z" fill="black"/>
<path d="M174.413 150.689L170.341 153.04L172.692 157.113L176.765 154.761L174.413 150.689Z" fill="black"/>
<path d="M176.765 154.761L172.692 157.112L175.044 161.185L179.116 158.834L176.765 154.761Z" fill="black"/>
<path d="M179.116 158.834L175.043 161.186L177.395 165.258L181.467 162.907L179.116 158.834Z" fill="black"/>
<path d="M181.468 162.906L177.395 165.258L179.746 169.33L183.819 166.979L181.468 162.906Z" fill="black"/>
<path d="M190.873 179.197L186.8 181.549L189.152 185.622L193.224 183.27L190.873 179.197Z" fill="black"/>
<path d="M193.225 183.27L189.152 185.621L191.503 189.694L195.576 187.342L193.225 183.27Z" fill="black"/>
<path d="M195.576 187.343L191.503 189.694L193.855 193.767L197.927 191.416L195.576 187.343Z" fill="black"/>
<path d="M197.927 191.415L193.854 193.767L196.206 197.839L200.279 195.488L197.927 191.415Z" fill="black"/>
<path d="M200.279 195.488L196.206 197.84L198.557 201.913L202.63 199.561L200.279 195.488Z" fill="black"/>
<path d="M138.513 79.1018L134.44 81.4531L136.792 85.5258L140.864 83.1744L138.513 79.1018Z" fill="black"/>
<path d="M143.216 87.2473L139.143 89.5986L141.494 93.6713L145.567 91.3199L143.216 87.2473Z" fill="black"/>
<path d="M145.567 91.3195L141.495 93.6709L143.846 97.7436L147.919 95.3922L145.567 91.3195Z" fill="black"/>
<path d="M147.918 95.3928L143.846 97.7441L146.197 101.817L150.27 99.4655L147.918 95.3928Z" fill="black"/>
<path d="M152.622 103.537L148.549 105.889L150.9 109.961L154.973 107.61L152.622 103.537Z" fill="black"/>
<path d="M159.675 115.756L155.603 118.107L157.954 122.18L162.027 119.829L159.675 115.756Z" fill="black"/>
<path d="M169.081 132.046L165.008 134.397L167.36 138.47L171.432 136.119L169.081 132.046Z" fill="black"/>
<path d="M173.784 140.192L169.711 142.543L172.062 146.616L176.135 144.264L173.784 140.192Z" fill="black"/>
<path d="M178.486 148.337L174.414 150.688L176.765 154.761L180.838 152.41L178.486 148.337Z" fill="black"/>
<path d="M183.189 156.483L179.116 158.834L181.468 162.907L185.54 160.555L183.189 156.483Z" fill="black"/>
<path d="M185.54 160.555L181.468 162.906L183.819 166.979L187.892 164.628L185.54 160.555Z" fill="black"/>
<path d="M187.892 164.628L183.819 166.979L186.17 171.052L190.243 168.701L187.892 164.628Z" fill="black"/>
<path d="M190.243 168.7L186.17 171.052L188.522 175.124L192.594 172.773L190.243 168.7Z" fill="black"/>
<path d="M192.595 172.774L188.522 175.125L190.873 179.198L194.946 176.846L192.595 172.774Z" fill="black"/>
<path d="M194.946 176.846L190.873 179.197L193.224 183.27L197.297 180.919L194.946 176.846Z" fill="black"/>
<path d="M199.648 184.991L195.576 187.343L197.927 191.415L202 189.064L199.648 184.991Z" fill="black"/>
<path d="M204.351 193.137L200.279 195.488L202.63 199.561L206.703 197.21L204.351 193.137Z" fill="black"/>
<path d="M142.586 76.7502L138.513 79.1016L140.865 83.1742L144.937 80.8229L142.586 76.7502Z" fill="black"/>
<path d="M147.288 84.8957L143.216 87.2471L145.567 91.3197L149.64 88.9684L147.288 84.8957Z" fill="black"/>
<path d="M149.64 88.968L145.567 91.3193L147.919 95.392L151.991 93.0407L149.64 88.968Z" fill="black"/>
<path d="M151.991 93.0412L147.918 95.3926L150.27 99.4653L154.342 97.1139L151.991 93.0412Z" fill="black"/>
<path d="M156.694 101.187L152.621 103.538L154.972 107.611L159.045 105.259L156.694 101.187Z" fill="black"/>
<path d="M161.397 109.332L157.324 111.684L159.676 115.756L163.748 113.405L161.397 109.332Z" fill="black"/>
<path d="M168.451 121.55L164.378 123.901L166.729 127.974L170.802 125.623L168.451 121.55Z" fill="black"/>
<path d="M170.802 125.622L166.729 127.974L169.081 132.046L173.154 129.695L170.802 125.622Z" fill="black"/>
<path d="M175.505 133.768L171.432 136.119L173.783 140.192L177.856 137.84L175.505 133.768Z" fill="black"/>
<path d="M180.207 141.913L176.135 144.265L178.486 148.337L182.559 145.986L180.207 141.913Z" fill="black"/>
<path d="M191.964 162.277L187.892 164.628L190.243 168.701L194.316 166.349L191.964 162.277Z" fill="black"/>
<path d="M194.316 166.349L190.243 168.7L192.595 172.773L196.667 170.422L194.316 166.349Z" fill="black"/>
<path d="M201.37 178.568L197.297 180.919L199.649 184.992L203.721 182.64L201.37 178.568Z" fill="black"/>
<path d="M203.721 182.64L199.648 184.991L202 189.064L206.072 186.713L203.721 182.64Z" fill="black"/>
<path d="M206.073 186.713L202 189.064L204.351 193.137L208.424 190.786L206.073 186.713Z" fill="black"/>
<path d="M208.424 190.785L204.351 193.137L206.702 197.209L210.775 194.858L208.424 190.785Z" fill="black"/>
<path d="M146.659 74.3986L142.586 76.75L144.937 80.8227L149.01 78.4713L146.659 74.3986Z" fill="black"/>
<path d="M151.361 82.5441L147.289 84.8955L149.64 88.9682L153.713 86.6168L151.361 82.5441Z" fill="black"/>
<path d="M153.713 86.6174L149.64 88.9688L151.991 93.0414L156.064 90.6901L153.713 86.6174Z" fill="black"/>
<path d="M156.064 90.6897L151.991 93.041L154.343 97.1137L158.415 94.7623L156.064 90.6897Z" fill="black"/>
<path d="M160.767 98.8352L156.694 101.187L159.045 105.259L163.118 102.908L160.767 98.8352Z" fill="black"/>
<path d="M174.875 123.271L170.802 125.622L173.154 129.695L177.226 127.343L174.875 123.271Z" fill="black"/>
<path d="M179.578 131.416L175.505 133.768L177.856 137.84L181.929 135.489L179.578 131.416Z" fill="black"/>
<path d="M184.28 139.562L180.208 141.913L182.559 145.986L186.632 143.634L184.28 139.562Z" fill="black"/>
<path d="M186.632 143.635L182.559 145.986L184.91 150.059L188.983 147.708L186.632 143.635Z" fill="black"/>
<path d="M188.983 147.707L184.91 150.059L187.262 154.131L191.334 151.78L188.983 147.707Z" fill="black"/>
<path d="M193.686 155.853L189.613 158.204L191.965 162.277L196.037 159.925L193.686 155.853Z" fill="black"/>
<path d="M196.037 159.925L191.964 162.276L194.316 166.349L198.388 163.998L196.037 159.925Z" fill="black"/>
<path d="M198.389 163.998L194.316 166.35L196.667 170.422L200.74 168.071L198.389 163.998Z" fill="black"/>
<path d="M203.091 172.143L199.019 174.494L201.37 178.567L205.443 176.215L203.091 172.143Z" fill="black"/>
<path d="M205.442 176.216L201.37 178.567L203.721 182.64L207.794 180.289L205.442 176.216Z" fill="black"/>
<path d="M207.794 180.288L203.721 182.64L206.073 186.712L210.145 184.361L207.794 180.288Z" fill="black"/>
<path d="M212.497 188.434L208.424 190.785L210.775 194.858L214.848 192.506L212.497 188.434Z" fill="black"/>
<path d="M150.731 72.0481L146.659 74.3994L149.01 78.4721L153.083 76.1207L150.731 72.0481Z" fill="black"/>
<path d="M164.839 96.4836L160.767 98.835L163.118 102.908L167.191 100.556L164.839 96.4836Z" fill="black"/>
<path d="M169.542 104.629L165.469 106.98L167.821 111.053L171.893 108.702L169.542 104.629Z" fill="black"/>
<path d="M176.596 116.847L172.523 119.198L174.875 123.271L178.947 120.92L176.596 116.847Z" fill="black"/>
<path d="M186.001 133.138L181.929 135.489L184.28 139.562L188.353 137.211L186.001 133.138Z" fill="black"/>
<path d="M195.407 149.429L191.334 151.78L193.686 155.853L197.759 153.502L195.407 149.429Z" fill="black"/>
<path d="M197.758 153.501L193.686 155.853L196.037 159.925L200.11 157.574L197.758 153.501Z" fill="black"/>
<path d="M200.11 157.573L196.037 159.925L198.388 163.997L202.461 161.646L200.11 157.573Z" fill="black"/>
<path d="M207.164 169.792L203.091 172.144L205.443 176.216L209.515 173.865L207.164 169.792Z" fill="black"/>
<path d="M209.515 173.864L205.442 176.216L207.794 180.288L211.866 177.937L209.515 173.864Z" fill="black"/>
<path d="M211.867 177.937L207.794 180.288L210.145 184.361L214.218 182.009L211.867 177.937Z" fill="black"/>
<path d="M214.218 182.01L210.145 184.361L212.496 188.434L216.569 186.083L214.218 182.01Z" fill="black"/>
<path d="M154.804 69.6965L150.731 72.0479L153.083 76.1205L157.155 73.7692L154.804 69.6965Z" fill="black"/>
<path d="M157.155 73.7688L153.083 76.1201L155.434 80.1928L159.507 77.8414L157.155 73.7688Z" fill="black"/>
<path d="M159.507 77.842L155.434 80.1934L157.785 84.266L161.858 81.9147L159.507 77.842Z" fill="black"/>
<path d="M161.858 81.9143L157.785 84.2656L160.137 88.3383L164.209 85.9869L161.858 81.9143Z" fill="black"/>
<path d="M164.209 85.9865L160.137 88.3379L162.488 92.4106L166.561 90.0592L164.209 85.9865Z" fill="black"/>
<path d="M166.56 90.0598L162.488 92.4111L164.839 96.4838L168.912 94.1324L166.56 90.0598Z" fill="black"/>
<path d="M168.912 94.132L164.839 96.4834L167.191 100.556L171.263 98.2047L168.912 94.132Z" fill="black"/>
<path d="M175.966 106.351L171.894 108.702L174.245 112.775L178.318 110.423L175.966 106.351Z" fill="black"/>
<path d="M185.372 122.641L181.299 124.992L183.65 129.065L187.723 126.714L185.372 122.641Z" fill="black"/>
<path d="M194.777 138.932L190.704 141.283L193.055 145.356L197.128 143.005L194.777 138.932Z" fill="black"/>
<path d="M201.831 151.15L197.758 153.501L200.11 157.574L204.182 155.222L201.831 151.15Z" fill="black"/>
<path d="M204.183 155.223L200.11 157.574L202.461 161.647L206.534 159.296L204.183 155.223Z" fill="black"/>
<path d="M208.885 163.367L204.812 165.719L207.164 169.791L211.237 167.44L208.885 163.367Z" fill="black"/>
<path d="M211.237 167.441L207.164 169.792L209.515 173.865L213.588 171.513L211.237 167.441Z" fill="black"/>
<path d="M213.588 171.513L209.515 173.864L211.866 177.937L215.939 175.586L213.588 171.513Z" fill="black"/>
</g>
<path d="M90.5 103L195 58L206.5 80L166 226L90.5 103Z" fill="#26BEC8" fill-opacity="0.5"/>
<rect x="175" y="49.5" width="61" height="122" rx="3" transform="rotate(-30 175 49.5)" fill="#040404"/>
<rect x="184.423" y="52.0312" width="48.1952" height="109.446" rx="3" transform="rotate(-30 184.423 52.0312)" fill="#B6B6B6"/>
<defs>
<clipPath id="clip0_838_308">
<rect x="11" y="131" width="174.001" height="174.001" rx="30" transform="rotate(-30 11 131)" fill="white"/>
</clipPath>
</defs>
</svg>
