<svg width="1920" height="1080" viewBox="0 0 1920 1080" fill="none" xmlns="http://www.w3.org/2000/svg">
<g clip-path="url(#clip0_610_124)">
<rect width="1920" height="1080" fill="#252525"/>
<path d="M539 0H1920V1080H1013L539 0Z" fill="#151515"/>
<g style="mix-blend-mode:lighten" opacity="0.5" clip-path="url(#clip1_610_124)">
<path fill-rule="evenodd" clip-rule="evenodd" d="M45.4542 720.448C47.175 717.896 50.6389 717.222 53.1911 718.943L56.2719 721.02C57.4555 721.818 58.2351 722.991 58.5593 724.274C59.8703 724.093 61.2499 724.376 62.4335 725.174L65.5143 727.251C68.0665 728.972 68.7405 732.436 67.0197 734.988L65.8038 736.791C66.4004 736.946 66.9814 737.203 67.5215 737.567L70.6023 739.644C73.1545 741.365 73.8285 744.829 72.1077 747.381L64.8376 758.164L69.1565 761.076C71.8791 762.911 72.4327 766.691 70.3509 769.23L35.082 812.252C34.4315 813.045 33.2609 813.161 32.4674 812.511C31.6739 811.86 31.558 810.69 32.2085 809.896L67.4775 766.875C68.1714 766.028 67.9868 764.768 67.0793 764.157L62.6505 761.171C61.6015 762.215 60.2361 762.925 58.6878 763.328C56.683 763.85 54.3491 763.87 51.8618 763.476C49.3643 763.081 46.6895 762.267 43.9908 761.102C41.2892 759.937 38.5923 758.432 36.0527 756.678C33.5132 754.923 31.1673 752.945 29.1527 750.852C27.1407 748.762 25.4783 746.577 24.2856 744.414C23.0982 742.261 22.3611 740.101 22.2358 738.071C22.1535 736.738 22.3375 735.463 22.8204 734.316L18.3915 731.33C17.4839 730.718 16.2468 731.019 15.7223 731.98L-9.31446 777.837C-9.77395 778.679 -9.51746 779.732 -8.72244 780.268L26.9819 804.341C27.8326 804.914 28.0573 806.069 27.4837 806.92C26.9101 807.77 25.7554 807.995 24.9047 807.421L-10.7996 783.348C-13.1847 781.74 -13.9541 778.581 -12.5757 776.056L12.4611 730.199C14.0346 727.317 17.7461 726.413 20.4686 728.249L24.7875 731.161L32.0575 720.378C33.7783 717.826 37.2423 717.152 39.7945 718.873L42.8752 720.95C43.4154 721.314 43.8714 721.756 44.2383 722.251L45.4542 720.448ZM27.0003 734.525C26.9338 734.671 26.8474 734.81 26.7406 734.939C26.1862 735.608 25.8644 736.546 25.9443 737.842C26.026 739.164 26.5281 740.786 27.5393 742.62C27.9474 743.36 28.4289 744.117 28.9796 744.883L41.2999 726.61C41.8735 725.759 41.6488 724.604 40.7981 724.031L37.7173 721.953C36.8666 721.38 35.7119 721.604 35.1383 722.455L27.0003 734.525ZM31.3197 747.734C31.4863 747.915 31.6563 748.095 31.8297 748.275C33.3704 749.876 35.1398 751.418 37.0622 752.834L54.6966 726.679C55.2702 725.829 55.0455 724.674 54.1948 724.1L51.114 722.023C50.2632 721.45 49.1086 721.674 48.535 722.525L31.9177 747.171C31.7573 747.409 31.5516 747.598 31.3197 747.734ZM40.143 754.911C41.8876 755.985 43.6801 756.922 45.4631 757.691C45.9291 757.892 46.3918 758.081 46.8501 758.256L63.9389 732.911C64.5125 732.06 64.2878 730.906 63.4371 730.332L60.3563 728.255C59.5056 727.681 58.3509 727.906 57.7773 728.757L40.143 754.911ZM50.545 759.423C51.1947 759.581 51.8282 759.709 52.4421 759.806C54.589 760.146 56.381 760.089 57.7512 759.733C59.1003 759.381 59.9458 758.768 60.4326 758.051L69.0269 745.304C69.6005 744.453 69.3759 743.299 68.5251 742.725L65.4443 740.648C64.5936 740.074 63.439 740.299 62.8654 741.15L50.545 759.423Z" fill="#C2C535"/>
<path d="M29.198 781.892C32.7215 779.788 33.8719 775.226 31.7674 771.702C29.6629 768.178 25.1005 767.028 21.577 769.133C18.0534 771.237 16.9031 775.799 19.0076 779.323C19.5337 780.204 19.2461 781.344 18.3652 781.871C17.4843 782.397 16.3437 782.109 15.8176 781.228C12.6609 775.943 14.3864 769.099 19.6717 765.943C24.957 762.786 31.8006 764.511 34.9573 769.797C38.1141 775.082 36.3885 781.926 31.1032 785.082C28.5224 786.624 25.5658 787.001 22.8544 786.368C21.8553 786.134 21.2344 785.135 21.4676 784.136C21.7009 783.137 22.6999 782.516 23.6991 782.749C25.5108 783.172 27.4764 782.921 29.198 781.892Z" fill="#C2C535"/>
</g>
<g style="mix-blend-mode:lighten" opacity="0.5">
<path fill-rule="evenodd" clip-rule="evenodd" d="M552.482 324.283C553.559 321.399 556.77 319.935 559.654 321.013L563.134 322.313C564.471 322.813 565.503 323.771 566.118 324.943C567.351 324.462 568.758 324.415 570.095 324.914L573.576 326.215C576.459 327.292 577.923 330.503 576.846 333.387L576.085 335.424C576.701 335.435 577.326 335.549 577.936 335.777L581.417 337.078C584.3 338.155 585.764 341.366 584.686 344.249L580.134 356.431L585.014 358.255C588.09 359.404 589.51 362.95 588.079 365.905L563.828 415.971C563.38 416.895 562.269 417.281 561.346 416.833C560.422 416.386 560.036 415.275 560.484 414.351L584.735 364.285C585.212 363.3 584.738 362.118 583.713 361.735L578.71 359.866C577.933 361.126 576.772 362.135 575.36 362.889C573.533 363.864 571.268 364.428 568.757 364.626C566.237 364.825 563.446 364.658 560.55 364.155C557.65 363.652 554.677 362.819 551.798 361.706C548.919 360.593 546.176 359.217 543.729 357.652C541.284 356.089 539.158 354.353 537.493 352.528C535.836 350.712 534.615 348.784 534.019 346.839C533.628 345.562 533.509 344.279 533.711 343.051L528.707 341.181C527.682 340.798 526.549 341.38 526.264 342.437L512.624 392.871C512.373 393.797 512.869 394.761 513.767 395.097L554.104 410.17C555.066 410.529 555.554 411.599 555.194 412.56C554.835 413.521 553.765 414.009 552.804 413.65L512.466 398.577C509.772 397.57 508.286 394.678 509.037 391.901L522.677 341.467C523.534 338.297 526.932 336.551 530.008 337.701L534.887 339.524L539.439 327.342C540.517 324.459 543.727 322.995 546.611 324.072L550.091 325.373C550.702 325.601 551.248 325.924 551.721 326.32L552.482 324.283ZM537.824 342.279C537.794 342.436 537.742 342.591 537.668 342.741C537.285 343.522 537.192 344.509 537.572 345.75C537.96 347.017 538.827 348.477 540.238 350.024C540.808 350.648 541.453 351.272 542.167 351.888L549.881 331.244C550.24 330.283 549.752 329.212 548.791 328.853L545.31 327.553C544.349 327.193 543.279 327.681 542.92 328.643L537.824 342.279ZM545.108 354.115C545.312 354.251 545.519 354.387 545.73 354.522C547.602 355.718 549.682 356.805 551.882 357.733L562.924 328.184C563.283 327.223 562.795 326.153 561.834 325.794L558.353 324.493C557.392 324.134 556.322 324.622 555.963 325.583L545.558 353.428C545.458 353.696 545.302 353.928 545.108 354.115ZM555.363 359.034C557.31 359.67 559.272 360.163 561.185 360.495C561.685 360.581 562.179 360.657 562.666 360.721L573.365 332.086C573.725 331.125 573.237 330.055 572.275 329.695L568.795 328.395C567.834 328.036 566.763 328.524 566.404 329.485L555.363 359.034ZM566.531 360.992C567.199 360.994 567.845 360.971 568.465 360.922C570.632 360.751 572.361 360.278 573.61 359.611C574.84 358.954 575.519 358.161 575.825 357.35L581.206 342.949C581.565 341.988 581.077 340.917 580.116 340.558L576.635 339.258C575.674 338.899 574.604 339.387 574.245 340.348L566.531 360.992Z" fill="#C2C535"/>
<path d="M551.019 387.824C553.954 384.955 554.007 380.25 551.138 377.316C548.269 374.381 543.565 374.327 540.63 377.196C537.695 380.065 537.641 384.77 540.51 387.705C541.227 388.438 541.214 389.615 540.48 390.332C539.747 391.049 538.57 391.036 537.853 390.302C533.55 385.9 533.63 378.842 538.032 374.539C542.435 370.236 549.492 370.316 553.795 374.718C558.099 379.121 558.019 386.178 553.616 390.481C551.466 392.583 548.68 393.639 545.895 393.657C544.869 393.663 544.032 392.837 544.026 391.811C544.019 390.785 544.846 389.948 545.872 389.941C547.732 389.93 549.585 389.226 551.019 387.824Z" fill="#C2C535"/>
</g>
<g style="mix-blend-mode:lighten" opacity="0.5">
<path fill-rule="evenodd" clip-rule="evenodd" d="M682.205 778.958C683.635 774.194 687.953 771.28 691.849 772.449L725.712 782.612C729.608 783.782 731.608 788.592 730.178 793.356L730.113 793.573C732.317 795.07 733.305 798.311 732.34 801.527C731.374 804.747 728.758 806.91 726.09 806.94C726.064 807.07 726.027 807.201 725.976 807.33L704.787 861.149C704.423 862.073 703.523 862.554 702.777 862.225C702.031 861.895 701.721 860.879 702.085 859.955L723.207 806.308L680.892 793.608L669.653 846.843C669.463 847.745 669.868 848.597 670.592 848.814L695.876 856.402C696.655 856.636 697.055 857.598 696.769 858.551C696.483 859.504 695.619 860.086 694.84 859.853L669.556 852.264C667.385 851.613 666.169 849.059 666.741 846.352L678.018 792.937C678.046 792.801 678.087 792.671 678.138 792.548C675.927 791.054 674.935 787.808 675.901 784.588C676.866 781.373 679.476 779.211 682.14 779.175L682.205 778.958ZM724.677 786.063C727.014 786.764 728.214 789.65 727.356 792.509L685.027 779.805C685.885 776.946 688.476 775.198 690.813 775.9L724.677 786.063ZM682.581 782.832L727.732 796.382C729.29 796.85 730.09 798.774 729.518 800.68C728.946 802.585 727.219 803.751 725.661 803.283L680.51 789.732C678.951 789.264 678.151 787.34 678.723 785.435C679.295 783.529 681.022 782.364 682.581 782.832Z" fill="#C2C535"/>
<path d="M688.121 825.867C689.265 822.056 692.719 819.724 695.836 820.66C698.953 821.595 700.553 825.443 699.409 829.254C698.549 832.12 696.381 834.153 694.028 834.583C693.199 834.735 692.557 835.644 692.593 836.613C692.63 837.582 693.332 838.245 694.161 838.093C697.683 837.449 700.939 834.407 702.231 830.101C703.947 824.385 701.547 818.613 696.872 817.21C692.196 815.806 687.015 819.303 685.299 825.02C683.946 829.529 685.154 834.069 688.014 836.475C688.653 837.013 689.601 836.784 690.13 835.964C690.659 835.143 690.57 834.042 689.931 833.504C688.021 831.898 687.22 828.869 688.121 825.867Z" fill="#C2C535"/>
</g>
<g style="mix-blend-mode:lighten" opacity="0.5">
<path fill-rule="evenodd" clip-rule="evenodd" d="M153.964 198.214C152.554 195.893 149.669 195.07 147.52 196.375L141.01 200.329C140.012 199.17 138.929 198.095 137.774 197.12C135.384 195.102 132.727 193.547 129.952 192.553C127.176 191.559 124.332 191.144 121.584 191.345C119.884 191.47 118.244 191.829 116.699 192.413L115.703 190.772C114.763 189.225 112.839 188.676 111.406 189.546L108.812 191.122C107.379 191.992 106.979 193.952 107.919 195.5L108.769 196.9C108.743 196.917 108.716 196.934 108.69 196.952L73.6928 221.563C71.7248 222.947 71.2418 225.755 72.5898 227.974L86.4178 250.742C86.8877 251.516 87.8494 251.79 88.5659 251.355C89.2824 250.92 89.4823 249.94 89.0125 249.166L75.1845 226.398C74.7351 225.658 74.8961 224.722 75.5521 224.261L103.006 204.955L121.403 235.247C121.873 236.02 122.835 236.295 123.551 235.859C124.268 235.424 124.468 234.444 123.998 233.671L105.495 203.205L110.472 199.705L132.588 236.119L92.0571 256.909C91.3109 257.292 91.0474 258.251 91.4686 259.052C91.8897 259.853 92.836 260.192 93.5822 259.809L134.204 238.973C134.234 238.958 134.263 238.941 134.292 238.924L135.143 240.325C136.082 241.872 138.006 242.421 139.439 241.55L142.033 239.974C143.466 239.104 143.866 237.144 142.927 235.597L141.93 233.956C143.16 232.855 144.235 231.565 145.13 230.114C146.576 227.768 147.518 225.054 147.916 222.132C148.314 219.21 148.159 216.136 147.47 213.084C147.137 211.61 146.683 210.154 146.115 208.733L152.624 204.78C154.774 203.475 155.373 200.535 153.964 198.214ZM144.722 205.744L150.923 201.979C151.639 201.543 151.839 200.564 151.369 199.79C150.899 199.016 149.938 198.742 149.221 199.177L143.021 202.943C143.329 203.393 143.625 203.853 143.91 204.32C144.194 204.788 144.465 205.263 144.722 205.744ZM140.421 204.522C140.732 204.97 141.03 205.428 141.315 205.896C141.599 206.365 141.869 206.841 142.122 207.323L130.165 214.585L128.464 211.784L140.421 204.522ZM138.368 201.934C137.6 201.082 136.779 200.286 135.915 199.556C133.818 197.786 131.507 196.439 129.119 195.584C126.732 194.729 124.317 194.383 122.012 194.552C120.769 194.643 119.569 194.883 118.431 195.265L126.762 208.982L138.368 201.934ZM131.867 217.387L143.473 210.338C143.874 211.413 144.202 212.507 144.451 213.611C145.055 216.288 145.185 218.96 144.843 221.473C144.501 223.986 143.695 226.288 142.481 228.256C141.828 229.317 141.061 230.27 140.198 231.104L131.867 217.387ZM113.108 192.348L140.332 237.173L137.737 238.749L110.513 193.924L113.108 192.348Z" fill="#C2C535"/>
<path fill-rule="evenodd" clip-rule="evenodd" d="M109.812 230.782C107.663 232.087 104.778 231.264 103.368 228.943C101.958 226.622 102.558 223.682 104.708 222.377C106.857 221.071 109.742 221.895 111.152 224.215C112.561 226.536 111.962 229.476 109.812 230.782ZM108.111 227.98C107.394 228.415 106.432 228.141 105.963 227.367C105.493 226.593 105.693 225.614 106.409 225.178C107.126 224.743 108.087 225.018 108.557 225.791C109.027 226.565 108.827 227.545 108.111 227.98Z" fill="#C2C535"/>
<path fill-rule="evenodd" clip-rule="evenodd" d="M97.2803 231.413C95.1308 232.718 92.2457 231.895 90.8361 229.574C89.4265 227.253 90.0264 224.314 92.1758 223.008C94.3253 221.703 97.2105 222.526 98.6201 224.847C100.03 227.168 99.4298 230.107 97.2803 231.413ZM95.5788 228.611C94.8623 229.047 93.9006 228.772 93.4308 227.999C92.9609 227.225 93.1608 226.245 93.8773 225.81C94.5938 225.375 95.5556 225.649 96.0254 226.423C96.4953 227.196 96.2953 228.176 95.5788 228.611Z" fill="#C2C535"/>
<path fill-rule="evenodd" clip-rule="evenodd" d="M85.4561 231.615C83.3066 232.92 80.4214 232.097 79.0119 229.776C77.6023 227.455 78.2021 224.516 80.3516 223.21C82.5011 221.905 85.3863 222.728 86.7958 225.049C88.2054 227.37 87.6056 230.309 85.4561 231.615ZM83.7546 228.813C83.0381 229.248 82.0764 228.974 81.6065 228.2C81.1367 227.427 81.3366 226.447 82.0531 226.012C82.7696 225.576 83.7313 225.851 84.2012 226.624C84.671 227.398 84.4711 228.378 83.7546 228.813Z" fill="#C2C535"/>
<path fill-rule="evenodd" clip-rule="evenodd" d="M91.6434 241.802C89.4939 243.108 86.6087 242.285 85.1991 239.964C83.7896 237.643 84.3894 234.703 86.5389 233.398C88.6884 232.092 91.5735 232.915 92.9831 235.236C94.3927 237.557 93.7928 240.497 91.6434 241.802ZM89.9419 239.001C89.2254 239.436 88.2636 239.161 87.7938 238.388C87.3239 237.614 87.5239 236.634 88.2404 236.199C88.9569 235.764 89.9186 236.038 90.3884 236.812C90.8583 237.586 90.6584 238.565 89.9419 239.001Z" fill="#C2C535"/>
<path fill-rule="evenodd" clip-rule="evenodd" d="M91.3864 250.151C92.7959 252.472 95.6811 253.295 97.8306 251.99C99.9801 250.684 100.58 247.744 99.1704 245.424C97.7608 243.103 94.8756 242.28 92.7261 243.585C90.5766 244.89 89.9768 247.83 91.3864 250.151ZM93.981 248.575C94.4509 249.349 95.4126 249.623 96.1291 249.188C96.8456 248.753 97.0456 247.773 96.5757 246.999C96.1058 246.226 95.1441 245.951 94.4276 246.387C93.7111 246.822 93.5112 247.802 93.981 248.575Z" fill="#C2C535"/>
<path fill-rule="evenodd" clip-rule="evenodd" d="M97.0234 239.762C98.4329 242.083 101.318 242.906 103.468 241.6C105.617 240.295 106.217 237.355 104.807 235.034C103.398 232.713 100.513 231.89 98.3631 233.196C96.2136 234.501 95.6138 237.441 97.0234 239.762ZM99.618 238.186C100.088 238.96 101.05 239.234 101.766 238.799C102.483 238.364 102.683 237.384 102.213 236.61C101.743 235.837 100.781 235.562 100.065 235.997C99.3481 236.432 99.1482 237.412 99.618 238.186Z" fill="#C2C535"/>
</g>
<g style="mix-blend-mode:lighten" opacity="0.5">
<g clip-path="url(#clip2_610_124)">
<path fill-rule="evenodd" clip-rule="evenodd" d="M298.103 483.222C299.234 486.085 297.831 489.322 294.968 490.454C292.106 491.585 288.868 490.182 287.737 487.319C286.605 484.456 288.009 481.219 290.871 480.087C293.734 478.956 296.972 480.359 298.103 483.222ZM294.648 484.588C295.025 485.542 294.557 486.621 293.603 486.998C292.648 487.375 291.569 486.908 291.192 485.953C290.815 484.999 291.283 483.92 292.237 483.543C293.191 483.166 294.27 483.633 294.648 484.588Z" fill="#C2C535"/>
<path fill-rule="evenodd" clip-rule="evenodd" d="M290.106 498.369C291.237 501.231 289.834 504.469 286.971 505.6C284.109 506.732 280.871 505.328 279.739 502.466C278.608 499.603 280.011 496.365 282.874 495.234C285.737 494.102 288.975 495.506 290.106 498.369ZM286.65 499.734C287.028 500.688 286.56 501.768 285.606 502.145C284.651 502.522 283.572 502.054 283.195 501.1C282.818 500.146 283.286 499.066 284.24 498.689C285.194 498.312 286.273 498.78 286.65 499.734Z" fill="#C2C535"/>
<path fill-rule="evenodd" clip-rule="evenodd" d="M303.163 511.187C306.025 510.055 307.429 506.818 306.297 503.955C305.166 501.092 301.928 499.689 299.066 500.82C296.203 501.952 294.799 505.19 295.931 508.052C297.062 510.915 300.3 512.318 303.163 511.187ZM302.842 505.321C303.219 506.275 302.751 507.354 301.797 507.731C300.843 508.109 299.764 507.641 299.386 506.686C299.009 505.732 299.477 504.653 300.431 504.276C301.385 503.899 302.465 504.367 302.842 505.321Z" fill="#C2C535"/>
<path fill-rule="evenodd" clip-rule="evenodd" d="M314.295 488.808C315.426 491.671 314.023 494.909 311.16 496.04C308.297 497.172 305.059 495.768 303.928 492.906C302.797 490.043 304.2 486.805 307.063 485.674C309.925 484.542 313.163 485.946 314.295 488.808ZM310.839 490.174C311.216 491.128 310.748 492.208 309.794 492.585C308.84 492.962 307.761 492.494 307.384 491.54C307.006 490.586 307.474 489.506 308.428 489.129C309.383 488.752 310.462 489.22 310.839 490.174Z" fill="#C2C535"/>
<path fill-rule="evenodd" clip-rule="evenodd" d="M246.88 439.542C245.925 439.919 245.458 440.999 245.835 441.953C246.212 442.907 247.291 443.375 248.245 442.998L262.067 437.535C264.93 436.403 268.168 437.807 269.299 440.67L274.079 452.764L255.074 460.275C252.211 461.407 250.808 464.645 251.939 467.507L253.305 470.963C254.204 473.237 256.433 474.591 258.747 474.483L280.43 524.368C281.628 527.124 284.795 528.434 287.59 527.33L325.564 512.322C328.359 511.217 329.774 508.096 328.764 505.265L309.97 452.596L307.228 445.656C306.096 442.793 302.858 441.39 299.996 442.521L277.535 451.398L272.755 439.304C270.869 434.533 265.473 432.194 260.702 434.079L246.88 439.542ZM256.44 463.731L301.361 445.976C302.316 445.599 303.395 446.067 303.772 447.021L306.492 453.903L308.796 460.36C308.238 460.46 307.617 460.591 306.953 460.762C304.371 461.427 301.014 462.731 298.276 465.318C293.774 469.57 288.474 471.665 282.281 471.639C276.096 471.614 269.312 473.963 264.23 477.777L262.324 473.391L296.82 459.757C297.774 459.38 298.242 458.301 297.865 457.347C297.488 456.393 296.408 455.925 295.454 456.302L259.171 470.642C258.217 471.019 257.138 470.551 256.76 469.597L255.395 466.141C255.018 465.187 255.485 464.108 256.44 463.731ZM307.88 464.36C308.704 464.148 309.452 464.008 310.065 463.916L325.265 506.514C325.602 507.457 325.13 508.498 324.198 508.866L286.225 523.874C285.293 524.243 284.237 523.806 283.838 522.887L265.759 481.295C270.248 477.65 276.606 475.331 282.266 475.355C289.413 475.384 295.631 472.926 300.827 468.019C302.937 466.026 305.627 464.94 307.88 464.36Z" fill="#C2C535"/>
</g>
</g>
<g style="mix-blend-mode:lighten" opacity="0.5">
<path fill-rule="evenodd" clip-rule="evenodd" d="M396.29 963.698C391.928 962.285 387.821 966.45 389.295 970.792L410.376 1032.89C410.706 1033.87 411.761 1034.39 412.733 1034.06C413.704 1033.73 414.225 1032.67 413.895 1031.7L392.813 969.597C392.322 968.15 393.691 966.762 395.145 967.233L462.243 988.973C463.553 989.397 463.962 991.049 463.002 992.036L417.925 1038.33C415.778 1040.54 415.825 1044.07 418.031 1046.22L422.69 1050.75C424.895 1052.9 428.424 1052.85 430.571 1050.65L478.386 1001.53C479.893 999.987 479.86 997.511 478.312 996.005L473.127 990.957C472.392 990.241 471.216 990.257 470.5 990.992C469.785 991.727 469.8 992.903 470.536 993.619L475.72 998.667C475.797 998.742 475.799 998.866 475.724 998.943L427.909 1048.05C427.193 1048.79 426.017 1048.81 425.281 1048.09L420.623 1043.55C419.887 1042.84 419.872 1041.66 420.587 1040.93L465.664 994.628C468.546 991.668 467.319 986.711 463.389 985.438L396.29 963.698ZM416.557 985.145C418.027 986.576 418.059 988.928 416.627 990.399C415.196 991.869 412.843 991.901 411.373 990.469C409.903 989.038 409.871 986.685 411.303 985.215C412.734 983.745 415.087 983.713 416.557 985.145ZM424.754 1008.68C426.225 1010.11 426.256 1012.47 424.825 1013.94C423.393 1015.41 421.041 1015.44 419.571 1014.01C418.1 1012.58 418.069 1010.22 419.5 1008.75C420.932 1007.28 423.284 1007.25 424.754 1008.68ZM440.306 992.71C441.777 994.141 441.808 996.494 440.377 997.964C438.945 999.434 436.593 999.466 435.122 998.034C433.652 996.603 433.621 994.25 435.052 992.78C436.484 991.31 438.836 991.278 440.306 992.71ZM442.898 990.047C445.839 992.91 445.902 997.615 443.039 1000.56C440.176 1003.5 435.471 1003.56 432.53 1000.7C429.59 997.833 429.527 993.129 432.39 990.188C435.253 987.247 439.958 987.184 442.898 990.047ZM427.487 1016.53C430.35 1013.59 430.287 1008.88 427.346 1006.02C424.406 1003.16 419.701 1003.22 416.838 1006.16C413.975 1009.1 414.038 1013.81 416.979 1016.67C419.919 1019.53 424.624 1019.47 427.487 1016.53ZM419.289 992.991C422.152 990.05 422.09 985.345 419.149 982.482C416.208 979.619 411.503 979.682 408.64 982.623C405.777 985.564 405.84 990.268 408.781 993.131C411.722 995.994 416.426 995.931 419.289 992.991Z" fill="#C2C535"/>
</g>
<g style="mix-blend-mode:lighten" opacity="0.5">
<path fill-rule="evenodd" clip-rule="evenodd" d="M1548.02 931.21C1551.07 931.608 1553.22 934.405 1552.82 937.458C1552.42 940.51 1549.63 942.661 1546.58 942.263C1543.52 941.865 1541.37 939.068 1541.77 936.015C1542.17 932.963 1544.97 930.812 1548.02 931.21ZM1547.54 934.894C1548.55 935.027 1549.27 935.96 1549.14 936.977C1549.01 937.994 1548.07 938.712 1547.06 938.579C1546.04 938.446 1545.32 937.514 1545.45 936.496C1545.59 935.479 1546.52 934.762 1547.54 934.894Z" fill="#DE2C20"/>
<path fill-rule="evenodd" clip-rule="evenodd" d="M1557.39 945.548C1560.44 945.946 1562.59 948.743 1562.19 951.795C1561.8 954.848 1559 956.999 1555.95 956.601C1552.89 956.203 1550.74 953.405 1551.14 950.353C1551.54 947.301 1554.34 945.149 1557.39 945.548ZM1556.91 949.232C1557.92 949.365 1558.64 950.297 1558.51 951.315C1558.38 952.332 1557.44 953.049 1556.43 952.916C1555.41 952.784 1554.69 951.851 1554.82 950.834C1554.96 949.816 1555.89 949.099 1556.91 949.232Z" fill="#DE2C20"/>
<path fill-rule="evenodd" clip-rule="evenodd" d="M1574.93 940.342C1575.33 937.29 1573.18 934.493 1570.12 934.095C1567.07 933.696 1564.27 935.848 1563.88 938.9C1563.48 941.952 1565.63 944.75 1568.68 945.148C1571.73 945.546 1574.53 943.395 1574.93 940.342ZM1569.64 937.779C1570.66 937.912 1571.38 938.844 1571.25 939.862C1571.11 940.879 1570.18 941.596 1569.16 941.463C1568.15 941.331 1567.43 940.398 1567.56 939.381C1567.69 938.363 1568.63 937.646 1569.64 937.779Z" fill="#DE2C20"/>
<path fill-rule="evenodd" clip-rule="evenodd" d="M1560.75 919.757C1563.81 920.155 1565.96 922.952 1565.56 926.005C1565.16 929.057 1562.36 931.208 1559.31 930.81C1556.26 930.412 1554.11 927.615 1554.51 924.562C1554.9 921.51 1557.7 919.359 1560.75 919.757ZM1560.27 923.441C1561.29 923.574 1562.01 924.507 1561.87 925.524C1561.74 926.541 1560.81 927.259 1559.79 927.126C1558.77 926.993 1558.06 926.061 1558.19 925.043C1558.32 924.026 1559.26 923.309 1560.27 923.441Z" fill="#DE2C20"/>
<path fill-rule="evenodd" clip-rule="evenodd" d="M1484.98 954.835C1484.85 955.852 1485.57 956.785 1486.58 956.917C1487.6 957.05 1488.53 956.333 1488.67 955.316L1490.59 940.578C1490.99 937.526 1493.78 935.374 1496.84 935.773L1509.73 937.455L1507.09 957.719C1506.69 960.772 1508.84 963.569 1511.89 963.967L1515.58 964.448C1518 964.764 1520.27 963.471 1521.29 961.395L1575.44 966.615C1578.43 966.904 1581.11 964.769 1581.5 961.789L1586.78 921.3C1587.17 918.32 1585.13 915.569 1582.16 915.08L1526.98 905.983L1519.59 905.017C1516.53 904.619 1513.74 906.77 1513.34 909.822L1510.21 933.771L1497.32 932.088C1492.23 931.424 1487.57 935.01 1486.9 940.097L1484.98 954.835ZM1510.77 958.2L1517.02 910.303C1517.15 909.286 1518.09 908.569 1519.1 908.701L1526.44 909.659L1533.21 910.774C1533.02 911.311 1532.84 911.917 1532.66 912.58C1531.99 915.161 1531.51 918.73 1532.44 922.379C1533.98 928.378 1533.24 934.029 1530.22 939.433C1527.2 944.83 1525.96 951.903 1526.83 958.196L1522.07 957.737L1526.87 920.957C1527.01 919.939 1526.29 919.007 1525.27 918.874C1524.25 918.741 1523.32 919.458 1523.19 920.476L1518.14 959.162C1518.01 960.179 1517.08 960.896 1516.06 960.764L1512.37 960.283C1511.36 960.15 1510.64 959.218 1510.77 958.2ZM1536.26 913.515C1536.47 912.691 1536.71 911.969 1536.93 911.388L1581.56 918.746C1582.55 918.909 1583.23 919.826 1583.1 920.819L1577.81 961.308C1577.68 962.301 1576.79 963.013 1575.79 962.917L1530.65 958.564C1529.64 952.871 1530.69 946.186 1533.46 941.247C1536.95 935.011 1537.81 928.38 1536.04 921.457C1535.32 918.645 1535.68 915.766 1536.26 913.515Z" fill="#DE2C20"/>
</g>
<g style="mix-blend-mode:lighten" opacity="0.5">
<path fill-rule="evenodd" clip-rule="evenodd" d="M1416.17 452.834C1415.45 455.828 1412.44 457.675 1409.45 456.96C1406.46 456.245 1404.61 453.238 1405.32 450.244C1406.04 447.25 1409.05 445.403 1412.04 446.118C1415.03 446.833 1416.88 449.84 1416.17 452.834ZM1412.55 451.97C1412.31 452.968 1411.31 453.584 1410.31 453.346C1409.32 453.107 1408.7 452.105 1408.94 451.107C1409.18 450.109 1410.18 449.493 1411.18 449.732C1412.17 449.97 1412.79 450.972 1412.55 451.97Z" fill="#DE2C20"/>
<path fill-rule="evenodd" clip-rule="evenodd" d="M1400.93 460.654C1400.21 463.648 1397.21 465.495 1394.21 464.78C1391.22 464.065 1389.37 461.058 1390.09 458.064C1390.8 455.07 1393.81 453.223 1396.8 453.938C1399.8 454.653 1401.64 457.66 1400.93 460.654ZM1397.31 459.791C1397.08 460.789 1396.07 461.405 1395.07 461.166C1394.08 460.928 1393.46 459.926 1393.7 458.928C1393.94 457.93 1394.94 457.314 1395.94 457.552C1396.94 457.791 1397.55 458.793 1397.31 459.791Z" fill="#DE2C20"/>
<path fill-rule="evenodd" clip-rule="evenodd" d="M1404.27 478.643C1407.26 479.359 1410.27 477.511 1410.99 474.517C1411.7 471.523 1409.85 468.517 1406.86 467.802C1403.87 467.086 1400.86 468.934 1400.14 471.928C1399.43 474.921 1401.28 477.928 1404.27 478.643ZM1407.37 473.654C1407.13 474.652 1406.13 475.268 1405.13 475.029C1404.14 474.791 1403.52 473.789 1403.76 472.791C1404 471.793 1405 471.177 1406 471.416C1407 471.654 1407.61 472.656 1407.37 473.654Z" fill="#DE2C20"/>
<path fill-rule="evenodd" clip-rule="evenodd" d="M1426.22 466.697C1425.51 469.691 1422.5 471.538 1419.51 470.823C1416.52 470.108 1414.67 467.101 1415.38 464.107C1416.1 461.113 1419.11 459.266 1422.1 459.981C1425.09 460.696 1426.94 463.703 1426.22 466.697ZM1422.61 465.834C1422.37 466.832 1421.37 467.447 1420.37 467.209C1419.37 466.971 1418.76 465.968 1419 464.97C1419.24 463.972 1420.24 463.357 1421.24 463.595C1422.23 463.834 1422.85 464.836 1422.61 465.834Z" fill="#DE2C20"/>
<path fill-rule="evenodd" clip-rule="evenodd" d="M1399.26 387.673C1398.26 387.434 1397.26 388.05 1397.02 389.048C1396.78 390.046 1397.4 391.048 1398.4 391.287L1412.85 394.74C1415.85 395.455 1417.69 398.462 1416.98 401.456L1413.96 414.104L1394.08 409.356C1391.09 408.641 1388.08 410.489 1387.36 413.483L1386.5 417.096C1385.93 419.475 1386.98 421.862 1388.94 423.102L1378.09 476.402C1377.49 479.347 1379.33 482.237 1382.26 482.935L1421.97 492.422C1424.89 493.12 1427.84 491.375 1428.64 488.477L1443.45 434.553L1445.19 427.295C1445.9 424.301 1444.06 421.294 1441.06 420.579L1417.57 414.968L1420.59 402.319C1421.78 397.329 1418.71 392.318 1413.72 391.126L1399.26 387.673ZM1393.22 412.97L1440.2 424.193C1441.2 424.431 1441.81 425.434 1441.57 426.432L1439.85 433.629L1438.04 440.239C1437.52 440.001 1436.94 439.752 1436.3 439.512C1433.8 438.575 1430.3 437.718 1426.58 438.266C1420.45 439.168 1414.91 437.844 1409.85 434.271C1404.8 430.702 1397.89 428.735 1391.54 428.945L1392.5 424.259L1428.57 432.877C1429.57 433.115 1430.57 432.499 1430.81 431.501C1431.05 430.503 1430.43 429.501 1429.44 429.263L1391.49 420.198C1390.49 419.96 1389.88 418.958 1390.12 417.96L1390.98 414.346C1391.22 413.348 1392.22 412.732 1393.22 412.97ZM1434.99 442.991C1435.79 443.29 1436.48 443.604 1437.04 443.88L1425.06 487.493C1424.79 488.459 1423.81 489.04 1422.83 488.808L1383.12 479.321C1382.14 479.088 1381.53 478.125 1381.73 477.143L1390.78 432.704C1396.54 432.293 1403.08 434.04 1407.71 437.306C1413.54 441.429 1420.05 442.982 1427.12 441.943C1429.99 441.52 1432.82 442.174 1434.99 442.991Z" fill="#DE2C20"/>
</g>
<g style="mix-blend-mode:lighten" opacity="0.5" clip-path="url(#clip3_610_124)">
<path fill-rule="evenodd" clip-rule="evenodd" d="M1264.04 822.337C1262.14 824.763 1258.64 825.194 1256.22 823.299L1253.29 821.012C1252.16 820.134 1251.47 818.909 1251.23 817.607C1249.91 817.695 1248.56 817.317 1247.43 816.438L1244.5 814.151C1242.08 812.256 1241.65 808.754 1243.54 806.328L1244.88 804.614C1244.29 804.418 1243.73 804.121 1243.22 803.72L1240.29 801.433C1237.87 799.539 1237.43 796.036 1239.33 793.61L1247.33 783.361L1243.23 780.155C1240.64 778.134 1240.35 774.325 1242.61 771.937L1280.79 731.48C1281.49 730.734 1282.67 730.7 1283.42 731.405C1284.16 732.109 1284.2 733.285 1283.49 734.031L1245.31 774.487C1244.56 775.283 1244.65 776.553 1245.52 777.226L1249.73 780.514C1250.84 779.546 1252.26 778.933 1253.83 778.638C1255.86 778.257 1258.19 778.401 1260.65 778.967C1263.11 779.535 1265.72 780.534 1268.33 781.884C1270.95 783.235 1273.53 784.924 1275.94 786.852C1278.36 788.779 1280.56 790.916 1282.42 793.144C1284.28 795.37 1285.79 797.665 1286.83 799.906C1287.86 802.137 1288.45 804.343 1288.43 806.377C1288.42 807.712 1288.15 808.971 1287.58 810.082L1291.79 813.37C1292.66 814.043 1293.91 813.829 1294.5 812.907L1322.68 768.908C1323.19 768.101 1323.01 767.032 1322.26 766.442L1288.32 739.937C1287.51 739.306 1287.37 738.138 1288 737.33C1288.63 736.521 1289.8 736.377 1290.61 737.009L1324.54 763.514C1326.81 765.284 1327.36 768.489 1325.81 770.912L1297.63 814.911C1295.86 817.676 1292.1 818.319 1289.51 816.298L1285.4 813.092L1277.4 823.341C1275.5 825.767 1272 826.198 1269.57 824.303L1266.65 822.016C1266.13 821.615 1265.71 821.142 1265.38 820.623L1264.04 822.337ZM1283.43 809.581C1283.51 809.441 1283.6 809.308 1283.72 809.187C1284.32 808.558 1284.7 807.645 1284.71 806.347C1284.73 805.021 1284.34 803.369 1283.46 801.469C1283.1 800.702 1282.67 799.913 1282.18 799.111L1268.61 816.48C1267.98 817.289 1268.12 818.456 1268.93 819.088L1271.86 821.375C1272.67 822.007 1273.84 821.863 1274.47 821.054L1283.43 809.581ZM1280.04 796.103C1279.89 795.911 1279.73 795.72 1279.57 795.528C1278.15 793.824 1276.49 792.162 1274.67 790.615L1255.25 815.476C1254.62 816.285 1254.77 817.452 1255.57 818.084L1258.5 820.371C1259.31 821.002 1260.48 820.859 1261.11 820.05L1279.41 796.623C1279.58 796.397 1279.8 796.223 1280.04 796.103ZM1271.74 788.328C1270.08 787.136 1268.35 786.076 1266.63 785.184C1266.18 784.951 1265.73 784.731 1265.28 784.523L1246.47 808.615C1245.84 809.424 1245.98 810.591 1246.79 811.223L1249.72 813.51C1250.53 814.141 1251.69 813.998 1252.33 813.189L1271.74 788.328ZM1261.68 783.102C1261.04 782.899 1260.42 782.727 1259.81 782.587C1257.7 782.099 1255.9 782.03 1254.51 782.29C1253.14 782.547 1252.26 783.099 1251.72 783.781L1242.26 795.897C1241.63 796.706 1241.77 797.873 1242.58 798.505L1245.51 800.792C1246.32 801.423 1247.48 801.28 1248.11 800.471L1261.68 783.102Z" fill="#DE2C20"/>
<path d="M1284.54 762.176C1280.88 764.03 1279.41 768.501 1281.27 772.163C1283.12 775.824 1287.59 777.29 1291.25 775.437C1294.92 773.583 1296.38 769.112 1294.53 765.45C1294.06 764.535 1294.43 763.417 1295.35 762.954C1296.26 762.49 1297.38 762.857 1297.84 763.772C1300.62 769.265 1298.42 775.971 1292.93 778.752C1287.44 781.532 1280.73 779.333 1277.95 773.841C1275.17 768.348 1277.37 761.642 1282.86 758.861C1285.55 757.504 1288.52 757.334 1291.18 758.154C1292.16 758.457 1292.71 759.497 1292.41 760.477C1292.11 761.458 1291.07 762.007 1290.09 761.705C1288.31 761.157 1286.33 761.271 1284.54 762.176Z" fill="#DE2C20"/>
</g>
<g style="mix-blend-mode:lighten" opacity="0.5">
<path fill-rule="evenodd" clip-rule="evenodd" d="M1673.35 324.928C1670.61 320.78 1671.13 315.597 1674.53 313.353L1704.01 293.844C1707.41 291.599 1712.38 293.143 1715.12 297.291L1715.25 297.48C1717.81 296.745 1720.93 298.061 1722.79 300.861C1724.64 303.665 1724.63 307.059 1722.94 309.128C1723.03 309.231 1723.1 309.343 1723.17 309.465L1750.95 360.196C1751.43 361.067 1751.22 362.067 1750.49 362.429C1749.76 362.791 1748.78 362.379 1748.3 361.508L1720.61 310.938L1683.77 335.315L1717.47 378.029C1718.04 378.753 1718.95 378.986 1719.58 378.57L1741.6 364.004C1742.28 363.555 1743.27 363.863 1743.82 364.693C1744.37 365.523 1744.27 366.559 1743.59 367.008L1721.57 381.574C1719.68 382.824 1716.94 382.124 1715.23 379.952L1681.41 337.094C1681.33 336.985 1681.25 336.87 1681.19 336.753C1678.63 337.495 1675.5 336.179 1673.64 333.375C1671.79 330.575 1671.8 327.186 1673.48 325.117L1673.35 324.928ZM1706 296.848C1708.04 295.502 1711.02 296.427 1712.67 298.916L1675.81 323.302C1674.16 320.813 1674.48 317.704 1676.51 316.357L1706 296.848ZM1676.57 327.119L1715.88 301.108C1717.24 300.21 1719.23 300.827 1720.33 302.486C1721.43 304.146 1721.22 306.219 1719.86 307.116L1680.54 333.128C1679.19 334.026 1677.2 333.408 1676.1 331.749C1675 330.09 1675.21 328.017 1676.57 327.119Z" fill="#DE2C20"/>
<path d="M1713.18 350.413C1710.98 347.094 1711.4 342.948 1714.12 341.152C1716.83 339.357 1720.81 340.591 1723.01 343.91C1724.66 346.405 1724.83 349.372 1723.66 351.455C1723.24 352.189 1723.53 353.264 1724.3 353.857C1725.06 354.449 1726.02 354.334 1726.44 353.6C1728.2 350.482 1727.94 346.033 1725.46 342.284C1722.17 337.306 1716.2 335.455 1712.13 338.148C1708.06 340.842 1707.43 347.061 1710.72 352.038C1713.32 355.965 1717.58 357.943 1721.26 357.287C1722.08 357.14 1722.51 356.265 1722.22 355.334C1721.93 354.402 1721.03 353.765 1720.2 353.912C1717.75 354.351 1714.91 353.026 1713.18 350.413Z" fill="#DE2C20"/>
</g>
<g style="mix-blend-mode:lighten" opacity="0.5">
<path fill-rule="evenodd" clip-rule="evenodd" d="M1818.45 521.979C1816.75 524.098 1816.96 527.091 1818.93 528.663L1824.87 533.425C1824.12 534.76 1823.48 536.146 1822.96 537.564C1821.88 540.502 1821.33 543.53 1821.35 546.478C1821.37 549.427 1821.95 552.241 1823.08 554.753C1823.78 556.308 1824.68 557.726 1825.76 558.977L1824.56 560.476C1823.42 561.888 1823.57 563.883 1824.87 564.932L1827.24 566.83C1828.55 567.878 1830.53 567.583 1831.66 566.17L1832.69 564.891C1832.71 564.911 1832.74 564.93 1832.76 564.948L1867.87 589.403C1869.84 590.778 1872.65 590.271 1874.27 588.244L1890.93 567.456C1891.49 566.75 1891.42 565.753 1890.77 565.228C1890.11 564.704 1889.12 564.852 1888.56 565.558L1871.9 586.346C1871.36 587.022 1870.43 587.191 1869.77 586.732L1842.23 567.548L1864.39 539.891C1864.96 539.185 1864.88 538.187 1864.23 537.663C1863.58 537.139 1862.59 537.287 1862.02 537.993L1839.73 565.809L1834.74 562.331L1861.38 529.084L1894.79 560.047C1895.41 560.617 1896.4 560.536 1897.01 559.866C1897.61 559.196 1897.61 558.191 1896.99 557.621L1863.51 526.589C1863.48 526.566 1863.46 526.544 1863.43 526.523L1864.46 525.244C1865.59 523.831 1865.45 521.836 1864.14 520.788L1861.77 518.89C1860.46 517.841 1858.48 518.136 1857.35 519.549L1856.15 521.048C1854.69 520.269 1853.11 519.7 1851.44 519.357C1848.74 518.801 1845.87 518.845 1842.99 519.472C1840.11 520.099 1837.27 521.297 1834.64 522.989C1833.37 523.806 1832.16 524.732 1831.02 525.752L1825.07 520.989C1823.11 519.417 1820.14 519.86 1818.45 521.979ZM1828.69 528.084L1823.02 523.547C1822.37 523.023 1821.38 523.171 1820.82 523.877C1820.25 524.583 1820.32 525.581 1820.98 526.105L1826.64 530.642C1826.95 530.198 1827.28 529.762 1827.63 529.335C1827.97 528.907 1828.32 528.49 1828.69 528.084ZM1829.01 532.544C1829.32 532.098 1829.65 531.66 1830 531.233C1830.34 530.805 1830.69 530.389 1831.06 529.986L1841.98 538.733L1839.93 541.291L1829.01 532.544ZM1827.28 535.358C1826.74 536.372 1826.28 537.415 1825.89 538.477C1824.94 541.054 1824.47 543.686 1824.48 546.222C1824.5 548.758 1825 551.146 1825.95 553.254C1826.46 554.39 1827.09 555.435 1827.84 556.373L1837.88 543.849L1827.28 535.358ZM1844.03 536.176L1833.43 527.685C1834.3 526.939 1835.22 526.257 1836.17 525.645C1838.48 524.161 1840.94 523.124 1843.42 522.585C1845.9 522.046 1848.34 522.015 1850.6 522.481C1851.82 522.732 1852.98 523.125 1854.06 523.651L1844.03 536.176ZM1826.92 562.374L1859.72 521.447L1862.09 523.346L1829.29 564.272L1826.92 562.374Z" fill="#DE2C20"/>
<path fill-rule="evenodd" clip-rule="evenodd" d="M1864.16 552.311C1866.13 553.883 1866.34 556.876 1864.64 558.995C1862.94 561.114 1859.98 561.557 1858.01 559.984C1856.05 558.412 1855.84 555.419 1857.54 553.3C1859.23 551.181 1862.2 550.738 1864.16 552.311ZM1862.11 554.869C1862.77 555.393 1862.84 556.39 1862.27 557.097C1861.71 557.803 1860.72 557.951 1860.06 557.427C1859.41 556.902 1859.34 555.905 1859.9 555.198C1860.47 554.492 1861.46 554.344 1862.11 554.869Z" fill="#DE2C20"/>
<path fill-rule="evenodd" clip-rule="evenodd" d="M1869.05 563.869C1871.01 565.441 1871.22 568.434 1869.53 570.553C1867.83 572.672 1864.86 573.115 1862.9 571.543C1860.94 569.97 1860.72 566.977 1862.42 564.858C1864.12 562.739 1867.08 562.296 1869.05 563.869ZM1867 566.427C1867.65 566.951 1867.72 567.949 1867.16 568.655C1866.59 569.361 1865.6 569.509 1864.95 568.985C1864.29 568.46 1864.22 567.463 1864.79 566.757C1865.35 566.05 1866.34 565.903 1867 566.427Z" fill="#DE2C20"/>
<path fill-rule="evenodd" clip-rule="evenodd" d="M1873.29 574.909C1875.25 576.482 1875.46 579.475 1873.76 581.594C1872.07 583.713 1869.1 584.156 1867.14 582.583C1865.17 581.01 1864.96 578.018 1866.66 575.899C1868.36 573.78 1871.32 573.337 1873.29 574.909ZM1871.24 577.467C1871.89 577.991 1871.96 578.989 1871.4 579.695C1870.83 580.402 1869.84 580.549 1869.19 580.025C1868.53 579.501 1868.46 578.503 1869.03 577.797C1869.59 577.091 1870.58 576.943 1871.24 577.467Z" fill="#DE2C20"/>
<path fill-rule="evenodd" clip-rule="evenodd" d="M1880.74 565.608C1882.7 567.18 1882.92 570.173 1881.22 572.292C1879.52 574.411 1876.55 574.854 1874.59 573.282C1872.63 571.709 1872.41 568.716 1874.11 566.597C1875.81 564.478 1878.78 564.035 1880.74 565.608ZM1878.69 568.166C1879.34 568.69 1879.41 569.687 1878.85 570.394C1878.28 571.1 1877.29 571.248 1876.64 570.724C1875.99 570.199 1875.91 569.202 1876.48 568.496C1877.05 567.789 1878.03 567.642 1878.69 568.166Z" fill="#DE2C20"/>
<path fill-rule="evenodd" clip-rule="evenodd" d="M1888.67 562.991C1890.37 560.872 1890.15 557.879 1888.19 556.306C1886.23 554.734 1883.26 555.177 1881.56 557.296C1879.87 559.415 1880.08 562.408 1882.04 563.98C1884.01 565.553 1886.97 565.11 1888.67 562.991ZM1886.3 561.092C1886.87 560.386 1886.8 559.388 1886.14 558.864C1885.49 558.34 1884.5 558.488 1883.93 559.194C1883.37 559.9 1883.44 560.898 1884.09 561.422C1884.75 561.946 1885.74 561.799 1886.3 561.092Z" fill="#DE2C20"/>
<path fill-rule="evenodd" clip-rule="evenodd" d="M1876.98 561.252C1878.68 559.133 1878.46 556.14 1876.5 554.567C1874.54 552.995 1871.57 553.438 1869.87 555.557C1868.17 557.676 1868.39 560.669 1870.35 562.241C1872.31 563.814 1875.28 563.371 1876.98 561.252ZM1874.61 559.353C1875.18 558.647 1875.1 557.65 1874.45 557.125C1873.8 556.601 1872.81 556.749 1872.24 557.455C1871.68 558.161 1871.75 559.159 1872.4 559.683C1873.06 560.207 1874.04 560.06 1874.61 559.353Z" fill="#DE2C20"/>
</g>
<g style="mix-blend-mode:lighten" opacity="0.5">
<path fill-rule="evenodd" clip-rule="evenodd" d="M1153.46 260.868C1151.99 265.211 1156.1 269.373 1160.46 267.958L1222.84 247.708C1223.81 247.391 1224.35 246.344 1224.03 245.368C1223.71 244.392 1222.67 243.857 1221.69 244.174L1159.31 264.424C1157.86 264.895 1156.49 263.508 1156.98 262.06L1179.61 195.259C1180.06 193.954 1181.71 193.567 1182.69 194.541L1228.38 240.233C1230.55 242.409 1234.08 242.409 1236.26 240.233L1240.86 235.635C1243.03 233.458 1243.03 229.93 1240.86 227.753L1192.39 179.285C1190.86 177.758 1188.39 177.758 1186.86 179.285L1181.74 184.402C1181.02 185.127 1181.02 186.304 1181.74 187.029C1182.47 187.755 1183.64 187.755 1184.37 187.029L1189.49 181.912C1189.56 181.836 1189.69 181.836 1189.76 181.912L1238.23 230.38C1238.96 231.106 1238.96 232.282 1238.23 233.008L1233.63 237.605C1232.91 238.331 1231.73 238.331 1231.01 237.605L1185.31 191.914C1182.39 188.993 1177.42 190.154 1176.09 194.066L1153.46 260.868ZM1175.17 240.89C1176.63 239.439 1178.98 239.439 1180.43 240.89C1181.88 242.341 1181.88 244.693 1180.43 246.144C1178.98 247.595 1176.63 247.595 1175.17 246.144C1173.72 244.693 1173.72 242.341 1175.17 240.89ZM1198.82 233.008C1200.27 231.557 1202.62 231.557 1204.08 233.008C1205.53 234.459 1205.53 236.811 1204.08 238.262C1202.62 239.713 1200.27 239.713 1198.82 238.262C1197.37 236.811 1197.37 234.459 1198.82 233.008ZM1183.06 217.244C1184.51 215.793 1186.86 215.793 1188.31 217.244C1189.76 218.695 1189.76 221.047 1188.31 222.498C1186.86 223.949 1184.51 223.949 1183.06 222.498C1181.61 221.047 1181.61 218.695 1183.06 217.244ZM1180.43 214.616C1183.33 211.714 1188.04 211.714 1190.94 214.616C1193.84 217.518 1193.84 222.224 1190.94 225.126C1188.04 228.028 1183.33 228.028 1180.43 225.126C1177.53 222.224 1177.53 217.518 1180.43 214.616ZM1206.7 230.38C1203.8 227.478 1199.1 227.478 1196.19 230.38C1193.29 233.282 1193.29 237.988 1196.19 240.89C1199.1 243.792 1203.8 243.792 1206.7 240.89C1209.6 237.988 1209.6 233.282 1206.7 230.38ZM1183.06 238.262C1180.15 235.36 1175.45 235.36 1172.55 238.262C1169.65 241.164 1169.65 245.87 1172.55 248.772C1175.45 251.674 1180.15 251.674 1183.06 248.772C1185.96 245.87 1185.96 241.164 1183.06 238.262Z" fill="#DE2C20"/>
</g>
</g>
<defs>
<clipPath id="clip0_610_124">
<rect width="1920" height="1080" fill="white"/>
</clipPath>
<clipPath id="clip1_610_124">
<rect width="119" height="117" fill="white" transform="translate(19.4072 676) rotate(33.9891)"/>
</clipPath>
<clipPath id="clip2_610_124">
<rect width="119" height="131" fill="white" transform="translate(211 439.74) rotate(-21.5654)"/>
</clipPath>
<clipPath id="clip3_610_124">
<rect width="119" height="117" fill="white" transform="translate(1286.92 868.496) rotate(-142.011)"/>
</clipPath>
</defs>
</svg>
