<svg width="227" height="218" viewBox="0 0 227 218" fill="none" xmlns="http://www.w3.org/2000/svg">
<circle cx="113.5" cy="113.5" r="113.5" fill="#474747"/>
<g style="mix-blend-mode:lighten" opacity="0.5">
<path fill-rule="evenodd" clip-rule="evenodd" d="M117.722 77.1922L120.998 77.0013C125.096 76.7625 128.611 79.8904 128.849 83.9876C128.929 85.3544 128.634 86.6564 128.053 87.7936C132.806 87.9428 136.743 91.6997 137.025 96.5379C137.162 98.8948 136.408 101.098 135.055 102.818C138.657 103.926 141.366 107.176 141.599 111.159C141.897 116.281 137.987 120.674 132.866 120.973L99.582 122.912L114.828 161.089C115.49 162.747 117.882 162.607 118.347 160.884L127.687 126.269C127.954 125.278 128.974 124.692 129.965 124.959C130.955 125.227 131.542 126.246 131.274 127.237L121.935 161.851C120.539 167.023 113.364 167.441 111.378 162.467L95.9017 123.715C95.8256 123.525 95.7832 123.329 95.7719 123.134C90.6506 123.433 86.2571 119.523 85.9587 114.401C85.7266 110.418 88.0399 106.875 91.4891 105.357C89.9454 103.805 88.9407 101.705 88.8034 99.3479C88.5215 94.5097 91.9952 90.3209 96.6982 89.6208C95.9894 88.5587 95.5452 87.2998 95.4655 85.933C95.2268 81.8358 98.3547 78.3208 102.452 78.082L104.411 77.9679C104.502 77.0701 104.703 76.1299 104.948 75.2244C105.409 73.5209 106.102 71.6828 106.876 69.9881C107.648 68.2982 108.527 66.6894 109.383 65.4609C109.807 64.8513 110.263 64.282 110.733 63.837C111.131 63.4599 111.834 62.8822 112.754 62.7958C114.264 62.6542 115.078 63.8065 115.391 64.3961C115.744 65.0612 115.965 65.8902 116.125 66.6689C116.405 68.0242 116.595 69.7531 116.776 71.3923C116.807 71.6713 116.837 71.9477 116.868 72.2192C117.089 74.189 117.315 75.8868 117.651 76.9767C117.676 77.0575 117.7 77.129 117.722 77.1922ZM108.098 79.39C108.013 78.7894 108.128 77.6951 108.534 76.1951C108.932 74.7268 109.548 73.0819 110.256 71.5313C110.966 69.9758 111.74 68.577 112.432 67.5845L112.5 67.4871C112.734 68.6471 112.899 70.1411 113.079 71.7654C113.11 72.0516 113.142 72.3418 113.175 72.6349C113.388 74.5221 113.643 76.5857 114.1 78.071C114.316 78.7716 114.666 79.6622 115.325 80.2884C115.693 80.6384 116.203 80.9489 116.852 81.0325C117.311 81.0917 117.737 81.0238 118.112 80.8914L121.215 80.7106C123.263 80.5912 125.021 82.1552 125.14 84.2038C125.26 86.2524 123.696 88.0099 121.647 88.1292L117.938 88.3454C116.913 88.4051 116.131 89.2838 116.191 90.3081C116.251 91.3324 117.129 92.1144 118.154 92.0547L127.427 91.5143C130.5 91.3353 133.136 93.6812 133.315 96.7541C133.494 99.827 131.148 102.463 128.076 102.642L111.384 103.615C110.359 103.675 109.577 104.553 109.637 105.578C109.697 106.602 110.575 107.384 111.6 107.324L132.001 106.135C135.074 105.956 137.71 108.302 137.889 111.375C138.068 114.448 135.722 117.084 132.649 117.263L95.5562 119.425C92.4833 119.604 89.8471 117.258 89.668 114.185C89.4889 111.112 91.8349 108.476 94.9078 108.297L100.737 107.957C101.761 107.898 102.543 107.019 102.483 105.995C102.424 104.97 101.545 104.188 100.521 104.248L98.4009 104.372C95.328 104.551 92.6918 102.205 92.5127 99.1318C92.3337 96.0589 94.6796 93.4226 97.7525 93.2436L103.052 92.9348C103.081 92.933 103.11 92.9306 103.14 92.9276C103.198 92.9255 103.257 92.9228 103.316 92.9193L105.171 92.8113C106.195 92.7516 106.977 91.8728 106.918 90.8485C106.858 89.8242 105.979 89.0422 104.955 89.1019L103.1 89.21C101.052 89.3294 99.2942 87.7654 99.1748 85.7168C99.0555 83.6682 100.619 81.9107 102.668 81.7913L106.377 81.5752C107.402 81.5155 108.184 80.6368 108.124 79.6125C108.12 79.5369 108.111 79.4627 108.098 79.39ZM112.076 66.0808L112.082 66.09C112.079 66.0861 112.077 66.0822 112.076 66.0808C112.076 66.0808 112.075 66.0799 112.076 66.0808Z" fill="white"/>
</g>
</svg>
