<svg width="1920" height="1080" viewBox="0 0 1920 1080" fill="none" xmlns="http://www.w3.org/2000/svg">
<g clip-path="url(#clip0_65_3)">
<rect width="1920" height="1080" fill="#252323"/>
<g style="mix-blend-mode:lighten" opacity="0.5" clip-path="url(#clip1_65_3)">
<path fill-rule="evenodd" clip-rule="evenodd" d="M26.4537 693.449C28.1745 690.897 31.6384 690.223 34.1906 691.944L37.2714 694.021C38.455 694.819 39.2346 695.992 39.5588 697.275C40.8698 697.094 42.2494 697.377 43.433 698.175L46.5138 700.252C49.066 701.973 49.74 705.437 48.0192 707.989L46.8033 709.793C47.3999 709.947 47.9809 710.204 48.521 710.568L51.6018 712.645C54.154 714.366 54.828 717.83 53.1072 720.382L45.8371 731.165L50.156 734.077C52.8786 735.913 53.4322 739.692 51.3504 742.232L16.0815 785.253C15.431 786.046 14.2604 786.162 13.4669 785.512C12.6734 784.861 12.5575 783.691 13.208 782.897L48.477 739.876C49.1709 739.029 48.9863 737.77 48.0788 737.158L43.65 734.172C42.601 735.216 41.2357 735.926 39.6873 736.329C37.6826 736.851 35.3486 736.871 32.8613 736.477C30.3638 736.082 27.689 735.268 24.9903 734.104C22.2887 732.938 19.5918 731.433 17.0522 729.679C14.5127 727.925 12.1668 725.946 10.1522 723.853C8.14023 721.763 6.47782 719.578 5.28511 717.415C4.09768 715.262 3.36062 713.102 3.23529 711.072C3.15302 709.739 3.33697 708.464 3.81989 707.317L-0.609019 704.331C-1.51655 703.719 -2.7537 704.02 -3.2782 704.981L-28.3149 750.838C-28.7744 751.68 -28.518 752.733 -27.7229 753.269L7.98138 777.342C8.83211 777.915 9.05678 779.07 8.48319 779.921C7.9096 780.771 6.75495 780.996 5.90422 780.423L-29.8001 756.35C-32.1852 754.741 -32.9546 751.582 -31.5762 749.058L-6.53943 703.2C-4.96592 700.318 -1.25443 699.414 1.46814 701.25L5.78698 704.162L13.0571 693.379C14.7778 690.827 18.2418 690.153 20.794 691.874L23.8748 693.951C24.4149 694.315 24.8709 694.757 25.2379 695.252L26.4537 693.449ZM7.9998 707.526C7.93336 707.672 7.84693 707.811 7.74016 707.94C7.18576 708.609 6.86389 709.547 6.94385 710.843C7.02549 712.166 7.52764 713.787 8.53878 715.621C8.94695 716.361 9.42846 717.118 9.97908 717.884L22.2994 699.611C22.873 698.76 22.6483 697.605 21.7976 697.032L18.7168 694.954C17.8661 694.381 16.7114 694.606 16.1378 695.456L7.9998 707.526ZM12.3193 720.735C12.4858 720.916 12.6558 721.096 12.8292 721.276C14.3699 722.877 16.1393 724.419 18.0617 725.835L35.6961 699.681C36.2697 698.83 36.045 697.675 35.1943 697.102L32.1135 695.024C31.2627 694.451 30.1081 694.675 29.5345 695.526L12.9172 720.172C12.7569 720.41 12.5511 720.599 12.3193 720.735ZM21.1425 727.912C22.8871 728.986 24.6797 729.923 26.4626 730.692C26.9286 730.893 27.3913 731.082 27.8496 731.258L44.9384 705.912C45.512 705.061 45.2873 703.907 44.4366 703.333L41.3558 701.256C40.5051 700.682 39.3504 700.907 38.7769 701.758L21.1425 727.912ZM31.5445 732.424C32.1942 732.582 32.8277 732.71 33.4416 732.807C35.5885 733.147 37.3805 733.091 38.7507 732.734C40.0998 732.382 40.9453 731.769 41.4321 731.052L50.0264 718.305C50.6 717.454 50.3754 716.3 49.5246 715.726L46.4438 713.649C45.5931 713.075 44.4385 713.3 43.8649 714.151L31.5445 732.424Z" fill="#FFFBFB"/>
<path d="M10.1975 754.894C13.721 752.789 14.8714 748.227 12.7669 744.703C10.6624 741.18 6.1 740.029 2.57647 742.134C-0.947056 744.238 -2.09741 748.801 0.00707439 752.324C0.533201 753.205 0.245608 754.346 -0.635275 754.872C-1.51615 755.398 -2.65676 755.11 -3.18288 754.229C-6.33961 748.944 -4.61407 742.1 0.671218 738.944C5.95651 735.787 12.8001 737.513 15.9569 742.798C19.1136 748.083 17.388 754.927 12.1028 758.083C9.52188 759.625 6.56536 760.002 3.85395 759.369C2.85477 759.136 2.23387 758.137 2.46712 757.137C2.70037 756.138 3.69945 755.517 4.69863 755.751C6.51028 756.173 8.47587 755.922 10.1975 754.894Z" fill="#FFFBFB"/>
</g>
<g style="mix-blend-mode:lighten" opacity="0.5">
<path fill-rule="evenodd" clip-rule="evenodd" d="M533.482 297.282C534.56 294.399 537.771 292.935 540.654 294.012L544.135 295.313C545.472 295.813 546.504 296.771 547.118 297.943C548.351 297.461 549.759 297.414 551.096 297.914L554.576 299.215C557.46 300.292 558.924 303.503 557.846 306.386L557.085 308.424C557.701 308.435 558.326 308.549 558.936 308.777L562.417 310.078C565.3 311.155 566.764 314.366 565.687 317.249L561.135 329.431L566.014 331.254C569.09 332.404 570.511 335.95 569.079 338.905L544.828 388.971C544.38 389.894 543.269 390.28 542.346 389.833C541.422 389.386 541.037 388.275 541.484 387.351L565.735 337.285C566.212 336.3 565.739 335.118 564.713 334.735L559.71 332.865C558.934 334.126 557.772 335.135 556.36 335.888C554.533 336.864 552.268 337.428 549.758 337.626C547.237 337.825 544.446 337.658 541.55 337.155C538.651 336.652 535.677 335.818 532.798 334.706C529.919 333.593 527.176 332.217 524.729 330.652C522.284 329.089 520.158 327.352 518.493 325.528C516.836 323.711 515.615 321.783 515.019 319.838C514.628 318.561 514.509 317.279 514.711 316.051L509.708 314.181C508.682 313.798 507.55 314.38 507.264 315.436L493.624 365.871C493.374 366.797 493.869 367.761 494.767 368.097L535.105 383.169C536.066 383.528 536.554 384.599 536.195 385.56C535.836 386.521 534.765 387.009 533.804 386.65L493.467 371.577C490.772 370.57 489.286 367.678 490.037 364.901L503.677 314.466C504.534 311.297 507.932 309.551 511.008 310.7L515.887 312.524L520.439 300.342C521.517 297.458 524.728 295.994 527.611 297.072L531.092 298.372C531.702 298.6 532.249 298.924 532.721 299.32L533.482 297.282ZM518.825 315.279C518.794 315.435 518.742 315.591 518.669 315.741C518.286 316.522 518.192 317.509 518.572 318.75C518.96 320.017 519.827 321.477 521.238 323.024C521.808 323.648 522.453 324.272 523.167 324.888L530.881 304.243C531.24 303.282 530.752 302.212 529.791 301.853L526.311 300.552C525.349 300.193 524.279 300.681 523.92 301.642L518.825 315.279ZM526.108 327.114C526.312 327.251 526.52 327.387 526.73 327.521C528.602 328.718 530.683 329.805 532.883 330.733L543.924 301.184C544.283 300.223 543.795 299.153 542.834 298.793L539.353 297.493C538.392 297.134 537.322 297.622 536.963 298.583L526.558 326.427C526.458 326.696 526.302 326.928 526.108 327.114ZM536.363 332.033C538.31 332.67 540.272 333.162 542.185 333.494C542.685 333.581 543.179 333.656 543.666 333.72L554.366 305.086C554.725 304.125 554.237 303.054 553.276 302.695L549.795 301.395C548.834 301.035 547.764 301.524 547.405 302.485L536.363 332.033ZM547.531 333.992C548.2 333.994 548.845 333.971 549.465 333.922C551.632 333.751 553.361 333.278 554.61 332.611C555.84 331.954 556.519 331.161 556.825 330.35L562.206 315.949C562.565 314.988 562.077 313.917 561.116 313.558L557.636 312.257C556.674 311.898 555.604 312.386 555.245 313.347L547.531 333.992Z" fill="#FFFBFB"/>
<path d="M532.019 360.824C534.954 357.955 535.008 353.25 532.139 350.315C529.27 347.38 524.565 347.327 521.63 350.196C518.695 353.065 518.642 357.77 521.51 360.705C522.228 361.438 522.214 362.614 521.481 363.332C520.747 364.049 519.571 364.036 518.853 363.302C514.55 358.899 514.63 351.842 519.033 347.539C523.435 343.235 530.492 343.316 534.796 347.718C539.099 352.12 539.019 359.178 534.616 363.481C532.467 365.582 529.68 366.639 526.896 366.657C525.87 366.663 525.033 365.836 525.026 364.81C525.02 363.784 525.846 362.947 526.872 362.941C528.733 362.929 530.585 362.226 532.019 360.824Z" fill="#FFFBFB"/>
</g>
<g style="mix-blend-mode:lighten" opacity="0.5">
<path fill-rule="evenodd" clip-rule="evenodd" d="M1529.02 904.209C1532.07 904.608 1534.22 907.405 1533.82 910.457C1533.42 913.509 1530.63 915.661 1527.58 915.263C1524.52 914.864 1522.37 912.067 1522.77 909.015C1523.17 905.963 1525.97 903.811 1529.02 904.209ZM1528.54 907.894C1529.55 908.027 1530.27 908.959 1530.14 909.976C1530.01 910.994 1529.07 911.711 1528.06 911.578C1527.04 911.445 1526.32 910.513 1526.45 909.496C1526.59 908.478 1527.52 907.761 1528.54 907.894Z" fill="#FFFDFD"/>
<path fill-rule="evenodd" clip-rule="evenodd" d="M1538.39 918.547C1541.44 918.945 1543.59 921.743 1543.19 924.795C1542.8 927.847 1540 929.999 1536.95 929.6C1533.89 929.202 1531.74 926.405 1532.14 923.352C1532.54 920.3 1535.34 918.149 1538.39 918.547ZM1537.91 922.231C1538.92 922.364 1539.64 923.297 1539.51 924.314C1539.38 925.331 1538.44 926.049 1537.43 925.916C1536.41 925.783 1535.69 924.851 1535.82 923.833C1535.96 922.816 1536.89 922.099 1537.91 922.231Z" fill="#FFFDFD"/>
<path fill-rule="evenodd" clip-rule="evenodd" d="M1555.93 913.342C1556.33 910.29 1554.18 907.492 1551.12 907.094C1548.07 906.696 1545.27 908.847 1544.88 911.899C1544.48 914.952 1546.63 917.749 1549.68 918.147C1552.73 918.546 1555.53 916.394 1555.93 913.342ZM1550.64 910.778C1551.66 910.911 1552.38 911.844 1552.25 912.861C1552.11 913.878 1551.18 914.596 1550.16 914.463C1549.15 914.33 1548.43 913.398 1548.56 912.38C1548.69 911.363 1549.63 910.646 1550.64 910.778Z" fill="#FFFDFD"/>
<path fill-rule="evenodd" clip-rule="evenodd" d="M1541.75 892.756C1544.81 893.155 1546.96 895.952 1546.56 899.004C1546.16 902.056 1543.36 904.208 1540.31 903.81C1537.26 903.411 1535.11 900.614 1535.51 897.562C1535.9 894.51 1538.7 892.358 1541.75 892.756ZM1541.27 896.441C1542.29 896.574 1543.01 897.506 1542.87 898.523C1542.74 899.541 1541.81 900.258 1540.79 900.125C1539.77 899.992 1539.06 899.06 1539.19 898.043C1539.32 897.025 1540.26 896.308 1541.27 896.441Z" fill="#FFFDFD"/>
<path fill-rule="evenodd" clip-rule="evenodd" d="M1465.98 927.834C1465.85 928.852 1466.57 929.784 1467.58 929.917C1468.6 930.049 1469.53 929.332 1469.67 928.315L1471.59 913.577C1471.99 910.525 1474.78 908.374 1477.84 908.772L1490.73 910.455L1488.09 930.719C1487.69 933.771 1489.84 936.568 1492.89 936.967L1496.58 937.447C1499 937.764 1501.27 936.47 1502.29 934.394L1556.44 939.615C1559.43 939.903 1562.11 937.768 1562.5 934.788L1567.78 894.299C1568.17 891.32 1566.13 888.568 1563.16 888.079L1507.98 878.982L1500.59 878.016C1497.53 877.618 1494.74 879.77 1494.34 882.822L1491.21 906.77L1478.32 905.088C1473.23 904.424 1468.57 908.01 1467.9 913.097L1465.98 927.834ZM1491.77 931.2L1498.02 883.303C1498.15 882.285 1499.09 881.568 1500.1 881.701L1507.44 882.658L1514.21 883.773C1514.02 884.31 1513.84 884.917 1513.66 885.58C1512.99 888.161 1512.51 891.729 1513.44 895.378C1514.98 901.378 1514.24 907.028 1511.22 912.432C1508.2 917.83 1506.96 924.902 1507.83 931.196L1503.07 930.737L1507.87 893.956C1508.01 892.939 1507.29 892.006 1506.27 891.873C1505.25 891.741 1504.32 892.458 1504.19 893.475L1499.14 932.161C1499.01 933.179 1498.08 933.896 1497.06 933.763L1493.37 933.282C1492.36 933.149 1491.64 932.217 1491.77 931.2ZM1517.26 886.514C1517.47 885.69 1517.71 884.968 1517.93 884.388L1562.56 891.745C1563.55 891.908 1564.23 892.825 1564.1 893.819L1558.81 934.307C1558.68 935.301 1557.79 936.012 1556.79 935.916L1511.65 931.564C1510.64 925.87 1511.69 919.186 1514.46 914.247C1517.95 908.01 1518.81 901.38 1517.04 894.457C1516.32 891.645 1516.68 888.765 1517.26 886.514Z" fill="#FFFDFD"/>
</g>
<g style="mix-blend-mode:lighten" opacity="0.5">
<path fill-rule="evenodd" clip-rule="evenodd" d="M1397.17 425.832C1396.45 428.826 1393.44 430.673 1390.45 429.958C1387.46 429.243 1385.61 426.236 1386.32 423.242C1387.04 420.248 1390.05 418.401 1393.04 419.116C1396.03 419.831 1397.88 422.838 1397.17 425.832ZM1393.55 424.969C1393.31 425.967 1392.31 426.582 1391.31 426.344C1390.31 426.106 1389.7 425.103 1389.94 424.105C1390.18 423.107 1391.18 422.492 1392.18 422.73C1393.17 422.968 1393.79 423.971 1393.55 424.969Z" fill="#FFFDFD"/>
<path fill-rule="evenodd" clip-rule="evenodd" d="M1381.93 433.652C1381.21 436.646 1378.2 438.493 1375.21 437.778C1372.22 437.063 1370.37 434.056 1371.09 431.062C1371.8 428.069 1374.81 426.221 1377.8 426.936C1380.79 427.652 1382.64 430.658 1381.93 433.652ZM1378.31 432.789C1378.07 433.787 1377.07 434.403 1376.07 434.164C1375.08 433.926 1374.46 432.924 1374.7 431.926C1374.94 430.928 1375.94 430.312 1376.94 430.55C1377.94 430.789 1378.55 431.791 1378.31 432.789Z" fill="#FFFDFD"/>
<path fill-rule="evenodd" clip-rule="evenodd" d="M1385.27 451.642C1388.26 452.357 1391.27 450.509 1391.99 447.516C1392.7 444.522 1390.85 441.515 1387.86 440.8C1384.87 440.085 1381.86 441.932 1381.14 444.926C1380.43 447.92 1382.28 450.926 1385.27 451.642ZM1388.37 446.652C1388.13 447.65 1387.13 448.266 1386.13 448.028C1385.14 447.789 1384.52 446.787 1384.76 445.789C1385 444.791 1386 444.175 1387 444.414C1387.99 444.652 1388.61 445.654 1388.37 446.652Z" fill="#FFFDFD"/>
<path fill-rule="evenodd" clip-rule="evenodd" d="M1407.22 439.695C1406.51 442.689 1403.5 444.536 1400.51 443.821C1397.51 443.106 1395.67 440.099 1396.38 437.105C1397.1 434.111 1400.1 432.264 1403.1 432.979C1406.09 433.695 1407.94 436.701 1407.22 439.695ZM1403.61 438.832C1403.37 439.83 1402.37 440.446 1401.37 440.207C1400.37 439.969 1399.76 438.967 1400 437.969C1400.23 436.971 1401.24 436.355 1402.24 436.593C1403.23 436.832 1403.85 437.834 1403.61 438.832Z" fill="#FFFDFD"/>
<path fill-rule="evenodd" clip-rule="evenodd" d="M1380.26 360.671C1379.26 360.433 1378.26 361.048 1378.02 362.046C1377.78 363.044 1378.4 364.047 1379.4 364.285L1393.85 367.738C1396.85 368.453 1398.69 371.46 1397.98 374.454L1394.96 387.103L1375.08 382.355C1372.09 381.64 1369.08 383.487 1368.36 386.481L1367.5 390.095C1366.93 392.474 1367.98 394.861 1369.94 396.1L1359.09 449.4C1358.49 452.345 1360.33 455.235 1363.25 455.933L1402.97 465.42C1405.89 466.118 1408.84 464.373 1409.64 461.475L1424.45 407.551L1426.19 400.293C1426.9 397.299 1425.05 394.292 1422.06 393.577L1398.57 387.966L1401.59 375.317C1402.78 370.327 1399.7 365.316 1394.72 364.124L1380.26 360.671ZM1374.22 385.969L1421.2 397.191C1422.2 397.429 1422.81 398.432 1422.57 399.43L1420.85 406.627L1419.04 413.237C1418.52 413 1417.94 412.751 1417.3 412.51C1414.8 411.574 1411.3 410.716 1407.58 411.265C1401.45 412.166 1395.91 410.842 1390.85 407.269C1385.8 403.7 1378.89 401.733 1372.54 401.943L1373.5 397.257L1409.57 405.875C1410.57 406.113 1411.57 405.497 1411.81 404.499C1412.05 403.501 1411.43 402.499 1410.44 402.261L1372.49 393.196C1371.49 392.958 1370.88 391.956 1371.11 390.958L1371.98 387.344C1372.22 386.346 1373.22 385.73 1374.22 385.969ZM1415.99 415.989C1416.79 416.288 1417.48 416.602 1418.04 416.878L1406.06 460.491C1405.79 461.457 1404.81 462.039 1403.83 461.806L1364.12 452.319C1363.14 452.086 1362.53 451.123 1362.73 450.142L1371.78 405.702C1377.54 405.291 1384.08 407.038 1388.7 410.304C1394.54 414.427 1401.05 415.981 1408.12 414.941C1410.99 414.518 1413.81 415.172 1415.99 415.989Z" fill="#FFFDFD"/>
</g>
<g style="mix-blend-mode:lighten" opacity="0.5">
<path fill-rule="evenodd" clip-rule="evenodd" d="M920.459 39.8677C918.987 44.2105 923.097 48.3732 927.458 46.9575L989.837 26.7081C990.813 26.3913 991.347 25.3433 991.03 24.3674C990.714 23.3915 989.666 22.8572 988.69 23.174L926.311 43.4234C924.857 43.8953 923.487 42.5077 923.978 41.0601L946.613 -25.7416C947.055 -27.0459 948.712 -27.4328 949.686 -26.4591L995.378 19.2326C997.554 21.4092 1001.08 21.4092 1003.26 19.2326L1007.86 14.6348C1010.03 12.4582 1010.03 8.92935 1007.86 6.75279L959.39 -41.7152C957.863 -43.2423 955.387 -43.2423 953.86 -41.7152L948.743 -36.5983C948.017 -35.8728 948.017 -34.6965 948.743 -33.971C949.468 -33.2454 950.644 -33.2454 951.37 -33.971L956.487 -39.0878C956.563 -39.1639 956.686 -39.1639 956.762 -39.0878L1005.23 9.38012C1005.96 10.1056 1005.96 11.2819 1005.23 12.0075L1000.63 16.6053C999.907 17.3308 998.731 17.3308 998.005 16.6053L952.314 -29.0864C949.392 -32.0076 944.42 -30.8467 943.094 -26.9341L920.459 39.8677ZM942.174 19.8895C943.625 18.4384 945.978 18.4384 947.429 19.8895C948.88 21.3405 948.88 23.6931 947.429 25.1442C945.978 26.5952 943.625 26.5952 942.174 25.1442C940.723 23.6931 940.723 21.3405 942.174 19.8895ZM965.82 12.0075C967.271 10.5564 969.624 10.5564 971.075 12.0075C972.526 13.4585 972.526 15.8111 971.075 17.2621C969.624 18.7132 967.271 18.7132 965.82 17.2621C964.369 15.8111 964.369 13.4585 965.82 12.0075ZM950.056 -3.75657C951.507 -5.20761 953.86 -5.20761 955.311 -3.75657C956.762 -2.30553 956.762 0.0470696 955.311 1.49811C953.86 2.94915 951.507 2.94915 950.056 1.49811C948.605 0.0470696 948.605 -2.30553 950.056 -3.75657ZM947.429 -6.38391C950.331 -9.28599 955.036 -9.28599 957.938 -6.38391C960.84 -3.48183 960.84 1.22337 957.938 4.12545C955.036 7.02753 950.331 7.02753 947.429 4.12545C944.527 1.22337 944.527 -3.48183 947.429 -6.38391ZM973.702 9.38012C970.8 6.47804 966.095 6.47804 963.193 9.38012C960.291 12.2822 960.291 16.9874 963.193 19.8895C966.095 22.7916 970.8 22.7916 973.702 19.8895C976.604 16.9874 976.604 12.2822 973.702 9.38012ZM950.056 17.2621C947.154 14.3601 942.449 14.3601 939.547 17.2621C936.645 20.1642 936.645 24.8694 939.547 27.7715C942.449 30.6736 947.154 30.6736 950.056 27.7715C952.958 24.8694 952.958 20.1642 950.056 17.2621Z" fill="#FFFAFA"/>
</g>
<g style="mix-blend-mode:lighten" opacity="0.5">
<path fill-rule="evenodd" clip-rule="evenodd" d="M391.29 1019.7C386.928 1018.29 382.821 1022.45 384.295 1026.79L405.377 1088.89C405.706 1089.87 406.761 1090.39 407.733 1090.06C408.705 1089.73 409.225 1088.67 408.895 1087.7L387.813 1025.6C387.322 1024.15 388.691 1022.76 390.145 1023.23L457.244 1044.97C458.554 1045.4 458.963 1047.05 458.002 1048.04L412.925 1094.34C410.778 1096.54 410.825 1100.07 413.031 1102.22L417.69 1106.75C419.895 1108.9 423.424 1108.85 425.571 1106.65L473.387 1057.54C474.893 1055.99 474.86 1053.51 473.313 1052.01L468.128 1046.96C467.393 1046.24 466.216 1046.26 465.501 1046.99C464.785 1047.73 464.801 1048.9 465.536 1049.62L470.721 1054.67C470.798 1054.74 470.799 1054.87 470.724 1054.94L422.909 1104.06C422.193 1104.79 421.017 1104.81 420.282 1104.09L415.623 1099.55C414.888 1098.84 414.872 1097.66 415.588 1096.93L460.664 1050.63C463.546 1047.67 462.319 1042.71 458.389 1041.44L391.29 1019.7ZM411.557 1041.15C413.027 1042.58 413.059 1044.93 411.627 1046.4C410.196 1047.87 407.844 1047.9 406.373 1046.47C404.903 1045.04 404.871 1042.69 406.303 1041.22C407.734 1039.75 410.087 1039.71 411.557 1041.15ZM419.755 1064.68C421.225 1066.12 421.256 1068.47 419.825 1069.94C418.393 1071.41 416.041 1071.44 414.571 1070.01C413.1 1068.58 413.069 1066.22 414.5 1064.75C415.932 1063.28 418.284 1063.25 419.755 1064.68ZM435.307 1048.71C436.777 1050.14 436.808 1052.49 435.377 1053.96C433.945 1055.44 431.593 1055.47 430.123 1054.04C428.652 1052.6 428.621 1050.25 430.052 1048.78C431.484 1047.31 433.836 1047.28 435.307 1048.71ZM437.898 1046.05C440.839 1048.91 440.902 1053.62 438.039 1056.56C435.176 1059.5 430.471 1059.56 427.531 1056.7C424.59 1053.83 424.527 1049.13 427.39 1046.19C430.253 1043.25 434.958 1043.19 437.898 1046.05ZM422.487 1072.53C425.35 1069.59 425.287 1064.88 422.347 1062.02C419.406 1059.16 414.701 1059.22 411.838 1062.16C408.975 1065.1 409.038 1069.81 411.979 1072.67C414.919 1075.53 419.624 1075.47 422.487 1072.53ZM414.29 1048.99C417.153 1046.05 417.09 1041.35 414.149 1038.48C411.209 1035.62 406.504 1035.68 403.641 1038.62C400.778 1041.56 400.841 1046.27 403.781 1049.13C406.722 1052 411.427 1051.93 414.29 1048.99Z" fill="#FFFAFA"/>
</g>
<g style="mix-blend-mode:lighten" opacity="0.5" clip-path="url(#clip2_65_3)">
<path fill-rule="evenodd" clip-rule="evenodd" d="M1245.04 795.338C1243.14 797.764 1239.64 798.195 1237.22 796.3L1234.29 794.013C1233.16 793.135 1232.47 791.91 1232.23 790.608C1230.91 790.696 1229.56 790.318 1228.43 789.439L1225.5 787.152C1223.08 785.258 1222.65 781.755 1224.54 779.329L1225.88 777.615C1225.29 777.419 1224.73 777.123 1224.22 776.722L1221.29 774.435C1218.87 772.54 1218.43 769.037 1220.33 766.611L1228.33 756.362L1224.23 753.156C1221.64 751.135 1221.35 747.326 1223.61 744.938L1261.79 704.482C1262.49 703.735 1263.67 703.701 1264.42 704.406C1265.16 705.11 1265.2 706.286 1264.49 707.032L1226.31 747.488C1225.56 748.284 1225.65 749.554 1226.52 750.228L1230.73 753.515C1231.84 752.547 1233.26 751.934 1234.83 751.639C1236.87 751.258 1239.19 751.402 1241.65 751.968C1244.11 752.536 1246.72 753.535 1249.33 754.885C1251.95 756.236 1254.53 757.926 1256.94 759.853C1259.36 761.78 1261.56 763.917 1263.42 766.145C1265.28 768.371 1266.79 770.667 1267.83 772.907C1268.86 775.138 1269.45 777.344 1269.43 779.378C1269.42 780.714 1269.15 781.972 1268.59 783.083L1272.79 786.371C1273.66 787.045 1274.91 786.83 1275.5 785.909L1303.68 741.91C1304.19 741.102 1304.01 740.034 1303.26 739.443L1269.32 712.939C1268.51 712.307 1268.37 711.139 1269 710.331C1269.63 709.522 1270.8 709.379 1271.61 710.01L1305.54 736.515C1307.81 738.286 1308.36 741.491 1306.81 743.913L1278.63 787.912C1276.86 790.677 1273.1 791.32 1270.51 789.299L1266.4 786.093L1258.4 796.343C1256.5 798.769 1253 799.199 1250.58 797.305L1247.65 795.018C1247.13 794.617 1246.71 794.144 1246.38 793.624L1245.04 795.338ZM1264.43 782.583C1264.51 782.442 1264.6 782.31 1264.72 782.188C1265.32 781.559 1265.7 780.646 1265.71 779.348C1265.73 778.023 1265.34 776.37 1264.46 774.47C1264.1 773.703 1263.67 772.915 1263.18 772.112L1249.61 789.482C1248.98 790.29 1249.13 791.458 1249.93 792.089L1252.86 794.376C1253.67 795.008 1254.84 794.864 1255.47 794.056L1264.43 782.583ZM1261.04 769.104C1260.89 768.913 1260.73 768.721 1260.57 768.529C1259.15 766.825 1257.49 765.163 1255.67 763.616L1236.25 788.477C1235.62 789.286 1235.77 790.453 1236.57 791.085L1239.5 793.372C1240.31 794.004 1241.48 793.86 1242.11 793.051L1260.41 769.624C1260.58 769.398 1260.8 769.224 1261.04 769.104ZM1252.74 761.329C1251.08 760.137 1249.35 759.077 1247.63 758.185C1247.18 757.952 1246.73 757.732 1246.28 757.525L1227.47 781.616C1226.84 782.425 1226.98 783.592 1227.79 784.224L1230.72 786.511C1231.53 787.142 1232.69 786.999 1233.33 786.19L1252.74 761.329ZM1242.68 756.103C1242.04 755.9 1241.42 755.728 1240.81 755.589C1238.7 755.1 1236.9 755.031 1235.51 755.292C1234.14 755.548 1233.26 756.101 1232.72 756.782L1223.26 768.898C1222.63 769.707 1222.77 770.875 1223.58 771.506L1226.51 773.793C1227.32 774.425 1228.48 774.281 1229.11 773.472L1242.68 756.103Z" fill="#FFFBFB"/>
<path d="M1265.54 735.178C1261.88 737.031 1260.41 741.502 1262.27 745.164C1264.12 748.826 1268.59 750.291 1272.25 748.438C1275.92 746.584 1277.38 742.113 1275.53 738.451C1275.06 737.536 1275.43 736.418 1276.35 735.955C1277.26 735.492 1278.38 735.858 1278.84 736.773C1281.62 742.266 1279.42 748.973 1273.93 751.753C1268.44 754.533 1261.73 752.335 1258.95 746.842C1256.17 741.349 1258.37 734.643 1263.86 731.862C1266.55 730.505 1269.52 730.335 1272.18 731.156C1273.16 731.458 1273.71 732.498 1273.41 733.478C1273.11 734.459 1272.07 735.009 1271.09 734.706C1269.31 734.158 1267.33 734.272 1265.54 735.178Z" fill="#FFFBFB"/>
</g>
<g style="mix-blend-mode:lighten" opacity="0.5">
<g clip-path="url(#clip3_65_3)">
<path fill-rule="evenodd" clip-rule="evenodd" d="M279.103 456.223C280.235 459.085 278.831 462.323 275.969 463.454C273.106 464.586 269.868 463.182 268.737 460.32C267.605 457.457 269.009 454.219 271.871 453.088C274.734 451.956 277.972 453.36 279.103 456.223ZM275.648 457.588C276.025 458.542 275.557 459.622 274.603 459.999C273.649 460.376 272.569 459.908 272.192 458.954C271.815 458 272.283 456.92 273.237 456.543C274.191 456.166 275.271 456.634 275.648 457.588Z" fill="#FFFDFD"/>
<path fill-rule="evenodd" clip-rule="evenodd" d="M271.106 471.369C272.238 474.232 270.834 477.47 267.971 478.601C265.109 479.732 261.871 478.329 260.74 475.466C259.608 472.604 261.012 469.366 263.874 468.234C266.737 467.103 269.975 468.506 271.106 471.369ZM267.651 472.735C268.028 473.689 267.56 474.768 266.606 475.145C265.652 475.523 264.572 475.055 264.195 474.101C263.818 473.146 264.286 472.067 265.24 471.69C266.194 471.313 267.274 471.781 267.651 472.735Z" fill="#FFFDFD"/>
<path fill-rule="evenodd" clip-rule="evenodd" d="M284.163 484.188C287.026 483.056 288.429 479.818 287.298 476.956C286.166 474.093 282.928 472.69 280.066 473.821C277.203 474.952 275.8 478.19 276.931 481.053C278.062 483.915 281.3 485.319 284.163 484.188ZM283.842 478.321C284.219 479.276 283.751 480.355 282.797 480.732C281.843 481.109 280.764 480.641 280.387 479.687C280.009 478.733 280.477 477.654 281.432 477.276C282.386 476.899 283.465 477.367 283.842 478.321Z" fill="#FFFDFD"/>
<path fill-rule="evenodd" clip-rule="evenodd" d="M295.295 461.809C296.426 464.672 295.023 467.91 292.16 469.041C289.297 470.172 286.06 468.769 284.928 465.906C283.797 463.044 285.2 459.806 288.063 458.674C290.926 457.543 294.163 458.946 295.295 461.809ZM291.839 463.175C292.216 464.129 291.749 465.208 290.794 465.585C289.84 465.963 288.761 465.495 288.384 464.54C288.007 463.586 288.474 462.507 289.429 462.13C290.383 461.753 291.462 462.221 291.839 463.175Z" fill="#FFFDFD"/>
<path fill-rule="evenodd" clip-rule="evenodd" d="M227.88 412.543C226.926 412.92 226.458 413.999 226.835 414.953C227.212 415.908 228.291 416.375 229.246 415.998L243.068 410.535C245.93 409.404 249.168 410.808 250.299 413.67L255.08 425.764L236.074 433.276C233.212 434.407 231.808 437.645 232.939 440.508L234.305 443.963C235.204 446.238 237.433 447.591 239.747 447.484L261.43 497.369C262.628 500.125 265.796 501.435 268.59 500.33L306.564 485.322C309.359 484.218 310.775 481.096 309.765 478.266L290.971 425.596L288.228 418.656C287.096 415.794 283.859 414.39 280.996 415.522L258.535 424.399L253.755 412.304C251.869 407.533 246.473 405.194 241.702 407.08L227.88 412.543ZM237.44 436.731L282.362 418.977C283.316 418.6 284.395 419.068 284.772 420.022L287.492 426.904L289.796 433.36C289.238 433.461 288.617 433.592 287.954 433.762C285.371 434.427 282.015 435.732 279.276 438.318C274.774 442.571 269.474 444.665 263.282 444.64C257.096 444.614 250.312 446.963 245.23 450.777L243.324 446.392L277.82 432.758C278.774 432.381 279.242 431.302 278.865 430.347C278.488 429.393 277.409 428.925 276.454 429.302L240.171 443.643C239.217 444.02 238.138 443.552 237.761 442.598L236.395 439.142C236.018 438.188 236.486 437.109 237.44 436.731ZM288.88 437.361C289.704 437.148 290.452 437.008 291.065 436.917L306.265 479.515C306.602 480.458 306.13 481.498 305.198 481.867L267.225 496.875C266.293 497.243 265.237 496.806 264.838 495.888L246.76 454.296C251.249 450.65 257.606 448.332 263.266 448.355C270.413 448.385 276.632 445.927 281.827 441.02C283.937 439.027 286.627 437.941 288.88 437.361Z" fill="#FFFDFD"/>
</g>
</g>
<g style="mix-blend-mode:lighten" opacity="0.5">
<path fill-rule="evenodd" clip-rule="evenodd" d="M663.205 751.957C664.635 747.194 668.953 744.28 672.849 745.449L706.712 755.612C710.608 756.782 712.608 761.591 711.178 766.355L711.113 766.573C713.317 768.069 714.305 771.311 713.34 774.526C712.374 777.747 709.758 779.91 707.09 779.939C707.064 780.07 707.027 780.201 706.976 780.33L685.787 834.148C685.423 835.072 684.523 835.554 683.777 835.225C683.031 834.895 682.721 833.879 683.085 832.955L704.207 779.308L661.892 766.608L650.653 819.843C650.463 820.745 650.868 821.596 651.592 821.814L676.876 829.402C677.655 829.636 678.055 830.598 677.769 831.551C677.483 832.503 676.619 833.086 675.84 832.852L650.556 825.264C648.385 824.612 647.169 822.058 647.741 819.352L659.018 765.937C659.046 765.801 659.087 765.671 659.138 765.548C656.927 764.054 655.935 760.808 656.901 757.588C657.866 754.372 660.476 752.21 663.14 752.175L663.205 751.957ZM705.677 759.063C708.014 759.764 709.214 762.65 708.356 765.508L666.027 752.804C666.885 749.946 669.476 748.198 671.813 748.899L705.677 759.063ZM663.581 755.831L708.732 769.382C710.29 769.85 711.09 771.774 710.518 773.679C709.946 775.585 708.219 776.751 706.661 776.283L661.51 762.732C659.951 762.264 659.151 760.34 659.723 758.435C660.295 756.529 662.022 755.364 663.581 755.831Z" fill="white"/>
<path d="M669.121 798.866C670.265 795.055 673.719 792.724 676.836 793.66C679.953 794.595 681.553 798.443 680.409 802.254C679.549 805.12 677.381 807.153 675.028 807.583C674.199 807.735 673.557 808.644 673.593 809.613C673.63 810.582 674.332 811.245 675.161 811.093C678.683 810.449 681.939 807.406 683.231 803.101C684.947 797.384 682.547 791.613 677.872 790.209C673.196 788.806 668.015 792.303 666.299 798.019C664.946 802.529 666.154 807.068 669.014 809.475C669.653 810.013 670.601 809.784 671.13 808.964C671.659 808.143 671.57 807.042 670.931 806.504C669.021 804.897 668.22 801.868 669.121 798.866Z" fill="white"/>
</g>
<g style="mix-blend-mode:lighten" opacity="0.5">
<path fill-rule="evenodd" clip-rule="evenodd" d="M1654.35 297.928C1651.61 293.779 1652.13 288.597 1655.53 286.353L1685.01 266.844C1688.41 264.599 1693.38 266.142 1696.12 270.291L1696.25 270.48C1698.81 269.744 1701.93 271.061 1703.79 273.861C1705.64 276.664 1705.63 280.059 1703.94 282.128C1704.03 282.231 1704.1 282.343 1704.17 282.465L1731.95 333.196C1732.43 334.067 1732.22 335.067 1731.49 335.429C1730.76 335.791 1729.78 335.379 1729.3 334.508L1701.61 283.938L1664.77 308.315L1698.47 351.029C1699.04 351.753 1699.95 351.986 1700.58 351.569L1722.6 337.004C1723.28 336.555 1724.27 336.863 1724.82 337.693C1725.37 338.522 1725.27 339.559 1724.59 340.008L1702.57 354.574C1700.68 355.824 1697.94 355.124 1696.23 352.952L1662.41 310.094C1662.33 309.985 1662.25 309.87 1662.19 309.752C1659.63 310.495 1656.5 309.179 1654.64 306.375C1652.79 303.575 1652.8 300.186 1654.48 298.117L1654.35 297.928ZM1687 269.848C1689.04 268.502 1692.02 269.427 1693.67 271.916L1656.81 296.302C1655.16 293.813 1655.48 290.704 1657.51 289.357L1687 269.848ZM1657.57 300.119L1696.88 274.108C1698.24 273.21 1700.23 273.827 1701.33 275.486C1702.43 277.146 1702.22 279.219 1700.86 280.116L1661.54 306.128C1660.19 307.026 1658.2 306.408 1657.1 304.749C1656 303.09 1656.21 301.017 1657.57 300.119Z" fill="white"/>
<path d="M1694.18 323.412C1691.98 320.094 1692.4 315.948 1695.12 314.152C1697.83 312.357 1701.81 313.591 1704.01 316.91C1705.66 319.405 1705.83 322.372 1704.66 324.455C1704.24 325.189 1704.53 326.264 1705.3 326.857C1706.06 327.449 1707.02 327.334 1707.44 326.6C1709.2 323.482 1708.94 319.033 1706.46 315.284C1703.17 310.306 1697.2 308.454 1693.13 311.148C1689.06 313.842 1688.43 320.06 1691.72 325.038C1694.32 328.965 1698.58 330.943 1702.26 330.286C1703.08 330.14 1703.51 329.265 1703.22 328.333C1702.93 327.402 1702.03 326.765 1701.2 326.912C1698.75 327.35 1695.91 326.026 1694.18 323.412Z" fill="white"/>
</g>
<g style="mix-blend-mode:lighten" opacity="0.5">
<path fill-rule="evenodd" clip-rule="evenodd" d="M1872.45 499.021C1870.75 501.14 1870.96 504.133 1872.93 505.705L1878.87 510.468C1878.12 511.802 1877.48 513.188 1876.96 514.607C1875.88 517.544 1875.33 520.572 1875.35 523.52C1875.37 526.469 1875.95 529.283 1877.08 531.796C1877.78 533.35 1878.68 534.768 1879.76 536.019L1878.56 537.518C1877.42 538.931 1877.57 540.926 1878.87 541.974L1881.24 543.872C1882.55 544.921 1884.53 544.625 1885.66 543.213L1886.69 541.934C1886.71 541.953 1886.74 541.972 1886.76 541.99L1921.87 566.446C1923.84 567.821 1926.65 567.313 1928.27 565.287L1944.93 544.499C1945.49 543.792 1945.42 542.795 1944.77 542.271C1944.11 541.746 1943.12 541.894 1942.56 542.6L1925.9 563.388C1925.36 564.064 1924.43 564.233 1923.77 563.775L1896.23 544.591L1918.39 516.934C1918.96 516.227 1918.88 515.23 1918.23 514.706C1917.58 514.181 1916.59 514.329 1916.02 515.035L1893.73 542.851L1888.74 539.373L1915.38 506.126L1948.79 537.089C1949.41 537.659 1950.4 537.578 1951.01 536.908C1951.61 536.238 1951.61 535.233 1950.99 534.663L1917.51 503.631C1917.48 503.608 1917.46 503.586 1917.43 503.565L1918.46 502.286C1919.59 500.873 1919.45 498.878 1918.14 497.83L1915.77 495.932C1914.46 494.883 1912.48 495.179 1911.35 496.591L1910.15 498.09C1908.69 497.311 1907.11 496.743 1905.44 496.399C1902.74 495.844 1899.87 495.887 1896.99 496.514C1894.11 497.141 1891.27 498.339 1888.64 500.031C1887.37 500.848 1886.16 501.774 1885.02 502.794L1879.07 498.032C1877.11 496.459 1874.14 496.902 1872.45 499.021ZM1882.69 505.126L1877.02 500.59C1876.37 500.065 1875.38 500.213 1874.82 500.919C1874.25 501.626 1874.32 502.623 1874.98 503.147L1880.64 507.684C1880.95 507.24 1881.28 506.804 1881.63 506.377C1881.97 505.95 1882.32 505.533 1882.69 505.126ZM1883.01 509.586C1883.32 509.14 1883.65 508.703 1884 508.275C1884.34 507.848 1884.69 507.432 1885.06 507.028L1895.98 515.776L1893.93 518.334L1883.01 509.586ZM1881.28 512.401C1880.74 513.414 1880.28 514.457 1879.89 515.52C1878.94 518.096 1878.47 520.728 1878.48 523.265C1878.5 525.8 1879 528.188 1879.95 530.296C1880.46 531.432 1881.09 532.477 1881.84 533.416L1891.88 520.891L1881.28 512.401ZM1898.03 513.218L1887.43 504.727C1888.3 503.982 1889.22 503.299 1890.17 502.687C1892.48 501.203 1894.94 500.166 1897.42 499.627C1899.9 499.088 1902.34 499.057 1904.6 499.523C1905.82 499.774 1906.98 500.168 1908.06 500.694L1898.03 513.218ZM1880.92 539.416L1913.72 498.49L1916.09 500.388L1883.29 541.314L1880.92 539.416Z" fill="white"/>
<path fill-rule="evenodd" clip-rule="evenodd" d="M1918.16 529.353C1920.13 530.926 1920.34 533.918 1918.64 536.037C1916.94 538.156 1913.98 538.599 1912.01 537.027C1910.05 535.454 1909.84 532.461 1911.54 530.342C1913.23 528.223 1916.2 527.78 1918.16 529.353ZM1916.11 531.911C1916.77 532.435 1916.84 533.433 1916.27 534.139C1915.71 534.845 1914.72 534.993 1914.06 534.469C1913.41 533.945 1913.34 532.947 1913.9 532.241C1914.47 531.534 1915.46 531.387 1916.11 531.911Z" fill="white"/>
<path fill-rule="evenodd" clip-rule="evenodd" d="M1923.05 540.911C1925.01 542.484 1925.22 545.476 1923.53 547.595C1921.83 549.714 1918.86 550.157 1916.9 548.585C1914.94 547.012 1914.72 544.02 1916.42 541.901C1918.12 539.782 1921.08 539.339 1923.05 540.911ZM1921 543.469C1921.65 543.993 1921.72 544.991 1921.16 545.697C1920.59 546.403 1919.6 546.551 1918.95 546.027C1918.29 545.503 1918.22 544.505 1918.79 543.799C1919.35 543.092 1920.34 542.945 1921 543.469Z" fill="white"/>
<path fill-rule="evenodd" clip-rule="evenodd" d="M1927.29 551.952C1929.25 553.524 1929.46 556.517 1927.76 558.636C1926.07 560.755 1923.1 561.198 1921.14 559.625C1919.17 558.053 1918.96 555.06 1920.66 552.941C1922.36 550.822 1925.32 550.379 1927.29 551.952ZM1925.24 554.509C1925.89 555.034 1925.96 556.031 1925.4 556.738C1924.83 557.444 1923.84 557.592 1923.19 557.067C1922.53 556.543 1922.46 555.546 1923.03 554.839C1923.59 554.133 1924.58 553.985 1925.24 554.509Z" fill="white"/>
<path fill-rule="evenodd" clip-rule="evenodd" d="M1934.74 542.65C1936.7 544.223 1936.92 547.215 1935.22 549.334C1933.52 551.453 1930.55 551.896 1928.59 550.324C1926.63 548.751 1926.41 545.759 1928.11 543.64C1929.81 541.521 1932.78 541.078 1934.74 542.65ZM1932.69 545.208C1933.34 545.732 1933.41 546.73 1932.85 547.436C1932.28 548.142 1931.29 548.29 1930.64 547.766C1929.99 547.242 1929.91 546.244 1930.48 545.538C1931.05 544.831 1932.03 544.684 1932.69 545.208Z" fill="white"/>
<path fill-rule="evenodd" clip-rule="evenodd" d="M1942.67 540.033C1944.37 537.914 1944.15 534.921 1942.19 533.349C1940.23 531.776 1937.26 532.219 1935.56 534.338C1933.87 536.457 1934.08 539.45 1936.04 541.022C1938.01 542.595 1940.97 542.152 1942.67 540.033ZM1940.3 538.135C1940.87 537.428 1940.8 536.431 1940.14 535.907C1939.49 535.382 1938.5 535.53 1937.93 536.236C1937.37 536.943 1937.44 537.94 1938.09 538.464C1938.75 538.989 1939.74 538.841 1940.3 538.135Z" fill="white"/>
<path fill-rule="evenodd" clip-rule="evenodd" d="M1930.98 538.294C1932.68 536.175 1932.46 533.182 1930.5 531.61C1928.54 530.037 1925.57 530.48 1923.87 532.599C1922.17 534.718 1922.39 537.711 1924.35 539.283C1926.31 540.856 1929.28 540.413 1930.98 538.294ZM1928.61 536.396C1929.18 535.689 1929.1 534.692 1928.45 534.168C1927.8 533.643 1926.81 533.791 1926.24 534.497C1925.68 535.204 1925.75 536.201 1926.4 536.725C1927.06 537.25 1928.04 537.102 1928.61 536.396Z" fill="white"/>
</g>
<g style="mix-blend-mode:lighten" opacity="0.5">
<path fill-rule="evenodd" clip-rule="evenodd" d="M56.9641 22.214C55.5545 19.8931 52.6694 19.07 50.5199 20.3755L44.0106 24.3288C43.0122 23.1698 41.9292 22.095 40.7746 21.1202C38.384 19.1019 35.7274 17.5472 32.9519 16.5529C30.1758 15.5586 27.3321 15.1436 24.5842 15.3454C22.8843 15.4702 21.2439 15.8293 19.6996 16.4133L18.7028 14.772C17.7631 13.2248 15.8397 12.676 14.4067 13.5463L11.812 15.1222C10.379 15.9925 9.97914 17.9523 10.9188 19.4996L11.7696 20.9003C11.7429 20.9165 11.7166 20.9338 11.6907 20.952L-23.307 45.5629C-25.2749 46.9468 -25.758 49.7546 -24.4099 51.9741L-10.582 74.7422C-10.1121 75.5159 -9.15037 75.7903 -8.43388 75.3551C-7.71738 74.92 -7.51744 73.94 -7.9873 73.1664L-21.8153 50.3983C-22.2646 49.6584 -22.1036 48.7225 -21.4476 48.2612L6.00636 28.9551L24.4036 59.2466C24.8734 60.0202 25.8352 60.2946 26.5516 59.8594C27.2681 59.4243 27.4681 58.4444 26.9982 57.6707L8.49515 27.2049L13.4727 23.7046L35.5887 60.1191L-4.9427 80.9089C-5.68887 81.2916 -5.95234 82.2511 -5.53119 83.052C-5.11003 83.8529 -4.16373 84.1918 -3.41757 83.8091L37.2039 62.973C37.2341 62.9576 37.2635 62.9411 37.2921 62.9238L38.1428 64.3245C39.0825 65.8718 41.006 66.4205 42.439 65.5502L45.0336 63.9744C46.4666 63.1041 46.8665 61.1442 45.9268 59.597L44.93 57.9558C46.1602 56.8546 47.2352 55.5647 48.1297 54.1138C49.5757 51.7684 50.5187 49.0537 50.9163 46.1318C51.3138 43.2105 51.159 40.1363 50.4703 37.0844C50.1376 35.6103 49.6832 34.1537 49.1151 32.7335L55.6244 28.7801C57.7738 27.4747 58.3737 24.5349 56.9641 22.214ZM47.7223 29.7444L53.9229 25.9786C54.6394 25.5434 54.8393 24.5635 54.3694 23.7899C53.8996 23.0162 52.9379 22.7419 52.2214 23.177L46.0208 26.9428C46.3291 27.3931 46.6256 27.8526 46.9098 28.3204C47.1939 28.7883 47.4649 29.2632 47.7223 29.7444ZM43.4211 28.5218C43.7324 28.9695 44.0307 29.428 44.3151 29.8963C44.5995 30.3645 44.8688 30.8406 45.1226 31.3233L33.1656 38.5853L31.4641 35.7837L43.4211 28.5218ZM41.3684 25.9335C40.6 25.0816 39.7796 24.2863 38.915 23.5564C36.8182 21.7861 34.5075 20.4391 32.1196 19.5837C29.7322 18.7286 27.3173 18.3825 25.0119 18.5518C23.7692 18.643 22.5696 18.8831 21.4316 19.2649L29.7626 32.9822L41.3684 25.9335ZM34.8671 41.3869L46.4729 34.3382C46.8746 35.4129 47.202 36.5075 47.4511 37.6113C48.0552 40.2881 48.1851 42.9596 47.8431 45.4729C47.5012 47.9857 46.6949 50.2881 45.4817 52.2559C44.8278 53.3165 44.0617 54.2703 43.1981 55.1041L34.8671 41.3869ZM16.1082 16.3479L43.3321 61.1728L40.7375 62.7487L13.5135 17.9237L16.1082 16.3479Z" fill="white"/>
<path fill-rule="evenodd" clip-rule="evenodd" d="M12.8124 54.7815C10.6629 56.087 7.77775 55.2638 6.36818 52.9429C4.95862 50.622 5.55845 47.6823 7.70793 46.3768C9.85742 45.0714 12.7426 45.8945 14.1522 48.2154C15.5617 50.5363 14.9619 53.476 12.8124 54.7815ZM11.1109 51.9799C10.3944 52.4151 9.4327 52.1407 8.96285 51.3671C8.49299 50.5935 8.69293 49.6135 9.40943 49.1784C10.1259 48.7432 11.0877 49.0176 11.5575 49.7912C12.0274 50.5649 11.8274 51.5448 11.1109 51.9799Z" fill="white"/>
<path fill-rule="evenodd" clip-rule="evenodd" d="M0.280578 55.413C-1.86891 56.7184 -4.75409 55.8953 -6.16366 53.5744C-7.57323 51.2535 -6.9734 48.3137 -4.82391 47.0083C-2.67443 45.7028 0.210758 46.526 1.62032 48.8469C3.02989 51.1677 2.43006 54.1075 0.280578 55.413ZM-1.42092 52.6114C-2.13741 53.0466 -3.09914 52.7722 -3.569 51.9985C-4.03885 51.2249 -3.83891 50.245 -3.12242 49.8098C-2.40592 49.3747 -1.44419 49.6491 -0.974337 50.4227C-0.504482 51.1963 -0.704423 52.1762 -1.42092 52.6114Z" fill="white"/>
<path fill-rule="evenodd" clip-rule="evenodd" d="M-11.5437 55.6147C-13.6932 56.9202 -16.5783 56.097 -17.9879 53.7761C-19.3975 51.4552 -18.7976 48.5155 -16.6482 47.21C-14.4987 45.9046 -11.6135 46.7277 -10.2039 49.0486C-8.79435 51.3695 -9.39418 54.3092 -11.5437 55.6147ZM-13.2452 52.8132C-13.9617 53.2483 -14.9234 52.9739 -15.3932 52.2003C-15.8631 51.4267 -15.6632 50.4468 -14.9467 50.0116C-14.2302 49.5764 -13.2684 49.8508 -12.7986 50.6245C-12.3287 51.3981 -12.5287 52.378 -13.2452 52.8132Z" fill="white"/>
<path fill-rule="evenodd" clip-rule="evenodd" d="M-5.3564 65.8022C-7.50588 67.1077 -10.3911 66.2845 -11.8006 63.9636C-13.2102 61.6427 -12.6104 58.703 -10.4609 57.3975C-8.3114 56.0921 -5.42621 56.9152 -4.01664 59.2361C-2.60708 61.557 -3.20691 64.4967 -5.3564 65.8022ZM-7.05789 63.0007C-7.77439 63.4358 -8.73612 63.1614 -9.20597 62.3878C-9.67583 61.6142 -9.47589 60.6343 -8.75939 60.1991C-8.04289 59.7639 -7.08117 60.0383 -6.61131 60.812C-6.14146 61.5856 -6.3414 62.5655 -7.05789 63.0007Z" fill="white"/>
<path fill-rule="evenodd" clip-rule="evenodd" d="M-5.61338 74.1511C-4.20381 76.472 -1.31863 77.2952 0.830858 75.9897C2.98034 74.6842 3.58018 71.7445 2.17061 69.4236C0.761045 67.1027 -2.12414 66.2795 -4.27363 67.585C-6.42312 68.8905 -7.02295 71.8302 -5.61338 74.1511ZM-3.01872 72.5753C-2.54886 73.3489 -1.58713 73.6233 -0.870638 73.1881C-0.154143 72.753 0.0457995 71.7731 -0.424055 70.9994C-0.89391 70.2258 -1.85564 69.9514 -2.57214 70.3866C-3.28863 70.8217 -3.48857 71.8016 -3.01872 72.5753Z" fill="white"/>
<path fill-rule="evenodd" clip-rule="evenodd" d="M0.0236093 63.7619C1.43318 66.0828 4.31836 66.9059 6.46785 65.6005C8.61733 64.295 9.21716 61.3552 7.80759 59.0344C6.39803 56.7135 3.51284 55.8903 1.36336 57.1958C-0.786131 58.5012 -1.38596 61.441 0.0236093 63.7619ZM2.61827 62.186C3.08813 62.9597 4.04985 63.2341 4.76635 62.7989C5.48285 62.3637 5.68279 61.3838 5.21293 60.6102C4.74308 59.8366 3.78135 59.5622 3.06485 59.9973C2.34836 60.4325 2.14842 61.4124 2.61827 62.186Z" fill="white"/>
</g>
</g>
<defs>
<clipPath id="clip0_65_3">
<rect width="1920" height="1080" fill="white"/>
</clipPath>
<clipPath id="clip1_65_3">
<rect width="119" height="117" fill="white" transform="translate(0.407227 649) rotate(33.9891)"/>
</clipPath>
<clipPath id="clip2_65_3">
<rect width="119" height="117" fill="white" transform="translate(1267.92 841.496) rotate(-142.011)"/>
</clipPath>
<clipPath id="clip3_65_3">
<rect width="119" height="131" fill="white" transform="translate(192 412.74) rotate(-21.5654)"/>
</clipPath>
</defs>
</svg>
