<svg width="122" height="122" viewBox="0 0 122 122" fill="none" xmlns="http://www.w3.org/2000/svg">
<path d="M61.3079 119.037C61.3172 120.274 62.3279 121.273 63.5635 121.218C70.7305 120.898 77.7895 119.303 84.4076 116.503C91.7138 113.411 98.3395 108.911 103.907 103.259C109.474 97.607 113.873 90.9139 116.853 83.5617C119.553 76.9019 121.04 69.8196 121.252 62.6485C121.288 61.4122 120.274 60.4168 119.037 60.4262C117.8 60.4356 116.81 61.4462 116.769 62.6824C116.556 69.2651 115.181 75.7644 112.702 81.879C109.943 88.6861 105.87 94.883 100.715 100.116C95.5612 105.349 89.4267 109.515 82.6622 112.378C76.5859 114.949 70.1081 116.422 63.5295 116.736C62.294 116.794 61.2985 117.8 61.3079 119.037Z" fill="url(#paint0_linear_33_44)"/>
<path d="M75.4967 4.56523C75.8077 3.36813 75.0901 2.14122 73.8823 1.87474C64.2789 -0.244078 54.2912 0.0114313 44.7898 2.63467C34.5679 5.45682 25.2689 10.9199 17.8275 18.475C10.3862 26.03 5.06461 35.4107 2.39771 45.6742C-0.0812224 55.2143 -0.185328 65.2047 2.07879 74.7749C2.36355 75.9785 3.6012 76.6774 4.79344 76.3483C5.98569 76.0191 6.68071 74.7865 6.39953 73.582C4.34252 64.7706 4.45161 55.5797 6.73279 46.8006C9.20196 37.2981 14.129 28.6129 21.0186 21.618C27.9082 14.6232 36.5177 9.56509 45.9818 6.95218C54.7253 4.53821 63.9135 4.28983 72.7551 6.21306C73.9637 6.47595 75.1856 5.76233 75.4967 4.56523Z" fill="url(#paint1_linear_33_44)"/>
<path d="M26.2562 25.5969C27.318 24.4999 29.0681 24.4714 30.1651 25.5332L88.4707 81.9678C89.5677 83.0296 89.5963 84.7797 88.5344 85.8767L86.7894 87.6796C85.7276 88.7767 83.9775 88.8052 82.8804 87.7434L24.5749 31.3088C23.4778 30.247 23.4493 28.4969 24.5111 27.3998L26.2562 25.5969Z" fill="url(#paint2_linear_33_44)"/>
<path d="M76.8565 69.3756C79.1051 67.0525 82.8112 66.992 85.1343 69.2406L90.9971 74.9152C93.3202 77.1638 93.3806 80.8699 91.132 83.1931L84.2972 90.2545C82.0486 92.5777 78.3425 92.6381 76.0193 90.3895L70.1566 84.7149C67.8335 82.4663 67.773 78.7602 70.0216 76.4371L76.8565 69.3756Z" fill="url(#paint3_linear_33_44)"/>
<path d="M86.2217 74.0921C87.2702 73.0088 88.9984 72.9806 90.0818 74.0292L100.434 84.0495C101.518 85.0981 101.546 86.8263 100.497 87.9096C99.4487 88.9929 97.7204 89.0211 96.6371 87.9725L86.2846 77.9522C85.2013 76.9037 85.1731 75.1755 86.2217 74.0921Z" fill="url(#paint4_linear_33_44)"/>
<path d="M82.157 81.3444C83.2055 80.2611 84.9338 80.2329 86.0171 81.2815L96.3696 91.3018C97.4529 92.3504 97.4811 94.0786 96.4326 95.1619C95.384 96.2452 93.6558 96.2734 92.5724 95.2248L82.2199 85.2046C81.1366 84.156 81.1084 82.4278 82.157 81.3444Z" fill="url(#paint5_linear_33_44)"/>
<path d="M75.0411 85.6434C76.0896 84.5601 77.8179 84.5319 78.9012 85.5804L89.2537 95.6007C90.337 96.6493 90.3652 98.3775 89.3166 99.4608C88.2681 100.544 86.5398 100.572 85.4565 99.5238L75.104 89.5035C74.0207 88.4549 73.9925 86.7267 75.0411 85.6434Z" fill="url(#paint6_linear_33_44)"/>
<path d="M64.8631 66.9243C63.7917 68.012 62.0414 68.0253 60.9537 66.9539L37.5513 43.9036C36.4636 42.8322 36.4503 41.0819 37.5217 39.9942L39.2334 38.2564C40.3047 37.1687 42.055 37.1554 43.1427 38.2268L66.5451 61.2771C67.6328 62.3485 67.6461 64.0988 66.5747 65.1865L64.8631 66.9243Z" fill="url(#paint7_linear_33_44)"/>
<path d="M45.2011 51.8948C42.9324 54.1982 39.2259 54.2263 36.9224 51.9576L22.4408 37.6937C20.1373 35.425 20.1093 31.7185 22.378 29.4151L29.4529 22.2322C31.7217 19.9287 35.4282 19.9006 37.7316 22.1694L52.2132 36.4332C54.5167 38.702 54.5447 42.4085 52.276 44.7119L45.2011 51.8948Z" fill="url(#paint8_linear_33_44)"/>
<defs>
<linearGradient id="paint0_linear_33_44" x1="18.596" y1="19.2318" x2="103.052" y2="101.934" gradientUnits="userSpaceOnUse">
<stop stop-color="#0085FF"/>
<stop offset="1" stop-color="#CE67FF"/>
<stop offset="1" stop-color="#CE67FF"/>
</linearGradient>
<linearGradient id="paint1_linear_33_44" x1="18.596" y1="19.2318" x2="103.052" y2="101.934" gradientUnits="userSpaceOnUse">
<stop stop-color="#0085FF"/>
<stop offset="1" stop-color="#CE67FF"/>
<stop offset="1" stop-color="#CE67FF"/>
</linearGradient>
<linearGradient id="paint2_linear_33_44" x1="60.6808" y1="20.2808" x2="61.2887" y2="100.49" gradientUnits="userSpaceOnUse">
<stop stop-color="#0085FF"/>
<stop offset="1" stop-color="#CE67FF"/>
</linearGradient>
<linearGradient id="paint3_linear_33_44" x1="60.6808" y1="20.2808" x2="61.2887" y2="100.49" gradientUnits="userSpaceOnUse">
<stop stop-color="#0085FF"/>
<stop offset="1" stop-color="#CE67FF"/>
</linearGradient>
<linearGradient id="paint4_linear_33_44" x1="60.6808" y1="20.2808" x2="61.2887" y2="100.49" gradientUnits="userSpaceOnUse">
<stop stop-color="#0085FF"/>
<stop offset="1" stop-color="#CE67FF"/>
</linearGradient>
<linearGradient id="paint5_linear_33_44" x1="60.6808" y1="20.2808" x2="61.2887" y2="100.49" gradientUnits="userSpaceOnUse">
<stop stop-color="#0085FF"/>
<stop offset="1" stop-color="#CE67FF"/>
</linearGradient>
<linearGradient id="paint6_linear_33_44" x1="60.6808" y1="20.2808" x2="61.2887" y2="100.49" gradientUnits="userSpaceOnUse">
<stop stop-color="#0085FF"/>
<stop offset="1" stop-color="#CE67FF"/>
</linearGradient>
<linearGradient id="paint7_linear_33_44" x1="60.6808" y1="20.2808" x2="61.2887" y2="100.49" gradientUnits="userSpaceOnUse">
<stop stop-color="#0085FF"/>
<stop offset="1" stop-color="#CE67FF"/>
</linearGradient>
<linearGradient id="paint8_linear_33_44" x1="60.6808" y1="20.2808" x2="61.2887" y2="100.49" gradientUnits="userSpaceOnUse">
<stop stop-color="#0085FF"/>
<stop offset="1" stop-color="#CE67FF"/>
</linearGradient>
</defs>
</svg>
