<svg width="242" height="242" viewBox="0 0 242 242" fill="none" xmlns="http://www.w3.org/2000/svg">
<circle cx="121" cy="121" r="121" fill="#474747"/>
<g style="mix-blend-mode:lighten" opacity="0.5">
<mask id="path-2-inside-1_234_388" fill="white">
<path d="M102.901 91.0109C102.176 90.2854 102.176 89.1091 102.901 88.3835L105.528 85.7562C106.254 85.0307 107.43 85.0307 108.156 85.7562C108.881 86.4817 108.881 87.658 108.156 88.3835L105.528 91.0109C104.803 91.7364 103.627 91.7364 102.901 91.0109Z"/>
<path d="M93.2404 96.9823C92.5149 97.7078 92.5149 98.8841 93.2404 99.6096C93.9659 100.335 95.1422 100.335 95.8677 99.6096L98.4951 96.9823C99.2206 96.2567 99.2206 95.0804 98.4951 94.3549C97.7696 93.6294 96.5933 93.6294 95.8677 94.3549L93.2404 96.9823Z"/>
<path d="M104.387 100.698C103.662 101.423 103.662 102.6 104.387 103.325C105.113 104.051 106.289 104.051 107.015 103.325L109.642 100.698C110.367 99.9724 110.367 98.7961 109.642 98.0705C108.916 97.345 107.74 97.345 107.015 98.0705L104.387 100.698Z"/>
<path d="M115.534 89.551C114.809 90.2765 114.809 91.4528 115.534 92.1784C116.26 92.9039 117.436 92.9039 118.161 92.1784L120.789 89.551C121.514 88.8255 121.514 87.6492 120.789 86.9237C120.063 86.1982 118.887 86.1982 118.161 86.9237L115.534 89.551Z"/>
<path d="M126.681 95.894C125.955 95.1685 125.955 93.9922 126.681 93.2666L129.308 90.6393C130.034 89.9138 131.21 89.9138 131.936 90.6393C132.661 91.3648 132.661 92.5411 131.936 93.2666L129.308 95.894C128.583 96.6195 127.406 96.6195 126.681 95.894Z"/>
<path d="M134.112 100.698C133.387 101.423 133.387 102.6 134.112 103.325C134.838 104.051 136.014 104.051 136.74 103.325L139.367 100.698C140.092 99.9724 140.092 98.7961 139.367 98.0705C138.641 97.345 137.465 97.345 136.74 98.0705L134.112 100.698Z"/>
<path d="M117.763 104.44C117.038 103.714 117.038 102.538 117.763 101.813L120.391 99.1852C121.116 98.4597 122.293 98.4597 123.018 99.1852C123.744 99.9108 123.744 101.087 123.018 101.813L120.391 104.44C119.665 105.165 118.489 105.165 117.763 104.44Z"/>
<path fill-rule="evenodd" clip-rule="evenodd" d="M81.9406 111.17C77.8373 111.085 74.4895 107.629 75.6727 103.699C76.2297 101.849 76.9834 100.038 77.9282 98.2869C80.0932 94.2737 83.2196 90.6513 87.1288 87.6265C91.0381 84.6017 95.6537 82.2337 100.712 80.6578C105.77 79.0818 111.173 78.3288 116.61 78.4416C122.047 78.5544 127.414 79.5309 132.402 81.3153C137.391 83.0997 141.904 85.6571 145.685 88.8415C149.465 92.0258 152.439 95.7747 154.435 99.8742C154.752 100.525 155.044 101.183 155.309 101.847C157.597 107.562 152.332 112.631 146.177 112.503L81.9406 111.17ZM79.2306 104.77C79.7136 103.166 80.3698 101.587 81.1984 100.051C83.0968 96.5319 85.869 93.2993 89.4026 90.5652C92.9373 87.8302 97.151 85.659 101.817 84.2052C106.483 82.7516 111.485 82.0517 116.533 82.1564C121.581 82.2611 126.549 83.1679 131.151 84.8138C135.753 86.4599 139.873 88.8041 143.291 91.6833C146.708 94.5616 149.344 97.9064 151.095 101.501C151.373 102.072 151.628 102.648 151.86 103.227C152.417 104.618 152.112 105.827 151.169 106.857C150.137 107.984 148.333 108.831 146.254 108.788L82.0177 107.455C80.9656 107.433 80.1012 106.976 79.6136 106.422C79.1761 105.925 79.0441 105.39 79.2306 104.77Z"/>
<path d="M81.1515 148.032C77.0473 148.032 73.7202 151.359 73.7202 155.464C73.7202 159.568 77.0473 162.895 81.1515 162.895H135.028C136.054 162.895 136.886 162.063 136.886 161.037C136.886 160.011 136.054 159.179 135.028 159.179H81.1515C79.0994 159.179 77.4358 157.516 77.4358 155.464C77.4358 153.412 79.0994 151.748 81.1515 151.748H151.748C153.8 151.748 155.464 153.412 155.464 155.464C155.464 157.516 153.8 159.179 151.748 159.179H144.317C143.291 159.179 142.459 160.011 142.459 161.037C142.459 162.063 143.291 162.895 144.317 162.895H151.748C155.852 162.895 159.179 159.568 159.179 155.464C159.179 151.359 155.852 148.032 151.748 148.032H81.1515Z"/>
<path d="M76.8277 116.933C77.97 117.971 78.9067 118.307 79.6652 118.307C80.4237 118.307 81.3605 117.971 82.5027 116.933C84.0852 115.494 85.8733 114.592 87.8396 114.592C89.8059 114.592 91.5939 115.494 93.1765 116.933C94.3187 117.971 95.2555 118.307 96.0139 118.307C96.7724 118.307 97.7092 117.971 98.8514 116.933C100.434 115.494 102.222 114.592 104.188 114.592C106.155 114.592 107.943 115.494 109.525 116.933C110.667 117.971 111.604 118.307 112.363 118.307C113.121 118.307 114.058 117.971 115.2 116.933C116.783 115.494 118.571 114.592 120.537 114.592C122.503 114.592 124.291 115.494 125.874 116.933C127.016 117.971 127.953 118.307 128.711 118.307C129.47 118.307 130.407 117.971 131.549 116.933C133.131 115.494 134.919 114.592 136.886 114.592C138.852 114.592 140.64 115.494 142.223 116.933C143.365 117.971 144.302 118.307 145.06 118.307C145.819 118.307 146.755 117.971 147.898 116.933C149.48 115.494 151.268 114.592 153.234 114.592C155.201 114.592 156.989 115.494 158.571 116.933C159.331 117.623 159.386 118.798 158.696 119.557C158.006 120.316 156.831 120.372 156.072 119.682C154.93 118.644 153.993 118.307 153.234 118.307C152.476 118.307 151.539 118.644 150.397 119.682C148.814 121.121 147.026 122.023 145.06 122.023C143.094 122.023 141.306 121.121 139.723 119.682C138.581 118.644 137.644 118.307 136.886 118.307C136.127 118.307 135.191 118.644 134.048 119.682C132.466 121.121 130.678 122.023 128.711 122.023C126.745 122.023 124.957 121.121 123.375 119.682C122.232 118.644 121.295 118.307 120.537 118.307C119.779 118.307 118.842 118.644 117.7 119.682C116.117 121.121 114.329 122.023 112.363 122.023C110.396 122.023 108.608 121.121 107.026 119.682C105.884 118.644 104.947 118.307 104.188 118.307C103.43 118.307 102.493 118.644 101.351 119.682C99.7683 121.121 97.9803 122.023 96.0139 122.023C94.0476 122.023 92.2596 121.121 90.6771 119.682C89.5348 118.644 88.598 118.307 87.8396 118.307C87.0811 118.307 86.1443 118.644 85.0021 119.682C83.4196 121.121 81.6315 122.023 79.6652 122.023C77.6989 122.023 75.9109 121.121 74.3283 119.682C73.5691 118.992 73.5132 117.817 74.2034 117.058C74.8936 116.299 76.0685 116.243 76.8277 116.933Z"/>
<path d="M81.1515 131.312C81.1515 130.286 81.9832 129.454 83.0093 129.454H153.606C154.632 129.454 155.464 128.623 155.464 127.597C155.464 126.57 154.632 125.739 153.606 125.739H83.0093C79.9312 125.739 77.4358 128.234 77.4358 131.312C77.4358 134.39 79.9312 136.886 83.0093 136.886H149.89C150.916 136.886 151.748 137.717 151.748 138.743C151.748 139.769 150.916 140.601 149.89 140.601H79.2937C78.2676 140.601 77.4358 141.433 77.4358 142.459C77.4358 143.485 78.2676 144.317 79.2937 144.317H149.89C152.969 144.317 155.464 141.821 155.464 138.743C155.464 135.665 152.969 133.17 149.89 133.17H83.0093C81.9832 133.17 81.1515 132.338 81.1515 131.312Z"/>
</mask>
<path d="M102.901 91.0109C102.176 90.2854 102.176 89.1091 102.901 88.3835L105.528 85.7562C106.254 85.0307 107.43 85.0307 108.156 85.7562C108.881 86.4817 108.881 87.658 108.156 88.3835L105.528 91.0109C104.803 91.7364 103.627 91.7364 102.901 91.0109Z" fill="#FFFCFC"/>
<path d="M93.2404 96.9823C92.5149 97.7078 92.5149 98.8841 93.2404 99.6096C93.9659 100.335 95.1422 100.335 95.8677 99.6096L98.4951 96.9823C99.2206 96.2567 99.2206 95.0804 98.4951 94.3549C97.7696 93.6294 96.5933 93.6294 95.8677 94.3549L93.2404 96.9823Z" fill="#FFFCFC"/>
<path d="M104.387 100.698C103.662 101.423 103.662 102.6 104.387 103.325C105.113 104.051 106.289 104.051 107.015 103.325L109.642 100.698C110.367 99.9724 110.367 98.7961 109.642 98.0705C108.916 97.345 107.74 97.345 107.015 98.0705L104.387 100.698Z" fill="#FFFCFC"/>
<path d="M115.534 89.551C114.809 90.2765 114.809 91.4528 115.534 92.1784C116.26 92.9039 117.436 92.9039 118.161 92.1784L120.789 89.551C121.514 88.8255 121.514 87.6492 120.789 86.9237C120.063 86.1982 118.887 86.1982 118.161 86.9237L115.534 89.551Z" fill="#FFFCFC"/>
<path d="M126.681 95.894C125.955 95.1685 125.955 93.9922 126.681 93.2666L129.308 90.6393C130.034 89.9138 131.21 89.9138 131.936 90.6393C132.661 91.3648 132.661 92.5411 131.936 93.2666L129.308 95.894C128.583 96.6195 127.406 96.6195 126.681 95.894Z" fill="#FFFCFC"/>
<path d="M134.112 100.698C133.387 101.423 133.387 102.6 134.112 103.325C134.838 104.051 136.014 104.051 136.74 103.325L139.367 100.698C140.092 99.9724 140.092 98.7961 139.367 98.0705C138.641 97.345 137.465 97.345 136.74 98.0705L134.112 100.698Z" fill="#FFFCFC"/>
<path d="M117.763 104.44C117.038 103.714 117.038 102.538 117.763 101.813L120.391 99.1852C121.116 98.4597 122.293 98.4597 123.018 99.1852C123.744 99.9108 123.744 101.087 123.018 101.813L120.391 104.44C119.665 105.165 118.489 105.165 117.763 104.44Z" fill="#FFFCFC"/>
<path fill-rule="evenodd" clip-rule="evenodd" d="M81.9406 111.17C77.8373 111.085 74.4895 107.629 75.6727 103.699C76.2297 101.849 76.9834 100.038 77.9282 98.2869C80.0932 94.2737 83.2196 90.6513 87.1288 87.6265C91.0381 84.6017 95.6537 82.2337 100.712 80.6578C105.77 79.0818 111.173 78.3288 116.61 78.4416C122.047 78.5544 127.414 79.5309 132.402 81.3153C137.391 83.0997 141.904 85.6571 145.685 88.8415C149.465 92.0258 152.439 95.7747 154.435 99.8742C154.752 100.525 155.044 101.183 155.309 101.847C157.597 107.562 152.332 112.631 146.177 112.503L81.9406 111.17ZM79.2306 104.77C79.7136 103.166 80.3698 101.587 81.1984 100.051C83.0968 96.5319 85.869 93.2993 89.4026 90.5652C92.9373 87.8302 97.151 85.659 101.817 84.2052C106.483 82.7516 111.485 82.0517 116.533 82.1564C121.581 82.2611 126.549 83.1679 131.151 84.8138C135.753 86.4599 139.873 88.8041 143.291 91.6833C146.708 94.5616 149.344 97.9064 151.095 101.501C151.373 102.072 151.628 102.648 151.86 103.227C152.417 104.618 152.112 105.827 151.169 106.857C150.137 107.984 148.333 108.831 146.254 108.788L82.0177 107.455C80.9656 107.433 80.1012 106.976 79.6136 106.422C79.1761 105.925 79.0441 105.39 79.2306 104.77Z" fill="#FFFCFC"/>
<path d="M81.1515 148.032C77.0473 148.032 73.7202 151.359 73.7202 155.464C73.7202 159.568 77.0473 162.895 81.1515 162.895H135.028C136.054 162.895 136.886 162.063 136.886 161.037C136.886 160.011 136.054 159.179 135.028 159.179H81.1515C79.0994 159.179 77.4358 157.516 77.4358 155.464C77.4358 153.412 79.0994 151.748 81.1515 151.748H151.748C153.8 151.748 155.464 153.412 155.464 155.464C155.464 157.516 153.8 159.179 151.748 159.179H144.317C143.291 159.179 142.459 160.011 142.459 161.037C142.459 162.063 143.291 162.895 144.317 162.895H151.748C155.852 162.895 159.179 159.568 159.179 155.464C159.179 151.359 155.852 148.032 151.748 148.032H81.1515Z" fill="#FFFCFC"/>
<path d="M76.8277 116.933C77.97 117.971 78.9067 118.307 79.6652 118.307C80.4237 118.307 81.3605 117.971 82.5027 116.933C84.0852 115.494 85.8733 114.592 87.8396 114.592C89.8059 114.592 91.5939 115.494 93.1765 116.933C94.3187 117.971 95.2555 118.307 96.0139 118.307C96.7724 118.307 97.7092 117.971 98.8514 116.933C100.434 115.494 102.222 114.592 104.188 114.592C106.155 114.592 107.943 115.494 109.525 116.933C110.667 117.971 111.604 118.307 112.363 118.307C113.121 118.307 114.058 117.971 115.2 116.933C116.783 115.494 118.571 114.592 120.537 114.592C122.503 114.592 124.291 115.494 125.874 116.933C127.016 117.971 127.953 118.307 128.711 118.307C129.47 118.307 130.407 117.971 131.549 116.933C133.131 115.494 134.919 114.592 136.886 114.592C138.852 114.592 140.64 115.494 142.223 116.933C143.365 117.971 144.302 118.307 145.06 118.307C145.819 118.307 146.755 117.971 147.898 116.933C149.48 115.494 151.268 114.592 153.234 114.592C155.201 114.592 156.989 115.494 158.571 116.933C159.331 117.623 159.386 118.798 158.696 119.557C158.006 120.316 156.831 120.372 156.072 119.682C154.93 118.644 153.993 118.307 153.234 118.307C152.476 118.307 151.539 118.644 150.397 119.682C148.814 121.121 147.026 122.023 145.06 122.023C143.094 122.023 141.306 121.121 139.723 119.682C138.581 118.644 137.644 118.307 136.886 118.307C136.127 118.307 135.191 118.644 134.048 119.682C132.466 121.121 130.678 122.023 128.711 122.023C126.745 122.023 124.957 121.121 123.375 119.682C122.232 118.644 121.295 118.307 120.537 118.307C119.779 118.307 118.842 118.644 117.7 119.682C116.117 121.121 114.329 122.023 112.363 122.023C110.396 122.023 108.608 121.121 107.026 119.682C105.884 118.644 104.947 118.307 104.188 118.307C103.43 118.307 102.493 118.644 101.351 119.682C99.7683 121.121 97.9803 122.023 96.0139 122.023C94.0476 122.023 92.2596 121.121 90.6771 119.682C89.5348 118.644 88.598 118.307 87.8396 118.307C87.0811 118.307 86.1443 118.644 85.0021 119.682C83.4196 121.121 81.6315 122.023 79.6652 122.023C77.6989 122.023 75.9109 121.121 74.3283 119.682C73.5691 118.992 73.5132 117.817 74.2034 117.058C74.8936 116.299 76.0685 116.243 76.8277 116.933Z" fill="#FFFCFC"/>
<path d="M81.1515 131.312C81.1515 130.286 81.9832 129.454 83.0093 129.454H153.606C154.632 129.454 155.464 128.623 155.464 127.597C155.464 126.57 154.632 125.739 153.606 125.739H83.0093C79.9312 125.739 77.4358 128.234 77.4358 131.312C77.4358 134.39 79.9312 136.886 83.0093 136.886H149.89C150.916 136.886 151.748 137.717 151.748 138.743C151.748 139.769 150.916 140.601 149.89 140.601H79.2937C78.2676 140.601 77.4358 141.433 77.4358 142.459C77.4358 143.485 78.2676 144.317 79.2937 144.317H149.89C152.969 144.317 155.464 141.821 155.464 138.743C155.464 135.665 152.969 133.17 149.89 133.17H83.0093C81.9832 133.17 81.1515 132.338 81.1515 131.312Z" fill="#FFFCFC"/>
<path d="M102.901 91.0109C102.176 90.2854 102.176 89.1091 102.901 88.3835L105.528 85.7562C106.254 85.0307 107.43 85.0307 108.156 85.7562C108.881 86.4817 108.881 87.658 108.156 88.3835L105.528 91.0109C104.803 91.7364 103.627 91.7364 102.901 91.0109Z" stroke="#FFFCFC" stroke-width="7.43124" mask="url(#path-2-inside-1_234_388)"/>
<path d="M93.2404 96.9823C92.5149 97.7078 92.5149 98.8841 93.2404 99.6096C93.9659 100.335 95.1422 100.335 95.8677 99.6096L98.4951 96.9823C99.2206 96.2567 99.2206 95.0804 98.4951 94.3549C97.7696 93.6294 96.5933 93.6294 95.8677 94.3549L93.2404 96.9823Z" stroke="#FFFCFC" stroke-width="7.43124" mask="url(#path-2-inside-1_234_388)"/>
<path d="M104.387 100.698C103.662 101.423 103.662 102.6 104.387 103.325C105.113 104.051 106.289 104.051 107.015 103.325L109.642 100.698C110.367 99.9724 110.367 98.7961 109.642 98.0705C108.916 97.345 107.74 97.345 107.015 98.0705L104.387 100.698Z" stroke="#FFFCFC" stroke-width="7.43124" mask="url(#path-2-inside-1_234_388)"/>
<path d="M115.534 89.551C114.809 90.2765 114.809 91.4528 115.534 92.1784C116.26 92.9039 117.436 92.9039 118.161 92.1784L120.789 89.551C121.514 88.8255 121.514 87.6492 120.789 86.9237C120.063 86.1982 118.887 86.1982 118.161 86.9237L115.534 89.551Z" stroke="#FFFCFC" stroke-width="7.43124" mask="url(#path-2-inside-1_234_388)"/>
<path d="M126.681 95.894C125.955 95.1685 125.955 93.9922 126.681 93.2666L129.308 90.6393C130.034 89.9138 131.21 89.9138 131.936 90.6393C132.661 91.3648 132.661 92.5411 131.936 93.2666L129.308 95.894C128.583 96.6195 127.406 96.6195 126.681 95.894Z" stroke="#FFFCFC" stroke-width="7.43124" mask="url(#path-2-inside-1_234_388)"/>
<path d="M134.112 100.698C133.387 101.423 133.387 102.6 134.112 103.325C134.838 104.051 136.014 104.051 136.74 103.325L139.367 100.698C140.092 99.9724 140.092 98.7961 139.367 98.0705C138.641 97.345 137.465 97.345 136.74 98.0705L134.112 100.698Z" stroke="#FFFCFC" stroke-width="7.43124" mask="url(#path-2-inside-1_234_388)"/>
<path d="M117.763 104.44C117.038 103.714 117.038 102.538 117.763 101.813L120.391 99.1852C121.116 98.4597 122.293 98.4597 123.018 99.1852C123.744 99.9108 123.744 101.087 123.018 101.813L120.391 104.44C119.665 105.165 118.489 105.165 117.763 104.44Z" stroke="#FFFCFC" stroke-width="7.43124" mask="url(#path-2-inside-1_234_388)"/>
<path fill-rule="evenodd" clip-rule="evenodd" d="M81.9406 111.17C77.8373 111.085 74.4895 107.629 75.6727 103.699C76.2297 101.849 76.9834 100.038 77.9282 98.2869C80.0932 94.2737 83.2196 90.6513 87.1288 87.6265C91.0381 84.6017 95.6537 82.2337 100.712 80.6578C105.77 79.0818 111.173 78.3288 116.61 78.4416C122.047 78.5544 127.414 79.5309 132.402 81.3153C137.391 83.0997 141.904 85.6571 145.685 88.8415C149.465 92.0258 152.439 95.7747 154.435 99.8742C154.752 100.525 155.044 101.183 155.309 101.847C157.597 107.562 152.332 112.631 146.177 112.503L81.9406 111.17ZM79.2306 104.77C79.7136 103.166 80.3698 101.587 81.1984 100.051C83.0968 96.5319 85.869 93.2993 89.4026 90.5652C92.9373 87.8302 97.151 85.659 101.817 84.2052C106.483 82.7516 111.485 82.0517 116.533 82.1564C121.581 82.2611 126.549 83.1679 131.151 84.8138C135.753 86.4599 139.873 88.8041 143.291 91.6833C146.708 94.5616 149.344 97.9064 151.095 101.501C151.373 102.072 151.628 102.648 151.86 103.227C152.417 104.618 152.112 105.827 151.169 106.857C150.137 107.984 148.333 108.831 146.254 108.788L82.0177 107.455C80.9656 107.433 80.1012 106.976 79.6136 106.422C79.1761 105.925 79.0441 105.39 79.2306 104.77Z" stroke="#FFFCFC" stroke-width="7.43124" mask="url(#path-2-inside-1_234_388)"/>
<path d="M81.1515 148.032C77.0473 148.032 73.7202 151.359 73.7202 155.464C73.7202 159.568 77.0473 162.895 81.1515 162.895H135.028C136.054 162.895 136.886 162.063 136.886 161.037C136.886 160.011 136.054 159.179 135.028 159.179H81.1515C79.0994 159.179 77.4358 157.516 77.4358 155.464C77.4358 153.412 79.0994 151.748 81.1515 151.748H151.748C153.8 151.748 155.464 153.412 155.464 155.464C155.464 157.516 153.8 159.179 151.748 159.179H144.317C143.291 159.179 142.459 160.011 142.459 161.037C142.459 162.063 143.291 162.895 144.317 162.895H151.748C155.852 162.895 159.179 159.568 159.179 155.464C159.179 151.359 155.852 148.032 151.748 148.032H81.1515Z" stroke="#FFFCFC" stroke-width="7.43124" mask="url(#path-2-inside-1_234_388)"/>
<path d="M76.8277 116.933C77.97 117.971 78.9067 118.307 79.6652 118.307C80.4237 118.307 81.3605 117.971 82.5027 116.933C84.0852 115.494 85.8733 114.592 87.8396 114.592C89.8059 114.592 91.5939 115.494 93.1765 116.933C94.3187 117.971 95.2555 118.307 96.0139 118.307C96.7724 118.307 97.7092 117.971 98.8514 116.933C100.434 115.494 102.222 114.592 104.188 114.592C106.155 114.592 107.943 115.494 109.525 116.933C110.667 117.971 111.604 118.307 112.363 118.307C113.121 118.307 114.058 117.971 115.2 116.933C116.783 115.494 118.571 114.592 120.537 114.592C122.503 114.592 124.291 115.494 125.874 116.933C127.016 117.971 127.953 118.307 128.711 118.307C129.47 118.307 130.407 117.971 131.549 116.933C133.131 115.494 134.919 114.592 136.886 114.592C138.852 114.592 140.64 115.494 142.223 116.933C143.365 117.971 144.302 118.307 145.06 118.307C145.819 118.307 146.755 117.971 147.898 116.933C149.48 115.494 151.268 114.592 153.234 114.592C155.201 114.592 156.989 115.494 158.571 116.933C159.331 117.623 159.386 118.798 158.696 119.557C158.006 120.316 156.831 120.372 156.072 119.682C154.93 118.644 153.993 118.307 153.234 118.307C152.476 118.307 151.539 118.644 150.397 119.682C148.814 121.121 147.026 122.023 145.06 122.023C143.094 122.023 141.306 121.121 139.723 119.682C138.581 118.644 137.644 118.307 136.886 118.307C136.127 118.307 135.191 118.644 134.048 119.682C132.466 121.121 130.678 122.023 128.711 122.023C126.745 122.023 124.957 121.121 123.375 119.682C122.232 118.644 121.295 118.307 120.537 118.307C119.779 118.307 118.842 118.644 117.7 119.682C116.117 121.121 114.329 122.023 112.363 122.023C110.396 122.023 108.608 121.121 107.026 119.682C105.884 118.644 104.947 118.307 104.188 118.307C103.43 118.307 102.493 118.644 101.351 119.682C99.7683 121.121 97.9803 122.023 96.0139 122.023C94.0476 122.023 92.2596 121.121 90.6771 119.682C89.5348 118.644 88.598 118.307 87.8396 118.307C87.0811 118.307 86.1443 118.644 85.0021 119.682C83.4196 121.121 81.6315 122.023 79.6652 122.023C77.6989 122.023 75.9109 121.121 74.3283 119.682C73.5691 118.992 73.5132 117.817 74.2034 117.058C74.8936 116.299 76.0685 116.243 76.8277 116.933Z" stroke="#FFFCFC" stroke-width="7.43124" mask="url(#path-2-inside-1_234_388)"/>
<path d="M81.1515 131.312C81.1515 130.286 81.9832 129.454 83.0093 129.454H153.606C154.632 129.454 155.464 128.623 155.464 127.597C155.464 126.57 154.632 125.739 153.606 125.739H83.0093C79.9312 125.739 77.4358 128.234 77.4358 131.312C77.4358 134.39 79.9312 136.886 83.0093 136.886H149.89C150.916 136.886 151.748 137.717 151.748 138.743C151.748 139.769 150.916 140.601 149.89 140.601H79.2937C78.2676 140.601 77.4358 141.433 77.4358 142.459C77.4358 143.485 78.2676 144.317 79.2937 144.317H149.89C152.969 144.317 155.464 141.821 155.464 138.743C155.464 135.665 152.969 133.17 149.89 133.17H83.0093C81.9832 133.17 81.1515 132.338 81.1515 131.312Z" stroke="#FFFCFC" stroke-width="7.43124" mask="url(#path-2-inside-1_234_388)"/>
</g>
</svg>
