<svg width="167" height="168" viewBox="0 0 167 168" fill="none" xmlns="http://www.w3.org/2000/svg">
<g style="mix-blend-mode:lighten" opacity="0.5">
<path fill-rule="evenodd" clip-rule="evenodd" d="M66.76 52.1037L69.3694 50.1134C72.6326 47.6243 77.2958 48.2519 79.7849 51.5151C80.6152 52.6037 81.0987 53.8481 81.2532 55.1155C85.2766 52.5816 90.6412 53.4948 93.5804 57.3483C95.0122 59.2254 95.619 61.4731 95.4594 63.656C99.0651 62.56 103.129 63.7397 105.548 66.9121C108.66 70.9911 107.875 76.8201 103.796 79.9314L77.2875 100.151L111.275 123.275C112.751 124.28 114.656 122.827 114.078 121.137L102.464 87.218C102.132 86.2473 102.65 85.191 103.62 84.8586C104.591 84.5263 105.647 85.0438 105.98 86.0145L117.593 119.934C119.328 125.001 113.613 129.36 109.185 126.347L74.6854 102.875C74.5156 102.759 74.371 102.621 74.2529 102.466C70.1739 105.577 64.3452 104.792 61.234 100.713C58.8142 97.5411 58.7508 93.3102 60.7611 90.1225C58.6137 89.6994 56.6063 88.52 55.1745 86.6429C52.2353 82.7894 52.7728 77.3743 56.2803 74.1639C55.0988 73.6798 54.0265 72.8845 53.1962 71.7959C50.7071 68.5327 51.3347 63.8696 54.5979 61.3805L56.1582 60.1904C55.732 59.3949 55.3723 58.5035 55.0691 57.6157C54.4988 55.9457 54.0458 54.034 53.7396 52.1964C53.4343 50.3639 53.2638 48.5384 53.2862 47.0414C53.2973 46.2986 53.3565 45.572 53.4973 44.9403C53.6167 44.4048 53.8764 43.5328 54.591 42.9466C55.7635 41.9849 57.0827 42.4851 57.6717 42.799C58.3362 43.153 58.9834 43.7165 59.5517 44.2724C60.5409 45.2399 61.6657 46.5667 62.7322 47.8246C62.9137 48.0387 63.0935 48.2508 63.2707 48.4588C64.556 49.9678 65.6926 51.2491 66.5805 51.9648C66.6463 52.0179 66.7061 52.0639 66.76 52.1037ZM60.0099 59.3078C59.6041 58.857 59.0875 57.8854 58.5853 56.4149C58.0937 54.9754 57.6848 53.2671 57.4047 51.5857C57.1236 49.899 56.9833 48.3063 57.0014 47.097L57.0038 46.9779C57.8459 47.8091 58.8183 48.9553 59.8756 50.2014C60.0619 50.4209 60.2508 50.6436 60.4421 50.8681C61.6735 52.3139 63.0386 53.8823 64.2487 54.8577C64.8195 55.3177 65.6078 55.8603 66.5038 56.0112C67.0046 56.0956 67.6015 56.0676 68.1857 55.7743C68.5997 55.5665 68.915 55.2719 69.1515 54.9527L71.6228 53.0677C73.2544 51.8231 75.586 52.1369 76.8306 53.7685C78.0751 55.4001 77.7613 57.7317 76.1297 58.9763L73.1754 61.2297C72.3596 61.8519 72.2027 63.0177 72.8249 63.8335C73.4472 64.6494 74.613 64.8062 75.4288 64.184L82.8146 58.5504C85.262 56.6836 88.7593 57.1543 90.6261 59.6017C92.493 62.0491 92.0223 65.5465 89.5748 67.4133L76.2805 77.5537C75.4647 78.176 75.3078 79.3418 75.9301 80.1576C76.5523 80.9734 77.7181 81.1303 78.5339 80.508L94.7826 68.1142C97.23 66.2474 100.727 66.7181 102.594 69.1655C104.461 71.6129 103.99 75.1103 101.543 76.9771L71.9999 99.5114C69.5524 101.378 66.0551 100.907 64.1883 98.46C62.3215 96.0126 62.7921 92.5153 65.2396 90.6485L69.882 87.1074C70.6978 86.4851 70.8547 85.3193 70.2325 84.5035C69.6102 83.6877 68.4444 83.5308 67.6286 84.1531L65.9404 85.4407C63.493 87.3075 59.9957 86.8368 58.1288 84.3894C56.262 81.942 56.7327 78.4446 59.1802 76.5778L63.4006 73.3586C63.4242 73.3407 63.4472 73.3223 63.4696 73.3034C63.5172 73.2688 63.5646 73.2336 63.6116 73.1977L65.0888 72.071C65.9046 71.4487 66.0615 70.2829 65.4392 69.4671C64.8169 68.6513 63.6511 68.4944 62.8353 69.1167L61.3582 70.2434C59.7266 71.4879 57.395 71.1741 56.1505 69.5425C54.9059 67.9109 55.2197 65.5793 56.8513 64.3348L59.8056 62.0814C60.6214 61.4591 60.7783 60.2933 60.1561 59.4775C60.1102 59.4173 60.0613 59.3607 60.0099 59.3078ZM55.8656 46.0494L55.8756 46.0536C55.8715 46.0517 55.8672 46.05 55.8656 46.0494C55.8656 46.0493 55.8646 46.0489 55.8656 46.0494Z" fill="#FFFFEA"/>
</g>
</svg>
