<svg width="628" height="366" viewBox="0 0 628 366" fill="none" xmlns="http://www.w3.org/2000/svg">
<path d="M314 0L342.738 88.4458H435.735L360.499 143.108L389.237 231.554L314 176.892L238.763 231.554L267.501 143.108L192.265 88.4458H285.262L314 0Z" fill="#C2C535"/>
<path d="M314 0L342.738 88.4458H435.741L360.499 143.108L389.237 231.554L314 176.892C314 176.892 330.666 184.142 338.601 178.682C351.043 170.121 331.125 140.518 319.549 118.936C308.636 98.5896 291.804 67.8844 291.804 67.8844L314 0Z" fill="#DE2C20"/>
<path d="M50.2 292V222H75.3C81.1667 222 86.2 222.933 90.4 224.8C94.6 226.667 97.8333 229.367 100.1 232.9C102.367 236.367 103.5 240.6 103.5 245.6C103.5 250.467 102.367 254.667 100.1 258.2C97.8333 261.667 94.6 264.367 90.4 266.3C86.2 268.167 81.1667 269.1 75.3 269.1H53L55.3 266.7V292H50.2ZM98.8 292L80.6 266.6H86.4L104.6 292H98.8ZM55.3 267L53 264.6H75.3C82.8333 264.6 88.5333 262.933 92.4 259.6C96.3333 256.267 98.3 251.6 98.3 245.6C98.3 239.533 96.3333 234.867 92.4 231.6C88.5333 228.267 82.8333 226.6 75.3 226.6H53L55.3 224.1V267ZM152.984 292V280.1L152.784 278.3V258.7C152.784 253.833 151.451 250.133 148.784 247.6C146.184 245.067 142.351 243.8 137.284 243.8C133.684 243.8 130.318 244.433 127.184 245.7C124.118 246.9 121.484 248.467 119.284 250.4L116.784 246.8C119.384 244.467 122.518 242.667 126.184 241.4C129.851 240.067 133.684 239.4 137.684 239.4C144.151 239.4 149.118 241.033 152.584 244.3C156.051 247.567 157.784 252.433 157.784 258.9V292H152.984ZM134.184 292.4C130.318 292.4 126.951 291.8 124.084 290.6C121.284 289.333 119.118 287.567 117.584 285.3C116.118 283.033 115.384 280.433 115.384 277.5C115.384 274.833 115.984 272.433 117.184 270.3C118.451 268.1 120.518 266.333 123.384 265C126.251 263.6 130.084 262.9 134.884 262.9H154.084V266.8H134.984C129.584 266.8 125.784 267.8 123.584 269.8C121.451 271.8 120.384 274.3 120.384 277.3C120.384 280.633 121.651 283.3 124.184 285.3C126.718 287.3 130.284 288.3 134.884 288.3C139.284 288.3 142.984 287.3 145.984 285.3C149.051 283.3 151.318 280.4 152.784 276.6L154.184 280C152.784 283.8 150.384 286.833 146.984 289.1C143.651 291.3 139.384 292.4 134.184 292.4ZM193.585 292.4C188.985 292.4 185.452 291.133 182.985 288.6C180.585 286.067 179.385 282.6 179.385 278.2V228.4H184.385V277.7C184.385 281.033 185.218 283.6 186.885 285.4C188.552 287.2 190.952 288.1 194.085 288.1C197.352 288.1 200.052 287.133 202.185 285.2L204.285 288.7C202.952 289.967 201.318 290.9 199.385 291.5C197.518 292.1 195.585 292.4 193.585 292.4ZM169.785 244.1V239.8H200.985V244.1H169.785ZM237.573 292.4C232.307 292.4 227.64 291.267 223.573 289C219.573 286.733 216.407 283.6 214.073 279.6C211.807 275.6 210.673 271.033 210.673 265.9C210.673 260.7 211.74 256.133 213.873 252.2C216.073 248.2 219.073 245.067 222.873 242.8C226.673 240.533 230.94 239.4 235.673 239.4C240.407 239.4 244.64 240.5 248.373 242.7C252.173 244.9 255.14 248 257.273 252C259.473 255.933 260.573 260.5 260.573 265.7C260.573 265.9 260.54 266.133 260.473 266.4C260.473 266.6 260.473 266.833 260.473 267.1H214.373V263.2H257.773L255.773 265.1C255.84 261.033 254.973 257.4 253.173 254.2C251.44 250.933 249.073 248.4 246.073 246.6C243.073 244.733 239.607 243.8 235.673 243.8C231.807 243.8 228.34 244.733 225.273 246.6C222.273 248.4 219.907 250.933 218.173 254.2C216.44 257.4 215.573 261.067 215.573 265.2V266.1C215.573 270.367 216.507 274.167 218.373 277.5C220.307 280.767 222.94 283.333 226.273 285.2C229.607 287 233.407 287.9 237.673 287.9C241.007 287.9 244.107 287.3 246.973 286.1C249.907 284.9 252.373 283.067 254.373 280.6L257.273 283.9C255.007 286.7 252.14 288.833 248.673 290.3C245.273 291.7 241.573 292.4 237.573 292.4ZM307.477 292V280.1L307.277 278.3V258.7C307.277 253.833 305.943 250.133 303.277 247.6C300.677 245.067 296.843 243.8 291.777 243.8C288.177 243.8 284.81 244.433 281.677 245.7C278.61 246.9 275.977 248.467 273.777 250.4L271.277 246.8C273.877 244.467 277.01 242.667 280.677 241.4C284.343 240.067 288.177 239.4 292.177 239.4C298.643 239.4 303.61 241.033 307.077 244.3C310.543 247.567 312.277 252.433 312.277 258.9V292H307.477ZM288.677 292.4C284.81 292.4 281.443 291.8 278.577 290.6C275.777 289.333 273.61 287.567 272.077 285.3C270.61 283.033 269.877 280.433 269.877 277.5C269.877 274.833 270.477 272.433 271.677 270.3C272.943 268.1 275.01 266.333 277.877 265C280.743 263.6 284.577 262.9 289.377 262.9H308.577V266.8H289.477C284.077 266.8 280.277 267.8 278.077 269.8C275.943 271.8 274.877 274.3 274.877 277.3C274.877 280.633 276.143 283.3 278.677 285.3C281.21 287.3 284.777 288.3 289.377 288.3C293.777 288.3 297.477 287.3 300.477 285.3C303.543 283.3 305.81 280.4 307.277 276.6L308.677 280C307.277 283.8 304.877 286.833 301.477 289.1C298.143 291.3 293.877 292.4 288.677 292.4ZM354.077 292.4C349.611 292.4 345.744 291.6 342.477 290C339.211 288.333 336.677 285.867 334.877 282.6C333.144 279.267 332.277 275.167 332.277 270.3V239.8H337.277V269.9C337.277 275.767 338.777 280.233 341.777 283.3C344.777 286.367 349.011 287.9 354.477 287.9C358.411 287.9 361.811 287.067 364.677 285.4C367.544 283.733 369.744 281.4 371.277 278.4C372.811 275.333 373.577 271.733 373.577 267.6V239.8H378.577V292H373.777V277.5L374.477 279.2C372.944 283.267 370.377 286.5 366.777 288.9C363.244 291.233 359.011 292.4 354.077 292.4ZM399.772 292V239.8H404.572V254.1L404.072 252.5C405.539 248.3 408.005 245.067 411.472 242.8C414.939 240.533 419.272 239.4 424.472 239.4V244.3C424.272 244.3 424.072 244.3 423.872 244.3C423.672 244.233 423.472 244.2 423.272 244.2C417.472 244.2 412.939 246.033 409.672 249.7C406.405 253.3 404.772 258.333 404.772 264.8V292H399.772ZM467.242 292V280.1L467.042 278.3V258.7C467.042 253.833 465.709 250.133 463.042 247.6C460.442 245.067 456.609 243.8 451.542 243.8C447.942 243.8 444.576 244.433 441.442 245.7C438.376 246.9 435.742 248.467 433.542 250.4L431.042 246.8C433.642 244.467 436.776 242.667 440.442 241.4C444.109 240.067 447.942 239.4 451.942 239.4C458.409 239.4 463.376 241.033 466.842 244.3C470.309 247.567 472.042 252.433 472.042 258.9V292H467.242ZM448.442 292.4C444.576 292.4 441.209 291.8 438.342 290.6C435.542 289.333 433.376 287.567 431.842 285.3C430.376 283.033 429.642 280.433 429.642 277.5C429.642 274.833 430.242 272.433 431.442 270.3C432.709 268.1 434.776 266.333 437.642 265C440.509 263.6 444.342 262.9 449.142 262.9H468.342V266.8H449.242C443.842 266.8 440.042 267.8 437.842 269.8C435.709 271.8 434.642 274.3 434.642 277.3C434.642 280.633 435.909 283.3 438.442 285.3C440.976 287.3 444.542 288.3 449.142 288.3C453.542 288.3 457.242 287.3 460.242 285.3C463.309 283.3 465.576 280.4 467.042 276.6L468.442 280C467.042 283.8 464.642 286.833 461.242 289.1C457.909 291.3 453.642 292.4 448.442 292.4ZM518.143 239.4C522.41 239.4 526.11 240.233 529.243 241.9C532.443 243.5 534.91 245.967 536.643 249.3C538.443 252.567 539.343 256.633 539.343 261.5V292H534.343V261.9C534.343 256.033 532.843 251.567 529.843 248.5C526.91 245.433 522.776 243.9 517.443 243.9C513.376 243.9 509.843 244.733 506.843 246.4C503.843 248.067 501.543 250.4 499.943 253.4C498.41 256.4 497.643 260 497.643 264.2V292H492.643V239.8H497.443V254.3L496.743 252.7C498.343 248.567 500.976 245.333 504.643 243C508.31 240.6 512.81 239.4 518.143 239.4ZM575.128 292.4C570.528 292.4 566.995 291.133 564.528 288.6C562.128 286.067 560.928 282.6 560.928 278.2V228.4H565.928V277.7C565.928 281.033 566.761 283.6 568.428 285.4C570.095 287.2 572.495 288.1 575.628 288.1C578.895 288.1 581.595 287.133 583.728 285.2L585.828 288.7C584.495 289.967 582.861 290.9 580.928 291.5C579.061 292.1 577.128 292.4 575.128 292.4ZM551.328 244.1V239.8H582.528V244.1H551.328Z" fill="#FFFFEA"/>
<path d="M6.24 326.32L4.48 333.72L4.16 332C4.8 332 5.32 332.2 5.72 332.6C6.12 332.973 6.32 333.48 6.32 334.12C6.32 334.76 6.12 335.28 5.72 335.68C5.32 336.08 4.82667 336.28 4.24 336.28C3.6 336.28 3.08 336.08 2.68 335.68C2.30667 335.253 2.12 334.733 2.12 334.12C2.12 333.88 2.13333 333.667 2.16 333.48C2.18667 333.293 2.24 333.067 2.32 332.8C2.4 332.533 2.50667 332.213 2.64 331.84L4.32 326.32H6.24ZM13.04 326.32L11.28 333.72L10.96 332C11.6 332 12.12 332.2 12.52 332.6C12.92 332.973 13.12 333.48 13.12 334.12C13.12 334.76 12.92 335.28 12.52 335.68C12.12 336.08 11.6267 336.28 11.04 336.28C10.4 336.28 9.88 336.08 9.48 335.68C9.10667 335.253 8.92 334.733 8.92 334.12C8.92 333.88 8.93333 333.667 8.96 333.48C8.98667 333.293 9.04 333.067 9.12 332.8C9.2 332.533 9.30667 332.213 9.44 331.84L11.12 326.32H13.04ZM14.0644 356L26.8644 328H29.7844L42.5844 356H39.4644L27.7044 329.72H28.9044L17.1444 356H14.0644ZM19.1044 348.52L19.9844 346.12H36.2644L37.1444 348.52H19.1044ZM46.6163 356V326.32H49.4563V356H46.6163ZM57.3584 356V326.32H60.1984V356H57.3584ZM87.1294 356.2C85.1027 356.2 83.276 355.747 81.6494 354.84C80.0494 353.907 78.7827 352.64 77.8494 351.04C76.916 349.413 76.4494 347.56 76.4494 345.48C76.4494 343.373 76.916 341.52 77.8494 339.92C78.7827 338.32 80.0494 337.067 81.6494 336.16C83.2494 335.253 85.076 334.8 87.1294 334.8C89.2094 334.8 91.0494 335.253 92.6494 336.16C94.276 337.067 95.5427 338.32 96.4494 339.92C97.3827 341.52 97.8494 343.373 97.8494 345.48C97.8494 347.56 97.3827 349.413 96.4494 351.04C95.5427 352.64 94.276 353.907 92.6494 354.84C91.0227 355.747 89.1827 356.2 87.1294 356.2ZM87.1294 353.68C88.6494 353.68 89.996 353.347 91.1694 352.68C92.3427 351.987 93.2627 351.027 93.9294 349.8C94.6227 348.547 94.9694 347.107 94.9694 345.48C94.9694 343.827 94.6227 342.387 93.9294 341.16C93.2627 339.933 92.3427 338.987 91.1694 338.32C89.996 337.627 88.6627 337.28 87.1694 337.28C85.676 337.28 84.3427 337.627 83.1694 338.32C81.996 338.987 81.0627 339.933 80.3694 341.16C79.676 342.387 79.3294 343.827 79.3294 345.48C79.3294 347.107 79.676 348.547 80.3694 349.8C81.0627 351.027 81.996 351.987 83.1694 352.68C84.3427 353.347 85.6627 353.68 87.1294 353.68ZM104.128 356V332.36C104.128 330.493 104.674 328.987 105.768 327.84C106.861 326.693 108.434 326.12 110.488 326.12C111.288 326.12 112.061 326.227 112.808 326.44C113.554 326.653 114.181 326.987 114.688 327.44L113.728 329.56C113.328 329.213 112.861 328.96 112.328 328.8C111.794 328.613 111.221 328.52 110.608 328.52C109.408 328.52 108.488 328.853 107.848 329.52C107.208 330.187 106.888 331.173 106.888 332.48V335.68L106.968 337V356H104.128ZM100.368 337.36V335H113.368V337.36H100.368ZM127.671 356V335H130.391V340.72L130.111 339.72C130.698 338.12 131.684 336.907 133.071 336.08C134.458 335.227 136.178 334.8 138.231 334.8V337.56C138.124 337.56 138.018 337.56 137.911 337.56C137.804 337.533 137.698 337.52 137.591 337.52C135.378 337.52 133.644 338.2 132.391 339.56C131.138 340.893 130.511 342.8 130.511 345.28V356H127.671ZM152.138 356.2C149.951 356.2 148.031 355.747 146.378 354.84C144.724 353.907 143.431 352.64 142.498 351.04C141.564 349.413 141.098 347.56 141.098 345.48C141.098 343.4 141.538 341.56 142.418 339.96C143.324 338.36 144.551 337.107 146.098 336.2C147.671 335.267 149.431 334.8 151.378 334.8C153.351 334.8 155.098 335.253 156.618 336.16C158.164 337.04 159.378 338.293 160.258 339.92C161.138 341.52 161.578 343.373 161.578 345.48C161.578 345.613 161.564 345.76 161.538 345.92C161.538 346.053 161.538 346.2 161.538 346.36H143.258V344.24H160.018L158.898 345.08C158.898 343.56 158.564 342.213 157.898 341.04C157.258 339.84 156.378 338.907 155.258 338.24C154.138 337.573 152.844 337.24 151.378 337.24C149.938 337.24 148.644 337.573 147.498 338.24C146.351 338.907 145.458 339.84 144.818 341.04C144.178 342.24 143.858 343.613 143.858 345.16V345.6C143.858 347.2 144.204 348.613 144.898 349.84C145.618 351.04 146.604 351.987 147.858 352.68C149.138 353.347 150.591 353.68 152.218 353.68C153.498 353.68 154.684 353.453 155.778 353C156.898 352.547 157.858 351.853 158.658 350.92L160.258 352.76C159.324 353.88 158.151 354.733 156.738 355.32C155.351 355.907 153.818 356.2 152.138 356.2ZM172.998 356.2C171.265 356.2 169.625 355.96 168.078 355.48C166.532 354.973 165.318 354.347 164.438 353.6L165.718 351.36C166.572 352 167.665 352.56 168.998 353.04C170.332 353.493 171.732 353.72 173.198 353.72C175.198 353.72 176.638 353.413 177.518 352.8C178.398 352.16 178.838 351.32 178.838 350.28C178.838 349.507 178.585 348.907 178.078 348.48C177.598 348.027 176.958 347.693 176.158 347.48C175.358 347.24 174.465 347.04 173.478 346.88C172.492 346.72 171.505 346.533 170.518 346.32C169.558 346.107 168.678 345.8 167.878 345.4C167.078 344.973 166.425 344.4 165.918 343.68C165.438 342.96 165.198 342 165.198 340.8C165.198 339.653 165.518 338.627 166.158 337.72C166.798 336.813 167.732 336.107 168.958 335.6C170.212 335.067 171.732 334.8 173.518 334.8C174.878 334.8 176.238 334.987 177.598 335.36C178.958 335.707 180.078 336.173 180.958 336.76L179.718 339.04C178.785 338.4 177.785 337.947 176.718 337.68C175.652 337.387 174.585 337.24 173.518 337.24C171.625 337.24 170.225 337.573 169.318 338.24C168.438 338.88 167.998 339.707 167.998 340.72C167.998 341.52 168.238 342.147 168.718 342.6C169.225 343.053 169.878 343.413 170.678 343.68C171.505 343.92 172.398 344.12 173.358 344.28C174.345 344.44 175.318 344.64 176.278 344.88C177.265 345.093 178.158 345.4 178.958 345.8C179.785 346.173 180.438 346.72 180.918 347.44C181.425 348.133 181.678 349.053 181.678 350.2C181.678 351.427 181.332 352.493 180.638 353.4C179.972 354.28 178.985 354.973 177.678 355.48C176.398 355.96 174.838 356.2 172.998 356.2ZM193.53 356.2C191.556 356.2 190.036 355.667 188.97 354.6C187.903 353.533 187.37 352.027 187.37 350.08V330.36H190.21V349.92C190.21 351.147 190.516 352.093 191.13 352.76C191.77 353.427 192.676 353.76 193.85 353.76C195.103 353.76 196.143 353.4 196.97 352.68L197.97 354.72C197.41 355.227 196.73 355.6 195.93 355.84C195.156 356.08 194.356 356.2 193.53 356.2ZM183.61 337.36V335H196.61V337.36H183.61ZM216.3 356V351.36L216.18 350.6V342.84C216.18 341.053 215.673 339.68 214.66 338.72C213.673 337.76 212.193 337.28 210.22 337.28C208.86 337.28 207.566 337.507 206.34 337.96C205.113 338.413 204.073 339.013 203.22 339.76L201.94 337.64C203.006 336.733 204.286 336.04 205.78 335.56C207.273 335.053 208.846 334.8 210.5 334.8C213.22 334.8 215.313 335.48 216.78 336.84C218.273 338.173 219.02 340.213 219.02 342.96V356H216.3ZM209.06 356.2C207.486 356.2 206.113 355.947 204.94 355.44C203.793 354.907 202.913 354.187 202.3 353.28C201.686 352.347 201.38 351.28 201.38 350.08C201.38 348.987 201.633 348 202.14 347.12C202.673 346.213 203.526 345.493 204.7 344.96C205.9 344.4 207.5 344.12 209.5 344.12H216.74V346.24H209.58C207.553 346.24 206.14 346.6 205.34 347.32C204.566 348.04 204.18 348.933 204.18 350C204.18 351.2 204.646 352.16 205.58 352.88C206.513 353.6 207.82 353.96 209.5 353.96C211.1 353.96 212.473 353.6 213.62 352.88C214.793 352.133 215.646 351.067 216.18 349.68L216.82 351.64C216.286 353.027 215.353 354.133 214.02 354.96C212.713 355.787 211.06 356.2 209.06 356.2ZM235.413 356.2C233.627 356.2 232.067 355.867 230.733 355.2C229.4 354.533 228.36 353.533 227.613 352.2C226.893 350.867 226.533 349.2 226.533 347.2V335H229.373V346.88C229.373 349.12 229.92 350.813 231.013 351.96C232.133 353.08 233.693 353.64 235.693 353.64C237.16 353.64 238.427 353.347 239.493 352.76C240.587 352.147 241.413 351.267 241.973 350.12C242.56 348.973 242.853 347.6 242.853 346V335H245.693V356H242.973V350.24L243.413 351.28C242.747 352.827 241.707 354.04 240.293 354.92C238.907 355.773 237.28 356.2 235.413 356.2ZM253.608 356V335H256.328V340.72L256.048 339.72C256.635 338.12 257.622 336.907 259.008 336.08C260.395 335.227 262.115 334.8 264.168 334.8V337.56C264.062 337.56 263.955 337.56 263.848 337.56C263.742 337.533 263.635 337.52 263.528 337.52C261.315 337.52 259.582 338.2 258.328 339.56C257.075 340.893 256.448 342.8 256.448 345.28V356H253.608ZM280.948 356V351.36L280.828 350.6V342.84C280.828 341.053 280.321 339.68 279.308 338.72C278.321 337.76 276.841 337.28 274.868 337.28C273.508 337.28 272.215 337.507 270.988 337.96C269.761 338.413 268.721 339.013 267.868 339.76L266.588 337.64C267.655 336.733 268.935 336.04 270.428 335.56C271.921 335.053 273.495 334.8 275.148 334.8C277.868 334.8 279.961 335.48 281.428 336.84C282.921 338.173 283.668 340.213 283.668 342.96V356H280.948ZM273.708 356.2C272.135 356.2 270.761 355.947 269.588 355.44C268.441 354.907 267.561 354.187 266.948 353.28C266.335 352.347 266.028 351.28 266.028 350.08C266.028 348.987 266.281 348 266.788 347.12C267.321 346.213 268.175 345.493 269.348 344.96C270.548 344.4 272.148 344.12 274.148 344.12H281.388V346.24H274.228C272.201 346.24 270.788 346.6 269.988 347.32C269.215 348.04 268.828 348.933 268.828 350C268.828 351.2 269.295 352.16 270.228 352.88C271.161 353.6 272.468 353.96 274.148 353.96C275.748 353.96 277.121 353.6 278.268 352.88C279.441 352.133 280.295 351.067 280.828 349.68L281.468 351.64C280.935 353.027 280.001 354.133 278.668 354.96C277.361 355.787 275.708 356.2 273.708 356.2ZM302.102 334.8C303.809 334.8 305.302 335.133 306.582 335.8C307.889 336.44 308.902 337.427 309.622 338.76C310.369 340.093 310.742 341.773 310.742 343.8V356H307.902V344.08C307.902 341.867 307.342 340.2 306.222 339.08C305.129 337.933 303.582 337.36 301.582 337.36C300.089 337.36 298.782 337.667 297.662 338.28C296.569 338.867 295.715 339.733 295.102 340.88C294.515 342 294.222 343.36 294.222 344.96V356H291.382V335H294.102V340.76L293.662 339.68C294.329 338.16 295.395 336.973 296.862 336.12C298.329 335.24 300.075 334.8 302.102 334.8ZM325.053 356.2C323.08 356.2 321.56 355.667 320.493 354.6C319.426 353.533 318.893 352.027 318.893 350.08V330.36H321.733V349.92C321.733 351.147 322.04 352.093 322.653 352.76C323.293 353.427 324.2 353.76 325.373 353.76C326.626 353.76 327.666 353.4 328.493 352.68L329.493 354.72C328.933 355.227 328.253 355.6 327.453 355.84C326.68 356.08 325.88 356.2 325.053 356.2ZM315.133 337.36V335H328.133V337.36H315.133ZM333.334 361.84L335.094 354.44L335.414 356.16C334.8 356.16 334.28 355.96 333.854 355.56C333.454 355.16 333.254 354.64 333.254 354C333.254 353.36 333.454 352.84 333.854 352.44C334.28 352.04 334.787 351.84 335.374 351.84C335.987 351.84 336.48 352.053 336.854 352.48C337.254 352.907 337.454 353.413 337.454 354C337.454 354.213 337.44 354.427 337.414 354.64C337.387 354.853 337.334 355.093 337.254 355.36C337.174 355.627 337.067 355.947 336.934 356.32L335.254 361.84H333.334ZM367.159 356V351.36L367.039 350.6V342.84C367.039 341.053 366.532 339.68 365.519 338.72C364.532 337.76 363.052 337.28 361.079 337.28C359.719 337.28 358.426 337.507 357.199 337.96C355.972 338.413 354.932 339.013 354.079 339.76L352.799 337.64C353.866 336.733 355.146 336.04 356.639 335.56C358.132 335.053 359.706 334.8 361.359 334.8C364.079 334.8 366.172 335.48 367.639 336.84C369.132 338.173 369.879 340.213 369.879 342.96V356H367.159ZM359.919 356.2C358.346 356.2 356.972 355.947 355.799 355.44C354.652 354.907 353.772 354.187 353.159 353.28C352.546 352.347 352.239 351.28 352.239 350.08C352.239 348.987 352.492 348 352.999 347.12C353.532 346.213 354.386 345.493 355.559 344.96C356.759 344.4 358.359 344.12 360.359 344.12H367.599V346.24H360.439C358.412 346.24 356.999 346.6 356.199 347.32C355.426 348.04 355.039 348.933 355.039 350C355.039 351.2 355.506 352.16 356.439 352.88C357.372 353.6 358.679 353.96 360.359 353.96C361.959 353.96 363.332 353.6 364.479 352.88C365.652 352.133 366.506 351.067 367.039 349.68L367.679 351.64C367.146 353.027 366.212 354.133 364.879 354.96C363.572 355.787 361.919 356.2 359.919 356.2ZM384.233 356.2C382.259 356.2 380.739 355.667 379.673 354.6C378.606 353.533 378.073 352.027 378.073 350.08V330.36H380.913V349.92C380.913 351.147 381.219 352.093 381.833 352.76C382.473 353.427 383.379 353.76 384.553 353.76C385.806 353.76 386.846 353.4 387.673 352.68L388.673 354.72C388.113 355.227 387.433 355.6 386.633 355.84C385.859 356.08 385.059 356.2 384.233 356.2ZM374.313 337.36V335H387.313V337.36H374.313ZM412.872 356.2C410.845 356.2 409.018 355.747 407.392 354.84C405.792 353.907 404.525 352.64 403.592 351.04C402.658 349.413 402.192 347.56 402.192 345.48C402.192 343.373 402.658 341.52 403.592 339.92C404.525 338.32 405.792 337.067 407.392 336.16C408.992 335.253 410.818 334.8 412.872 334.8C414.952 334.8 416.792 335.253 418.392 336.16C420.018 337.067 421.285 338.32 422.192 339.92C423.125 341.52 423.592 343.373 423.592 345.48C423.592 347.56 423.125 349.413 422.192 351.04C421.285 352.64 420.018 353.907 418.392 354.84C416.765 355.747 414.925 356.2 412.872 356.2ZM412.872 353.68C414.392 353.68 415.738 353.347 416.912 352.68C418.085 351.987 419.005 351.027 419.672 349.8C420.365 348.547 420.712 347.107 420.712 345.48C420.712 343.827 420.365 342.387 419.672 341.16C419.005 339.933 418.085 338.987 416.912 338.32C415.738 337.627 414.405 337.28 412.912 337.28C411.418 337.28 410.085 337.627 408.912 338.32C407.738 338.987 406.805 339.933 406.112 341.16C405.418 342.387 405.072 343.827 405.072 345.48C405.072 347.107 405.418 348.547 406.112 349.8C406.805 351.027 407.738 351.987 408.912 352.68C410.085 353.347 411.405 353.68 412.872 353.68ZM440.11 334.8C441.816 334.8 443.31 335.133 444.59 335.8C445.896 336.44 446.91 337.427 447.63 338.76C448.376 340.093 448.75 341.773 448.75 343.8V356H445.91V344.08C445.91 341.867 445.35 340.2 444.23 339.08C443.136 337.933 441.59 337.36 439.59 337.36C438.096 337.36 436.79 337.667 435.67 338.28C434.576 338.867 433.723 339.733 433.11 340.88C432.523 342 432.23 343.36 432.23 344.96V356H429.39V335H432.11V340.76L431.67 339.68C432.336 338.16 433.403 336.973 434.87 336.12C436.336 335.24 438.083 334.8 440.11 334.8ZM465.341 356.2C463.154 356.2 461.234 355.747 459.581 354.84C457.928 353.907 456.634 352.64 455.701 351.04C454.768 349.413 454.301 347.56 454.301 345.48C454.301 343.4 454.741 341.56 455.621 339.96C456.528 338.36 457.754 337.107 459.301 336.2C460.874 335.267 462.634 334.8 464.581 334.8C466.554 334.8 468.301 335.253 469.821 336.16C471.368 337.04 472.581 338.293 473.461 339.92C474.341 341.52 474.781 343.373 474.781 345.48C474.781 345.613 474.768 345.76 474.741 345.92C474.741 346.053 474.741 346.2 474.741 346.36H456.461V344.24H473.221L472.101 345.08C472.101 343.56 471.768 342.213 471.101 341.04C470.461 339.84 469.581 338.907 468.461 338.24C467.341 337.573 466.048 337.24 464.581 337.24C463.141 337.24 461.848 337.573 460.701 338.24C459.554 338.907 458.661 339.84 458.021 341.04C457.381 342.24 457.061 343.613 457.061 345.16V345.6C457.061 347.2 457.408 348.613 458.101 349.84C458.821 351.04 459.808 351.987 461.061 352.68C462.341 353.347 463.794 353.68 465.421 353.68C466.701 353.68 467.888 353.453 468.981 353C470.101 352.547 471.061 351.853 471.861 350.92L473.461 352.76C472.528 353.88 471.354 354.733 469.941 355.32C468.554 355.907 467.021 356.2 465.341 356.2ZM501.87 356.2C500.057 356.2 498.417 355.787 496.95 354.96C495.484 354.107 494.31 352.893 493.43 351.32C492.577 349.72 492.15 347.773 492.15 345.48C492.15 343.187 492.577 341.253 493.43 339.68C494.284 338.08 495.444 336.867 496.91 336.04C498.377 335.213 500.03 334.8 501.87 334.8C503.87 334.8 505.657 335.253 507.23 336.16C508.83 337.04 510.084 338.293 510.99 339.92C511.897 341.52 512.35 343.373 512.35 345.48C512.35 347.613 511.897 349.48 510.99 351.08C510.084 352.68 508.83 353.933 507.23 354.84C505.657 355.747 503.87 356.2 501.87 356.2ZM491.03 363.76V335H493.75V341.32L493.47 345.52L493.87 349.76V363.76H491.03ZM501.67 353.68C503.164 353.68 504.497 353.347 505.67 352.68C506.844 351.987 507.777 351.027 508.47 349.8C509.164 348.547 509.51 347.107 509.51 345.48C509.51 343.853 509.164 342.427 508.47 341.2C507.777 339.973 506.844 339.013 505.67 338.32C504.497 337.627 503.164 337.28 501.67 337.28C500.177 337.28 498.83 337.627 497.63 338.32C496.457 339.013 495.524 339.973 494.83 341.2C494.164 342.427 493.83 343.853 493.83 345.48C493.83 347.107 494.164 348.547 494.83 349.8C495.524 351.027 496.457 351.987 497.63 352.68C498.83 353.347 500.177 353.68 501.67 353.68ZM518.14 356V326.32H520.98V356H518.14ZM542.042 356V351.36L541.922 350.6V342.84C541.922 341.053 541.415 339.68 540.402 338.72C539.415 337.76 537.935 337.28 535.962 337.28C534.602 337.28 533.309 337.507 532.082 337.96C530.855 338.413 529.815 339.013 528.962 339.76L527.682 337.64C528.749 336.733 530.029 336.04 531.522 335.56C533.015 335.053 534.589 334.8 536.242 334.8C538.962 334.8 541.055 335.48 542.522 336.84C544.015 338.173 544.762 340.213 544.762 342.96V356H542.042ZM534.802 356.2C533.229 356.2 531.855 355.947 530.682 355.44C529.535 354.907 528.655 354.187 528.042 353.28C527.429 352.347 527.122 351.28 527.122 350.08C527.122 348.987 527.375 348 527.882 347.12C528.415 346.213 529.269 345.493 530.442 344.96C531.642 344.4 533.242 344.12 535.242 344.12H542.482V346.24H535.322C533.295 346.24 531.882 346.6 531.082 347.32C530.309 348.04 529.922 348.933 529.922 350C529.922 351.2 530.389 352.16 531.322 352.88C532.255 353.6 533.562 353.96 535.242 353.96C536.842 353.96 538.215 353.6 539.362 352.88C540.535 352.133 541.389 351.067 541.922 349.68L542.562 351.64C542.029 353.027 541.095 354.133 539.762 354.96C538.455 355.787 536.802 356.2 534.802 356.2ZM561.196 356.2C559.116 356.2 557.249 355.747 555.596 354.84C553.969 353.907 552.689 352.64 551.756 351.04C550.822 349.413 550.356 347.56 550.356 345.48C550.356 343.373 550.822 341.52 551.756 339.92C552.689 338.32 553.969 337.067 555.596 336.16C557.249 335.253 559.116 334.8 561.196 334.8C562.982 334.8 564.596 335.147 566.036 335.84C567.476 336.533 568.609 337.573 569.436 338.96L567.316 340.4C566.596 339.333 565.702 338.547 564.636 338.04C563.569 337.533 562.409 337.28 561.156 337.28C559.662 337.28 558.316 337.627 557.116 338.32C555.916 338.987 554.969 339.933 554.276 341.16C553.582 342.387 553.236 343.827 553.236 345.48C553.236 347.133 553.582 348.573 554.276 349.8C554.969 351.027 555.916 351.987 557.116 352.68C558.316 353.347 559.662 353.68 561.156 353.68C562.409 353.68 563.569 353.427 564.636 352.92C565.702 352.413 566.596 351.64 567.316 350.6L569.436 352.04C568.609 353.4 567.476 354.44 566.036 355.16C564.596 355.853 562.982 356.2 561.196 356.2ZM583.583 356.2C581.396 356.2 579.476 355.747 577.823 354.84C576.17 353.907 574.876 352.64 573.943 351.04C573.01 349.413 572.543 347.56 572.543 345.48C572.543 343.4 572.983 341.56 573.863 339.96C574.77 338.36 575.996 337.107 577.543 336.2C579.116 335.267 580.876 334.8 582.823 334.8C584.796 334.8 586.543 335.253 588.063 336.16C589.61 337.04 590.823 338.293 591.703 339.92C592.583 341.52 593.023 343.373 593.023 345.48C593.023 345.613 593.01 345.76 592.983 345.92C592.983 346.053 592.983 346.2 592.983 346.36H574.703V344.24H591.463L590.343 345.08C590.343 343.56 590.01 342.213 589.343 341.04C588.703 339.84 587.823 338.907 586.703 338.24C585.583 337.573 584.29 337.24 582.823 337.24C581.383 337.24 580.09 337.573 578.943 338.24C577.796 338.907 576.903 339.84 576.263 341.04C575.623 342.24 575.303 343.613 575.303 345.16V345.6C575.303 347.2 575.65 348.613 576.343 349.84C577.063 351.04 578.05 351.987 579.303 352.68C580.583 353.347 582.036 353.68 583.663 353.68C584.943 353.68 586.13 353.453 587.223 353C588.343 352.547 589.303 351.853 590.103 350.92L591.703 352.76C590.77 353.88 589.596 354.733 588.183 355.32C586.796 355.907 585.263 356.2 583.583 356.2ZM597.006 336.08L598.766 328.72L599.086 330.4C598.472 330.4 597.952 330.213 597.526 329.84C597.126 329.44 596.926 328.92 596.926 328.28C596.926 327.64 597.126 327.12 597.526 326.72C597.952 326.32 598.459 326.12 599.046 326.12C599.659 326.12 600.152 326.333 600.526 326.76C600.926 327.16 601.126 327.667 601.126 328.28C601.126 328.493 601.112 328.707 601.086 328.92C601.059 329.133 601.006 329.373 600.926 329.64C600.872 329.88 600.779 330.187 600.646 330.56L598.926 336.08H597.006ZM603.806 336.08L605.566 328.72L605.886 330.4C605.272 330.4 604.752 330.213 604.326 329.84C603.926 329.44 603.726 328.92 603.726 328.28C603.726 327.64 603.926 327.12 604.326 326.72C604.752 326.32 605.259 326.12 605.846 326.12C606.459 326.12 606.952 326.333 607.326 326.76C607.726 327.16 607.926 327.667 607.926 328.28C607.926 328.493 607.912 328.707 607.886 328.92C607.859 329.133 607.806 329.373 607.726 329.64C607.672 329.88 607.579 330.187 607.446 330.56L605.726 336.08H603.806Z" fill="#FFFFEA" fill-opacity="0.5"/>
</svg>
