<svg width="32" height="32" viewBox="0 0 32 32" fill="none" xmlns="http://www.w3.org/2000/svg">
<path d="M31.4407 14.9335L29.4344 14.6073C29.3049 14.5853 29.1857 14.522 29.0944 14.4267C29.003 14.3313 28.9443 14.209 28.9267 14.0776C28.8882 13.829 28.8498 13.5797 28.7959 13.3389C28.7699 13.2096 28.7849 13.0753 28.8387 12.9551C28.8926 12.8349 28.9826 12.7349 29.0959 12.6693L30.8722 11.6735C31.0067 11.6041 31.1114 11.4875 31.1666 11.3456C31.2219 11.2037 31.2239 11.0463 31.1722 10.903L30.8645 10.0486C30.8131 9.90492 30.7106 9.78565 30.577 9.7139C30.4434 9.64214 30.2882 9.62302 30.1414 9.66023L28.1497 10.0486C28.0202 10.0739 27.8861 10.0565 27.7672 9.99906C27.6482 9.94159 27.5506 9.84704 27.4889 9.72936C27.3735 9.51187 27.2504 9.29412 27.1197 9.07612C27.0506 8.96276 27.0187 8.83033 27.0283 8.69761C27.038 8.56488 27.0888 8.4386 27.1735 8.33666L28.5036 6.78783C28.6068 6.67701 28.6661 6.53183 28.6703 6.37981C28.6746 6.22778 28.6235 6.07946 28.5267 5.96293L27.9505 5.26386C27.8545 5.14629 27.7185 5.06912 27.5691 5.04743C27.4197 5.02574 27.2677 5.06109 27.1427 5.14657L25.3972 6.20527C25.285 6.27241 25.1546 6.30182 25.0248 6.28926C24.8949 6.27669 24.7724 6.2228 24.6749 6.13537C24.4902 5.97147 24.2979 5.80836 24.1056 5.65223C24.0033 5.57017 23.9295 5.45737 23.8949 5.33015C23.8604 5.20293 23.8668 5.06791 23.9133 4.94462L24.6364 3.02218C24.6979 2.88271 24.7065 2.72524 24.6603 2.57983C24.6142 2.43441 24.5167 2.31123 24.3864 2.23379L23.6017 1.77473C23.4708 1.69965 23.3171 1.67565 23.1698 1.70729C23.0225 1.73892 22.8918 1.82399 22.8024 1.94639L21.5223 3.56513C21.4508 3.667 21.3474 3.74157 21.2288 3.77681C21.1101 3.81204 20.9832 3.80588 20.8684 3.75931C20.8684 3.75931 20.4376 3.58066 20.1145 3.47114C19.9906 3.42944 19.883 3.34901 19.8074 3.24149C19.7317 3.13396 19.6919 3.00493 19.6937 2.87305L19.7245 0.818563C19.7336 0.665753 19.6869 0.514877 19.5934 0.394396C19.4999 0.273914 19.3659 0.192157 19.2168 0.164545L18.3252 0.0091968C18.1759 -0.016903 18.0224 0.0129907 17.8935 0.0932487C17.7645 0.173507 17.6691 0.298592 17.6251 0.44495L16.9636 2.39069C16.9211 2.51611 16.8401 2.62453 16.7322 2.70013C16.6244 2.77574 16.4955 2.81455 16.3643 2.81091H15.6104C15.4793 2.8137 15.3508 2.77455 15.2432 2.69907C15.1355 2.62358 15.0543 2.51564 15.0111 2.39069L14.3495 0.44495C14.3056 0.298592 14.2101 0.173507 14.0812 0.0932487C13.9523 0.0129907 13.7987 -0.016903 13.6495 0.0091968L12.7579 0.164545C12.6087 0.192157 12.4748 0.273914 12.3812 0.394396C12.2877 0.514877 12.2411 0.665753 12.2501 0.818563L12.2809 2.87305C12.2828 3.00525 12.2428 3.13461 12.1669 3.24231C12.0909 3.35001 11.9829 3.43045 11.8586 3.47192C11.6816 3.54182 11.297 3.69018 11.1124 3.76009C10.897 3.83776 10.6431 3.77562 10.4354 3.53406L9.16531 1.95416C9.07551 1.83228 8.94461 1.74783 8.79734 1.71677C8.65006 1.68571 8.49663 1.7102 8.36602 1.78561L7.58135 2.24466C7.4507 2.32063 7.35249 2.44271 7.30562 2.58739C7.25876 2.73208 7.26655 2.88916 7.32749 3.0284L8.05061 4.95083C8.09637 5.07421 8.10242 5.20902 8.06789 5.33607C8.03336 5.46312 7.96001 5.57593 7.85829 5.65845C7.66597 5.8138 7.47365 5.97769 7.28902 6.14158C7.19149 6.22902 7.06897 6.28291 6.93913 6.29547C6.8093 6.30804 6.67887 6.27863 6.56666 6.21149L4.84654 5.13648C4.72095 5.05303 4.56946 5.0189 4.42065 5.0405C4.27184 5.06211 4.13601 5.13797 4.03879 5.25376L3.4626 5.95283C3.3658 6.06936 3.31469 6.21768 3.31894 6.36971C3.32319 6.52174 3.38252 6.66691 3.48568 6.77773L4.81577 8.32656C4.90225 8.42761 4.9542 8.5541 4.96389 8.68729C4.97359 8.82048 4.94054 8.95328 4.86962 9.06602C4.73884 9.27315 4.61576 9.4909 4.50036 9.71926C4.43762 9.83603 4.33993 9.92978 4.22125 9.98712C4.10256 10.0445 3.96896 10.0624 3.83955 10.0385L1.84787 9.65013C1.70114 9.61399 1.54637 9.6336 1.41303 9.70521C1.27968 9.77683 1.17708 9.89545 1.12474 10.0385L0.817027 10.8929C0.765391 11.0362 0.767387 11.1936 0.822639 11.3355C0.877892 11.4774 0.982593 11.594 1.11705 11.6634L2.89102 12.66C3.00555 12.7243 3.09656 12.8242 3.15058 12.9447C3.20461 13.0653 3.2188 13.2002 3.19104 13.3296C3.14488 13.5781 3.09873 13.8197 3.06026 14.0682C3.04179 14.1993 2.98274 14.3212 2.89154 14.4163C2.80035 14.5115 2.68169 14.575 2.55253 14.598L0.546238 14.9242C0.396937 14.9428 0.25935 15.0153 0.158937 15.1284C0.0585228 15.2415 0.00207804 15.3875 4.58779e-05 15.5394V16.4497C-0.00181981 16.6027 0.0532773 16.7509 0.154429 16.8648C0.25558 16.9787 0.395411 17.0501 0.546238 17.0649L2.55253 17.3911C2.68208 17.4132 2.80124 17.4765 2.8926 17.5718C2.98396 17.6671 3.04271 17.7894 3.06026 17.9209C3.09873 18.1694 3.13719 18.4188 3.19104 18.6596C3.21707 18.7888 3.2021 18.9231 3.14824 19.0433C3.09438 19.1635 3.00438 19.2635 2.89102 19.3291L1.11474 20.3265C0.980285 20.3959 0.875584 20.5125 0.820332 20.6544C0.765079 20.7963 0.763083 20.9537 0.814719 21.097L1.12243 21.9514C1.17391 22.0951 1.27637 22.2144 1.40997 22.2861C1.54357 22.3579 1.69879 22.377 1.84556 22.3398L3.83724 21.9514C3.96673 21.9261 4.10084 21.9435 4.21981 22.0009C4.33879 22.0584 4.43633 22.153 4.49806 22.2706C4.61345 22.4881 4.73653 22.7059 4.86731 22.9239C4.93636 23.0372 4.96831 23.1697 4.95865 23.3024C4.94898 23.4351 4.89819 23.5614 4.81346 23.6633L3.48337 25.2137C3.38021 25.3245 3.32088 25.4697 3.31663 25.6217C3.31238 25.7738 3.36349 25.9221 3.46029 26.0386L4.03648 26.7377C4.1325 26.8553 4.2685 26.9324 4.41789 26.9541C4.56727 26.9758 4.7193 26.9405 4.84423 26.855L6.58974 25.7963C6.70195 25.7291 6.83238 25.6997 6.96221 25.7123C7.09204 25.7249 7.21457 25.7787 7.3121 25.8662C7.49673 26.0301 7.68905 26.1932 7.88137 26.3493C7.98367 26.4314 8.05744 26.5442 8.09202 26.6714C8.1266 26.7986 8.12018 26.9336 8.07369 27.0569L7.35057 28.9794C7.29001 29.119 7.28242 29.2763 7.32923 29.4212C7.37604 29.5662 7.47398 29.6887 7.60443 29.7654L8.3891 30.2245C8.52006 30.2996 8.67373 30.3236 8.82103 30.2919C8.96833 30.2603 9.09903 30.1752 9.18839 30.0528L10.48 28.4496C10.6416 28.2477 10.9031 28.1622 11.1108 28.2477C11.3724 28.3564 11.5493 28.4186 11.8724 28.5281C11.9968 28.5696 12.1048 28.65 12.1807 28.7577C12.2567 28.8654 12.2966 28.9947 12.2948 29.127L12.264 31.1814C12.2549 31.3342 12.3016 31.4851 12.3951 31.6056C12.4886 31.7261 12.6226 31.8078 12.7717 31.8355L13.6633 31.9908C13.8126 32.0169 13.9661 31.987 14.0951 31.9068C14.224 31.8265 14.3194 31.7014 14.3634 31.5551L15.025 29.6132C15.0674 29.4878 15.1485 29.3794 15.2563 29.3037C15.3641 29.2281 15.493 29.1893 15.6242 29.193H16.3781C16.5092 29.1902 16.6377 29.2293 16.7454 29.3048C16.853 29.3803 16.9342 29.4882 16.9774 29.6132L17.639 31.5551C17.6829 31.7014 17.7784 31.8265 17.9073 31.9068C18.0362 31.987 18.1898 32.0169 18.339 31.9908L19.2306 31.8355C19.3798 31.8078 19.5137 31.7261 19.6073 31.6056C19.7008 31.4851 19.7474 31.3342 19.7384 31.1814L19.7076 29.127C19.7057 28.9947 19.7457 28.8654 19.8216 28.7577C19.8976 28.65 20.0056 28.5696 20.1299 28.5281C20.453 28.4186 20.6684 28.3331 20.8684 28.2554C21.0685 28.1778 21.3146 28.1778 21.507 28.4186L22.8147 30.0451C22.9045 30.1679 23.0359 30.253 23.1839 30.2842C23.3319 30.3155 23.4861 30.2906 23.6171 30.2144L24.4018 29.7553C24.5331 29.6794 24.6318 29.557 24.6787 29.4117C24.7256 29.2664 24.7174 29.1088 24.6556 28.9693L23.9325 27.0468C23.8868 26.9233 23.8808 26.7884 23.9153 26.6613C23.9498 26.5341 24.0231 26.4212 24.1248 26.3384C24.3172 26.1831 24.5095 26.02 24.6941 25.8561C24.7916 25.7687 24.9142 25.7148 25.044 25.7022C25.1738 25.6896 25.3043 25.719 25.4165 25.7862L27.1558 26.848C27.2814 26.9314 27.4329 26.9656 27.5817 26.944C27.7305 26.9224 27.8663 26.8465 27.9636 26.7307L28.5398 26.0316C28.6366 25.9151 28.6877 25.7668 28.6834 25.6148C28.6792 25.4627 28.6198 25.3176 28.5167 25.2067L27.1866 23.6579C27.1001 23.5569 27.0482 23.4304 27.0385 23.2972C27.0288 23.164 27.0618 23.0312 27.1327 22.9184C27.2635 22.7087 27.3866 22.491 27.502 22.2652C27.5647 22.1484 27.6624 22.0547 27.7811 21.9973C27.8998 21.94 28.0334 21.922 28.1628 21.946L30.1545 22.3343C30.3012 22.3705 30.456 22.3509 30.5893 22.2793C30.7227 22.2076 30.8253 22.089 30.8776 21.946L31.1853 21.0915C31.237 20.9483 31.235 20.7909 31.1797 20.649C31.1245 20.5071 31.0198 20.3904 30.8853 20.321L29.109 19.3252C28.9945 19.2609 28.9035 19.1611 28.8495 19.0405C28.7954 18.9199 28.7812 18.785 28.809 18.6557C28.8552 18.4071 28.9013 18.1656 28.9398 17.917C28.9583 17.7859 29.0173 17.6641 29.1085 17.5689C29.1997 17.4738 29.3184 17.4102 29.4475 17.3873L31.4538 17.061C31.6031 17.0425 31.7407 16.9699 31.8411 16.8568C31.9415 16.7437 31.998 16.5977 32 16.4459V15.534C31.9916 15.3834 31.9309 15.2407 31.8287 15.1309C31.7264 15.0211 31.589 14.9512 31.4407 14.9335ZM16.0012 4.8149C18.4583 4.81385 20.8458 5.63867 22.7872 7.15928C24.7287 8.6799 26.1136 10.8098 26.7235 13.213C26.7688 13.3963 26.7722 13.5876 26.7334 13.7724C26.6946 13.9572 26.6145 14.1306 26.4993 14.2795C26.3842 14.4284 26.2369 14.5488 26.0687 14.6315C25.9005 14.7143 25.7159 14.7573 25.5288 14.7572H17.4328C17.2154 14.7572 17.0018 14.6991 16.8138 14.5887C16.6259 14.4784 16.4702 14.3197 16.3627 14.1288L12.3548 7.00532C12.2614 6.83971 12.2071 6.65465 12.1959 6.46444C12.1847 6.27423 12.2169 6.08397 12.2902 5.90836C12.3634 5.73276 12.4757 5.57651 12.6183 5.45169C12.7609 5.32687 12.93 5.23683 13.1125 5.18852C14.0554 4.93874 15.0264 4.81316 16.0012 4.8149ZM4.92347 16C4.92209 14.5023 5.2186 13.0197 5.79542 11.6399C6.37223 10.2601 7.21761 9.01138 8.2814 7.9677C8.41573 7.83343 8.57888 7.7322 8.7582 7.67186C8.93753 7.61152 9.12821 7.59369 9.31545 7.61976C9.5027 7.64582 9.68149 7.71508 9.83796 7.82216C9.99442 7.92924 10.1244 8.07127 10.2177 8.23723L14.2364 15.3786C14.3426 15.5663 14.3985 15.7788 14.3985 15.995C14.3985 16.2111 14.3426 16.4236 14.2364 16.6113L10.1846 23.734C10.0905 23.8995 9.96001 24.0409 9.80312 24.1472C9.64623 24.2536 9.46719 24.322 9.27988 24.3473C9.09257 24.3725 8.90203 24.3539 8.72301 24.2928C8.54398 24.2317 8.3813 24.1298 8.24755 23.995C7.19413 22.953 6.35746 21.709 5.78664 20.3361C5.21582 18.9632 4.92236 17.489 4.92347 16ZM16.0012 27.1851C15.0094 27.1877 14.0216 27.0584 13.0633 26.8006C12.8808 26.7516 12.7119 26.6609 12.5697 26.5355C12.4275 26.41 12.3157 26.2533 12.2431 26.0772C12.1706 25.9012 12.1391 25.7107 12.1511 25.5204C12.1631 25.3301 12.2183 25.1452 12.3125 24.9799L16.3574 17.8688C16.4655 17.6796 16.6212 17.5226 16.8087 17.4135C16.9961 17.3044 17.2088 17.2471 17.4251 17.2474H25.5326C25.7197 17.2475 25.9042 17.2905 26.0723 17.3734C26.2404 17.4562 26.3876 17.5766 26.5026 17.7255C26.6177 17.8743 26.6977 18.0477 26.7365 18.2324C26.7753 18.4172 26.7719 18.6084 26.7266 18.7916C26.1154 21.1944 24.7296 23.3235 22.7877 24.8432C20.8457 26.3629 18.4581 27.1868 16.0012 27.1851Z" fill="#FFFFEA"/>
</svg>
